<svg enable-background="new 0 0 540.053 158.286" height="158.286" viewBox="0 0 540.053 158.286" width="540.053" xmlns="http://www.w3.org/2000/svg"><path d="m525.61 94.016 11.14 5.57-11.142 5.571z" fill="#ffd203"/><path d="m525.61 106.189 11.14 5.572-11.142 5.57z" fill="#ffd203"/><path clip-rule="evenodd" d="m139.529 113.721c-8.062.016-13.3-.938-18.035-4.205-10.453-7.214-11.433-25.318-1.791-33.905 2.352-2.095 5.007-3.745 7.386-5.802 5.346-4.62 5.801-9.469 1.578-15.298-6.271-8.655-6-18.339.944-26.367 5.333-6.161 11.806-9.447 19.453-7.595 8.197 1.984 10.271 6.681 10.006 13.341-.286 7.068 2.684 11.801 8.316 14.465 3.183 1.506 6.472 2.732 9.589 4.39 5.917 3.146 10.584 7.676 11.672 15.546.685 4.936-.72 9.414-2.806 13.615-3.604 7.254-8.797 12.85-14.735 17.551-10.295 8.143-21.389 13.908-31.577 14.264z" fill="#ffd203" fill-rule="evenodd"/><path clip-rule="evenodd" d="m265.786 92.203c.212-3.29.617-7.39.717-11.497.124-4.923-1.468-9.107-5.185-12.653-6.988-6.681-6.261-16.106 1.723-21.796 3.621-2.578 7.741-4.461 11.658-6.627 5.278-2.911 8.628-6.883 7.983-13.386-1.386-13.954 11.207-23.576 21.268-24.637 12.138-1.285 25.21 6.989 26.938 19.257 1.255 8.946 6.077 12.93 13.38 16.049 9.019 3.846 14.492 10.864 15.983 20.546 2.286 14.832-7.811 26.312-23.599 27.188-3.26.183-6.545.005-9.795.309-7.616.708-14.136 3.946-19.783 9.047-3.953 3.57-7.847 7.207-11.954 10.592-3.982 3.278-8.499 5.547-13.788 5.941-8.706.657-15.02-4.81-15.535-13.527-.082-1.326-.011-2.665-.011-4.806z" fill="#ffd203" fill-rule="evenodd"/><path d="m241.241 112.955v.04l-.012-.04c-12.05 15.733-22.188 25.58-29.691 31.652-.008.174 1.901 13.679 1.901 13.679h16.281c8.179-5.858 11.419-23.058 11.506-23.526.887 4.076 4.443 18.452 11.526 23.526h16.28s1.91-13.505 1.902-13.679c-7.504-6.072-17.643-15.919-29.693-31.652z" fill="#1c1c1c"/><path d="m211.667 144.545-14.426 10.119-.271-1.979-2.452.339.704 5.271 2.499-.011-.107-.922c7.226-5.017 14.446-9.942 14.446-9.942z"/><path d="m285.705 152.768-.271 1.978-14.571-10.199-.391 2.875s7.363 5.007 14.59 10.026l-.11.829 2.498.009.707-5.178z"/><path d="m475.146 112.955v.04l-.013-.04c-12.051 15.733-22.188 25.58-29.691 31.652-.008.174 1.901 13.679 1.901 13.679h16.281c8.179-5.858 11.418-23.058 11.505-23.526.887 4.076 4.443 18.452 11.526 23.526h16.281s1.909-13.505 1.9-13.679c-7.501-6.072-17.64-15.919-29.69-31.652z" fill="#1c1c1c"/><path d="m445.509 144.583-14.363 10.081-.271-1.979-2.452.339.689 5.271 2.498-.011-.093-.922c7.227-5.017 14.384-9.903 14.384-9.903z"/><path d="m519.61 152.768-.272 1.978-14.575-10.194-.391 2.876s7.369 5.001 14.595 10.021l-.109.829 2.498.009.706-5.178z"/><path d="m301.646 158.286h13.964l-4.647-64.511-3.259-45.255 16.602-5.41s-6.374 1.617-16.911 3.737l-1.242-23.512-1.551 14.854s-3.724-.787-9.774-4.427c0 0 3.493 3.308 9.772 7.179l-.928 42.208-1.244 41.617-15.892-4.177 15.741 10.838z" fill="#1c1c1c"/><path d="m145.361 158.286h16.825l-4.42-59.069 17.069-27.878-17.684 21.738-2.332-31.561 7.246-11.42-7.613 7.368-1.106-14.369-2.088 32.425-16.211-12.161 15.228 17.073z" fill="#1c1c1c"/><path clip-rule="evenodd" d="m373.907 116.873c-7.133-1.062-11.639-2.602-15.392-6.123-8.287-7.775-6.741-23.921 2.933-30.231 2.359-1.541 4.929-2.647 7.308-4.149 5.346-3.376 6.393-7.604 3.434-13.324-4.394-8.492-2.864-17.023 4.349-23.199 5.539-4.741 11.703-6.785 18.222-4.127 6.987 2.849 8.197 7.279 7.073 13.134-1.195 6.217.802 10.799 5.43 13.906 2.615 1.756 5.362 3.279 7.898 5.161 4.814 3.571 8.341 8.2 8.255 15.309-.053 4.457-1.893 8.23-4.296 11.671-4.156 5.937-9.495 10.193-15.375 13.562-10.195 5.829-20.778 9.452-29.839 8.41z" fill="#ffd203" fill-rule="evenodd"/><path d="m384.266 158.286h15.031l-3.948-52.661 15.271-24.942-15.822 19.446-2.086-28.233 6.482-10.217-6.811 6.591-.989-12.853-1.868 29.006-14.503-10.88 13.623 15.275z" fill="#1c1c1c"/><path d="m406.603 94.94.147-.641c.115-.502-.324-1.031-.98-1.182-.657-.149-1.282.136-1.397.638l-.146.64c-.665.253-1.195.82-1.365 1.565-.271 1.185.469 2.365 1.653 2.636 1.185.272 2.365-.469 2.636-1.654.169-.743-.06-1.485-.548-2.002z" fill="#1c1c1c"/><path d="m414.136 97.049.147-.64c.115-.503-.325-1.03-.981-1.182-.657-.151-1.283.135-1.398.637l-.145.64c-.666.252-1.196.82-1.366 1.564-.271 1.185.47 2.365 1.654 2.638 1.184.271 2.365-.47 2.635-1.654.172-.744-.058-1.486-.546-2.003z" fill="#1c1c1c"/><path d="m421.604 99.357.147-.64c.115-.504-.323-1.031-.98-1.183s-1.282.135-1.397.637l-.146.641c-.664.253-1.195.819-1.366 1.564-.271 1.184.469 2.364 1.653 2.637 1.184.271 2.365-.469 2.636-1.654.17-.744-.059-1.486-.547-2.002z" fill="#1c1c1c"/><path d="m428.993 101.509.147-.641c.114-.503-.325-1.031-.981-1.182-.657-.15-1.282.135-1.396.637l-.146.64c-.665.253-1.195.82-1.365 1.565-.271 1.184.469 2.365 1.653 2.636 1.185.271 2.365-.469 2.636-1.653.17-.744-.061-1.486-.548-2.002z" fill="#1c1c1c"/><path d="m436.791 103.77.147-.64c.114-.502-.324-1.032-.98-1.182-.657-.151-1.283.136-1.397.638l-.146.639c-.664.253-1.194.82-1.366 1.565-.27 1.185.47 2.364 1.654 2.636 1.185.272 2.365-.469 2.636-1.653.17-.744-.06-1.486-.548-2.003z" fill="#1c1c1c"/><path d="m444.711 105.97.146-.641c.115-.503-.324-1.031-.98-1.183-.657-.149-1.282.136-1.397.638l-.146.64c-.665.253-1.194.82-1.365 1.565-.271 1.184.469 2.365 1.653 2.636 1.185.271 2.364-.469 2.636-1.654.171-.743-.06-1.485-.547-2.001z" fill="#1c1c1c"/><path d="m452.681 108.34.146-.64c.115-.502-.323-1.032-.979-1.182-.657-.151-1.283.134-1.398.638l-.146.639c-.665.253-1.194.82-1.366 1.565-.271 1.185.47 2.364 1.654 2.636 1.185.272 2.364-.469 2.636-1.653.169-.745-.059-1.486-.547-2.003z" fill="#1c1c1c"/><path d="m460.787 110.833.147-.641c.115-.503-.324-1.03-.98-1.182-.657-.15-1.282.135-1.397.637l-.146.64c-.665.254-1.194.821-1.364 1.565-.272 1.184.469 2.365 1.653 2.637 1.184.271 2.364-.469 2.636-1.654.169-.744-.061-1.486-.549-2.002z" fill="#1c1c1c"/><path d="m468.679 112.986.147-.641c.115-.502-.323-1.032-.979-1.182-.657-.15-1.283.135-1.398.638l-.146.639c-.664.253-1.194.82-1.365 1.565-.271 1.185.47 2.365 1.654 2.636 1.184.272 2.364-.469 2.636-1.652.168-.745-.06-1.488-.549-2.003z" fill="#1c1c1c"/><path d="m475.146 112.995-82.936-24.282-.269.963 82.78 24.228z" fill="#1c1c1c"/><path d="m306.01 77.443h86.185v1h-86.185z" fill="#1d1d1b" transform="matrix(-.9629 -.2698 .2698 -.9629 664.222 247.1999)"/><g fill="#1c1c1c"><path d="m241.401 112.52-84.749-14.528-.169.986 84.807 14.538.143.204 64.572-45.446-.575-.818z"/><path d="m323.341 72.404.146-.641c.115-.502-.324-1.031-.98-1.182s-1.282.135-1.397.637l-.146.641c-.665.253-1.194.82-1.365 1.565-.272 1.184.469 2.364 1.653 2.636 1.185.272 2.365-.469 2.637-1.654.169-.744-.06-1.486-.548-2.002z"/><path d="m330.875 74.512.147-.639c.115-.503-.325-1.031-.981-1.183-.657-.151-1.283.136-1.398.638l-.145.64c-.666.252-1.195.819-1.366 1.564-.271 1.185.47 2.364 1.654 2.637 1.184.271 2.365-.47 2.635-1.654.171-.743-.059-1.485-.546-2.003z"/><path d="m338.435 76.68.147-.641c.115-.503-.324-1.031-.981-1.183-.657-.15-1.282.136-1.397.638l-.146.64c-.665.253-1.196.819-1.366 1.564-.271 1.185.469 2.365 1.653 2.637s2.365-.469 2.637-1.653c.171-.744-.059-1.486-.547-2.002z"/><path d="m345.825 78.832.147-.64c.115-.503-.324-1.031-.98-1.183-.657-.15-1.282.135-1.397.637l-.146.641c-.665.253-1.195.82-1.365 1.565-.272 1.184.469 2.364 1.653 2.636 1.184.271 2.365-.469 2.636-1.654.169-.745-.061-1.486-.548-2.002z"/><path d="m353.716 80.984.147-.64c.115-.502-.323-1.032-.979-1.182-.657-.151-1.283.135-1.398.637l-.146.64c-.664.253-1.194.82-1.366 1.565-.27 1.184.47 2.364 1.654 2.636 1.184.271 2.365-.469 2.636-1.653.17-.745-.059-1.487-.548-2.003z"/><path d="m361.636 83.183.147-.64c.115-.503-.325-1.031-.981-1.183-.657-.15-1.282.135-1.397.637l-.146.641c-.666.253-1.194.82-1.365 1.565-.272 1.184.469 2.364 1.653 2.636 1.185.271 2.365-.469 2.636-1.654.171-.744-.059-1.485-.547-2.002z"/><path d="m369.527 85.335.147-.641c.115-.502-.324-1.031-.98-1.181-.657-.151-1.283.134-1.398.637l-.146.639c-.665.254-1.195.821-1.366 1.565-.27 1.185.47 2.365 1.654 2.637s2.365-.469 2.636-1.653c.171-.745-.057-1.487-.547-2.003z"/><path d="m377.635 87.828.147-.64c.115-.503-.324-1.031-.98-1.183-.657-.149-1.282.136-1.397.638l-.146.64c-.665.253-1.194.82-1.365 1.565-.272 1.184.469 2.365 1.653 2.636s2.365-.469 2.636-1.654c.17-.744-.06-1.486-.548-2.002z"/><path d="m385.526 89.98.147-.64c.115-.502-.324-1.032-.979-1.182-.657-.151-1.283.134-1.398.637l-.146.64c-.664.253-1.194.82-1.366 1.565-.27 1.185.47 2.364 1.654 2.636 1.185.272 2.365-.469 2.636-1.653.17-.745-.059-1.486-.548-2.003z"/><path d="m315.771 70.34.147-.641c.115-.502-.324-1.031-.98-1.182-.657-.15-1.282.135-1.397.637l-.146.641c-.665.253-1.195.82-1.365 1.565-.272 1.185.468 2.364 1.653 2.636s2.365-.469 2.636-1.654c.17-.744-.059-1.485-.548-2.002z"/><path d="m246.678 111.071-.402-.52c-.316-.407-1.003-.404-1.535.008-.533.412-.709 1.077-.395 1.483l.402.521c-.227.675-.124 1.443.344 2.047.743.963 2.125 1.139 3.086.396s1.138-2.126.394-3.088c-.467-.604-1.185-.897-1.894-.847z"/><path d="m253.087 106.584-.4-.519c-.316-.408-1.003-.402-1.537.009s-.71 1.076-.395 1.483l.402.519c-.227.674-.125 1.444.343 2.049.743.96 2.125 1.138 3.087.396.96-.743 1.138-2.127.393-3.088-.463-.604-1.184-.897-1.893-.849z"/><path d="m259.56 102.116-.402-.521c-.315-.408-1.002-.403-1.536.008-.534.412-.709 1.078-.394 1.485l.401.519c-.225.674-.124 1.443.343 2.049.744.96 2.125 1.138 3.087.395.961-.744 1.138-2.125.395-3.088-.467-.604-1.185-.897-1.894-.847z"/><path d="m265.911 97.769-.401-.521c-.316-.408-1.003-.402-1.537.008-.533.413-.709 1.077-.394 1.484l.402.519c-.227.676-.124 1.446.344 2.05.742.96 2.125 1.138 3.086.394.961-.742 1.139-2.125.394-3.087-.467-.604-1.185-.898-1.894-.847z"/><path d="m272.581 93.035-.401-.521c-.316-.407-1.003-.404-1.535.008-.534.412-.709 1.078-.394 1.485l.401.518c-.226.675-.124 1.444.343 2.05.744.959 2.125 1.136 3.087.393.962-.741 1.138-2.125.395-3.085-.468-.606-1.186-.899-1.896-.848z"/><path d="m279.306 88.308-.401-.521c-.316-.408-1.003-.403-1.536.008-.533.414-.71 1.076-.394 1.484l.401.518c-.226.676-.123 1.444.345 2.05.743.96 2.125 1.137 3.086.395.961-.743 1.139-2.126.394-3.088-.468-.603-1.187-.897-1.895-.846z"/><path d="m285.976 83.573-.401-.521c-.316-.407-1.003-.405-1.535.008-.534.411-.71 1.078-.395 1.486l.402.518c-.226.674-.124 1.443.343 2.05.744.959 2.126 1.136 3.087.392.962-.743 1.138-2.124.395-3.085-.469-.606-1.188-.899-1.896-.848z"/><path d="m293.046 78.886-.402-.519c-.315-.408-1.002-.403-1.536.008-.533.413-.709 1.076-.394 1.483l.402.52c-.227.674-.124 1.443.344 2.049.742.96 2.125 1.137 3.086.395.961-.744 1.138-2.126.394-3.088-.466-.603-1.186-.896-1.894-.848z"/><path d="m299.715 74.153-.401-.521c-.315-.406-1.003-.404-1.535.01-.534.411-.71 1.077-.394 1.483l.401.521c-.226.673-.124 1.443.343 2.048.745.961 2.126 1.137 3.087.394.962-.743 1.138-2.126.395-3.086-.467-.607-1.186-.9-1.896-.849z"/><path d="m171.202 102.454.08-.651c.062-.512-.428-.993-1.096-1.074-.669-.083-1.262.266-1.325.775l-.08.653c-.637.319-1.104.938-1.198 1.696-.148 1.207.709 2.305 1.915 2.453s2.304-.709 2.453-1.917c.093-.756-.211-1.472-.749-1.935z"/><path d="m178.912 103.779.081-.65c.063-.513-.429-.993-1.097-1.075-.669-.084-1.263.265-1.325.776l-.079.652c-.636.318-1.105.938-1.198 1.695-.149 1.207.709 2.305 1.916 2.454 1.205.148 2.304-.71 2.451-1.917.094-.757-.211-1.469-.749-1.935z"/><path d="m186.655 105.159.08-.651c.062-.512-.427-.993-1.097-1.075-.668-.084-1.261.265-1.323.775l-.08.651c-.635.32-1.105.939-1.198 1.697-.148 1.206.709 2.304 1.915 2.454 1.206.147 2.305-.709 2.454-1.917.092-.757-.213-1.471-.751-1.934z"/><path d="m194.227 106.542.081-.652c.062-.512-.429-.991-1.097-1.075-.669-.083-1.262.266-1.325.778l-.08.65c-.635.32-1.104.939-1.196 1.696-.15 1.206.708 2.305 1.914 2.453 1.206.149 2.304-.709 2.452-1.915.094-.759-.211-1.472-.749-1.935z"/><path d="m202.297 107.872.081-.652c.062-.512-.428-.992-1.096-1.073-.669-.085-1.263.267-1.326.775l-.08.652c-.634.319-1.104.939-1.197 1.696-.148 1.206.709 2.305 1.915 2.452 1.207.15 2.305-.707 2.453-1.915.094-.758-.21-1.473-.75-1.935z"/><path d="m210.4 109.247.081-.652c.062-.512-.429-.991-1.097-1.074-.668-.084-1.262.266-1.324.777l-.08.651c-.635.319-1.104.939-1.197 1.696-.149 1.205.709 2.304 1.915 2.453 1.207.148 2.305-.708 2.452-1.916.094-.758-.211-1.472-.75-1.935z"/><path d="m218.473 110.578.08-.652c.062-.511-.429-.993-1.096-1.073-.669-.084-1.263.265-1.325.776l-.08.651c-.635.318-1.104.938-1.198 1.695-.147 1.207.71 2.305 1.916 2.454 1.207.148 2.305-.709 2.453-1.916.092-.758-.212-1.472-.75-1.935z"/><path d="m226.792 112.225.081-.652c.062-.511-.429-.992-1.097-1.074-.67-.082-1.262.267-1.325.777l-.08.65c-.636.32-1.104.938-1.197 1.698-.15 1.204.709 2.303 1.915 2.452 1.206.147 2.304-.71 2.452-1.916.093-.757-.211-1.472-.749-1.935z"/><path d="m234.863 113.557.081-.653c.062-.511-.428-.993-1.096-1.074-.67-.083-1.263.265-1.325.777l-.081.65c-.635.32-1.104.939-1.197 1.697-.147 1.207.71 2.305 1.915 2.453 1.206.148 2.304-.71 2.453-1.914.093-.76-.212-1.473-.75-1.936z"/><path d="m163.105 101.104.081-.652c.062-.512-.428-.992-1.096-1.074-.67-.082-1.263.266-1.325.777l-.081.651c-.634.319-1.104.939-1.197 1.697-.147 1.206.709 2.303 1.915 2.452s2.305-.709 2.453-1.915c.094-.758-.211-1.472-.75-1.936z"/><path d="m524.504 93.98h3v64.306h-3z"/></g><path d="m4.708 93.94 11.139 5.57-11.141 5.571z" fill="#ffd203"/><path d="m3.606 93.904h3v64.382h-3z" fill="#1c1c1c"/><path d="m398.259 92.674.147-.641c.115-.502-.324-1.031-.98-1.182-.657-.149-1.282.136-1.397.638l-.146.64c-.665.253-1.195.82-1.365 1.565-.271 1.185.469 2.365 1.653 2.636 1.185.272 2.365-.469 2.636-1.654.17-.743-.059-1.485-.548-2.002z" fill="#1c1c1c"/><path d="m111.003 152.775-.271 1.975-14.502-10.147-.001.003c-7.492-6.065-17.613-15.898-29.641-31.603v.04l-.012-.04c-11.997 15.665-22.096 25.483-29.583 31.555l-.003-.019-14.356 10.129-.271-1.977-2.45.34.702 5.265 2.496-.01-.106-.922c6.765-4.697 13.478-9.332 14.294-9.896.555 3.997 1.502 10.817 1.502 10.817h16.264c8.171-5.854 11.421-23.034 11.507-23.501.886 4.071 4.418 18.432 11.495 23.501h16.264s.979-6.796 1.533-10.794c.449.304 7.514 5.104 14.5 9.955l-.11.83 2.495.009.706-5.173z" fill="#1c1c1c"/><path d="m65.752 90.054c-22.156 0-40.534 16.157-44.005 37.331.043-.003.085-.007.13-.007h26.826c5.312-5.415 11.308-12.234 17.872-20.805l.012.039v-.039c6.564 8.57 12.56 15.39 17.871 20.805h25.298c-3.475-21.17-21.851-37.324-44.004-37.324z" fill="#ffd203"/><path d="m110.288 130.84h-22.335c1.769 1.698 3.448 3.229 5.033 4.61h17.304c.038-.756.057-1.518.057-2.282-0-.781-.019-1.556-.059-2.328z" fill="#ffd203"/><path d="m101.913 143.603h6.776c.396-1.503.719-3.034.958-4.593h-13.792z" fill="#ffd203"/><path d="m107.019 148.737.111.014c.194-.49.364-.994.508-1.512l-2.29-.015z" fill="#ffd203"/><path d="m21.379 130.84h23.534c-1.864 1.698-3.632 3.229-5.303 4.61h-18.234c-.039-.756-.061-1.518-.061-2.282.001-.781.022-1.556.064-2.328z" fill="#ffd203"/><path d="m31.221 143.528-8.158.075c-.417-1.503-.757-3.034-1.009-4.593h14.532z" fill="#ffd203"/><path d="m24.824 148.737-.117.014c-.205-.49-.384-.994-.535-1.512l2.412-.015z" fill="#ffd203"/></svg>