<svg enable-background="new 0 0 851 75.6" viewBox="0 0 851 75.6" xmlns="http://www.w3.org/2000/svg"><path d="m851 65.4c-130.4 1.4-213.5-6.5-223.6-7.5-28.2-2.8-190-18.3-419.1-1-78.2 5.9-148.5 8.2-208.3 8.6v10c60-.4 130.6-2.7 209-8.6 232.2-17.5 394.8-1.3 418.6 1.1 13.4 1.3 83.9 7.6 193.3 7.6 9.7 0 19.7-.1 30-.2v-10z" fill="#6ecb98"/><path d="m851 55.8c-130.4 1.4-213.5-6.5-223.6-7.5-28.2-2.8-190-18.3-419.1-1-78.2 5.9-148.5 8.2-208.3 8.6v10c60-.4 130.6-2.7 209-8.6 232.2-17.5 394.8-1.3 418.6 1.1 13.5 1.3 83.9 7.6 193.4 7.6 9.7 0 19.7-.1 30-.2z" fill="#3e8ede"/><path d="m851 45.9c-130.4 1.4-213.5-6.5-223.6-7.5-28.2-2.8-190-18.3-419.1-1-78.2 5.9-148.5 8.2-208.3 8.6v10c60-.4 130.6-2.7 209-8.6 232.2-17.5 394.8-1.3 418.6 1.1 13.4 1.3 83.9 7.6 193.3 7.6 9.7 0 19.7-.1 30-.2v-10z" fill="#ac6389"/><path d="m851 36c-130.4 1.4-213.5-6.5-223.6-7.5-28.2-2.8-190-18.3-419.1-1-78.2 5.9-148.5 8.2-208.3 8.6v10c60-.4 130.6-2.7 209-8.6 232.2-17.5 394.8-1.3 418.6 1.1 13.4 1.3 83.9 7.6 193.3 7.6 9.7 0 19.7-.1 30-.2v-10z" fill="#ff8671"/><path d="m851 26.2c-124.7 1.3-206.2-5.8-221.9-7.3v-.1c-27.5-2.7-189.6-18.3-419.4-1-78.8 5.8-149.6 8.1-209.7 8.5v10c60.3-.4 131.4-2.7 210.5-8.6 227.2-17.1 387.8-2 416.9.9v.1c12.9 1.3 83.5 7.6 193.6 7.6 9.7 0 19.7-.1 30-.2z" fill="#f19f53"/><path d="m851 16.6c-133 1.3-216.7-6.9-223.6-7.6-29.7-2.9-190.9-18.1-418.6-1-78.4 5.9-148.9 8.3-208.8 8.6v10c60.1-.4 130.9-2.7 209.6-8.6 230.4-17.4 392.3-1.5 418 1 11.9 1.2 82.9 7.7 193.9 7.7 9.5 0 19.4 0 29.5-.2z" fill="#ffd100"/></svg>