<svg xmlns="http://www.w3.org/2000/svg" xmlns:xlink="http://www.w3.org/1999/xlink"><defs><symbol viewBox="0 0 841.89 158.253" id="campsite-illustrator"><path fill="#ffd203" d="m827.652 93.908 11.14 5.57-11.142 5.57zM827.652 106.081l11.14 5.572-11.142 5.569z" /><path fill="#ffd203" fill-rule="evenodd" d="M706.619 102.075c-8.062.016-13.299-.938-18.035-4.205-10.452-7.214-11.432-25.318-1.79-33.904 2.352-2.096 5.008-3.746 7.387-5.802 5.346-4.621 5.8-9.47 1.577-15.299-6.271-8.655-6-18.339.945-26.367 5.332-6.162 11.805-9.448 19.452-7.595 8.196 1.985 10.271 6.681 10.006 13.341-.286 7.069 2.685 11.802 8.317 14.466 3.183 1.505 6.471 2.731 9.588 4.389 5.916 3.146 10.584 7.676 11.672 15.546.686 4.937-.72 9.415-2.806 13.616-3.604 7.253-8.797 12.849-14.735 17.55-10.296 8.143-21.39 13.907-31.578 14.264M139.529 114.41c-8.062.016-13.3-.938-18.035-4.205-10.453-7.214-11.433-25.318-1.791-33.905 2.352-2.095 5.007-3.745 7.386-5.802 5.346-4.62 5.801-9.469 1.578-15.298-6.271-8.655-6-18.339.944-26.367 5.333-6.161 11.806-9.447 19.453-7.595 8.197 1.984 10.271 6.681 10.006 13.341-.286 7.068 2.684 11.801 8.316 14.465 3.183 1.506 6.472 2.732 9.589 4.39 5.917 3.146 10.584 7.676 11.672 15.546.685 4.936-.72 9.414-2.806 13.615-3.604 7.254-8.797 12.85-14.735 17.551-10.295 8.143-21.389 13.907-31.577 14.264M265.786 92.891c.212-3.29.617-7.39.717-11.497.124-4.923-1.468-9.107-5.185-12.653-6.988-6.681-6.261-16.106 1.723-21.796 3.621-2.578 7.741-4.461 11.658-6.627 5.278-2.911 8.628-6.883 7.983-13.386-1.385-13.954 11.208-23.576 21.269-24.636 12.138-1.285 25.21 6.989 26.938 19.257 1.255 8.946 6.077 12.93 13.38 16.049 9.019 3.846 14.492 10.864 15.983 20.546 2.286 14.832-7.811 26.312-23.599 27.188-3.26.183-6.545.005-9.795.309-7.616.708-14.136 3.946-19.783 9.047-3.953 3.57-7.847 7.207-11.954 10.592-3.982 3.278-8.499 5.547-13.788 5.941-8.706.657-15.02-4.81-15.535-13.527-.083-1.326-.012-2.665-.012-4.807" clip-rule="evenodd" /><path fill="#1c1c1c" d="M241.282 112.922v.04l-.012-.04c-12.05 15.733-22.188 25.58-29.691 31.652-.008.174 1.859 13.679 1.859 13.679h16.281c8.179-5.858 11.46-23.058 11.547-23.526.887 4.076 4.433 18.452 11.516 23.526h16.28s1.92-13.505 1.912-13.679c-7.503-6.072-17.641-15.918-29.692-31.652" /><path d="m211.708 144.513-14.426 10.119-.271-1.979-2.452.339.666 5.271 2.499-.011-.069-.922c7.226-5.017 14.446-9.942 14.446-9.942zM285.747 152.736l-.271 1.978-14.571-10.199-.391 2.875s7.363 5.007 14.59 10.026l-.11.829 2.498.009.707-5.178z" /><path fill="#1c1c1c" d="M475.105 112.922v.04l-.013-.04c-12.051 15.733-22.188 25.58-29.691 31.652-.008.174 1.864 13.679 1.864 13.679h16.281c8.179-5.858 11.455-23.058 11.542-23.526.887 4.076 4.422 18.452 11.505 23.526h16.281s1.931-13.505 1.922-13.679c-7.502-6.072-17.641-15.918-29.691-31.652" /><path d="m445.468 144.551-14.363 10.081-.271-1.979-2.452.339.717 5.271 2.498-.011-.12-.922c7.227-5.017 14.384-9.903 14.384-9.903zM519.569 152.736l-.272 1.978-14.575-10.194-.391 2.876s7.369 5.001 14.595 10.021l-.109.829 2.498.009.706-5.178z" /><path fill="#1c1c1c" d="M301.653 158.253h13.964l-4.655-64.637-3.259-45.255 16.602-5.41s-6.374 1.617-16.911 3.737l-1.242-23.512-1.551 14.854s-3.724-.787-9.774-4.427c0 0 3.493 3.308 9.772 7.179l-.928 42.208-1.244 41.617-15.892-4.177 15.741 10.838zM145.438 158.253h16.824l-4.42-59.068 17.07-27.878-17.684 21.737-2.332-31.56 7.245-11.42-7.613 7.368-1.106-14.369-2.088 32.425-16.21-12.161L150.351 80.4z" /><path fill="#ffd203" fill-rule="evenodd" d="M373.907 117.561c-7.133-1.062-11.639-2.602-15.392-6.123-8.287-7.775-6.741-23.921 2.933-30.231 2.359-1.541 4.929-2.647 7.308-4.149 5.346-3.376 6.393-7.604 3.434-13.324-4.394-8.492-2.864-17.023 4.349-23.199 5.539-4.741 11.703-6.785 18.222-4.127 6.987 2.849 8.197 7.279 7.073 13.134-1.195 6.217.802 10.799 5.43 13.906 2.615 1.756 5.362 3.279 7.898 5.161 4.814 3.571 8.341 8.2 8.255 15.309-.053 4.457-1.893 8.23-4.296 11.671-4.156 5.937-9.495 10.193-15.375 13.562-10.195 5.83-20.778 9.452-29.839 8.41" clip-rule="evenodd" /><path fill="#1c1c1c" d="M384.293 158.253h15.051l-3.953-52.843 15.271-24.942-15.822 19.447-2.086-28.234 6.482-10.217-6.811 6.591-.989-12.853-1.868 29.006-14.503-10.879 13.623 15.274z" /><path fill="#ffd203" fill-rule="evenodd" d="M636.862 38.41c2.659.898 5.434 1.558 7.944 2.764 2.539 1.22 4.904 2.858 7.184 4.532 3.938 2.889 8.283 4.185 13.128 3.925.273-.015.548-.006.824-.005 11.997.05 17.694 10.06 11.465 20.43-1.869 3.113-4.305 5.912-6.665 8.699-4.164 4.91-6.303 10.433-5.773 16.925.144 1.73.177 3.476.154 5.215-.147 10.924-9.572 18.304-20.173 15.565-2.942-.76-5.675-2.352-8.485-3.608-.999-.446-1.964-.987-2.909-1.542-6.478-3.792-13.221-6.319-20.942-6.565-7.651-.241-12.687-5.075-14.412-12.432-1.867-7.96 1.7-15.92 8.959-19.702 3.159-1.646 6.505-2.943 9.646-4.625 6.393-3.416 8.236-7.256 7.19-14.421-1.182-8.128 4.561-14.769 12.865-15.155" clip-rule="evenodd" /><path fill="#1c1c1c" d="M577.248 112.922v.04l-.012-.04c-12.051 15.733-22.188 25.58-29.691 31.652-.008.174 1.846 13.679 1.846 13.679h16.281c8.179-5.858 11.474-23.058 11.561-23.526.887 4.076 4.435 18.452 11.518 23.526h16.281s1.918-13.505 1.909-13.679c-7.503-6.072-17.642-15.918-29.693-31.652" /><path d="m547.607 144.545-14.359 10.087-.271-1.979-2.452.339.687 5.271 2.498-.011-.09-.922c7.226-5.017 14.38-9.91 14.38-9.91zM621.713 152.736l-.272 1.978-14.572-10.135-.39 2.876s7.365 4.941 14.591 9.961l-.109.829 2.498.009.706-5.178z" /><path fill="#1c1c1c" d="M638.208 158.253h15.05l-3.953-52.843 15.271-24.942-15.821 19.447-2.086-28.234 6.481-10.217-6.81 6.591-.989-12.853-1.869 29.006-14.503-10.878 13.624 15.273zM705.276 158.253h13.964l-4.654-64.636-3.26-45.256 16.603-5.409s-6.373 1.616-16.911 3.737l-1.241-23.513-1.551 14.855s-3.724-.788-9.774-4.428c0 0 3.493 3.309 9.772 7.179l-.93 42.209-1.243 41.616-15.893-4.176 15.741 10.838zM776.8 112.922v.04l-.013-.04c-12.05 15.733-22.188 25.58-29.69 31.652-.009.174 1.841 13.679 1.841 13.679h16.281c8.179-5.858 11.478-23.058 11.564-23.526.888 4.076 4.415 18.452 11.498 23.526h16.281s1.938-13.505 1.93-13.679c-7.504-6.072-17.641-15.918-29.692-31.652" /><path d="m747.127 144.545-14.328 10.087-.271-1.979-2.453.339.683 5.271 2.499-.011-.087-.922c7.227-5.017 14.348-9.91 14.348-9.91zM821.264 152.736l-.272 1.978-14.604-10.231-.39 2.875s7.397 5.039 14.624 10.059l-.11.829 2.498.009.706-5.178z" /><path fill="#1c1c1c" d="m406.603 95.628.147-.641c.115-.502-.324-1.031-.98-1.182-.657-.149-1.282.136-1.397.638l-.146.64a2.2 2.2 0 1 0 2.376.545M414.136 97.738l.147-.64c.115-.503-.325-1.03-.981-1.182-.657-.151-1.283.135-1.398.637l-.145.64a2.19 2.19 0 0 0-1.366 1.564 2.2 2.2 0 1 0 3.743-1.019M421.697 99.905l.147-.64c.115-.504-.323-1.031-.98-1.183s-1.282.135-1.397.637l-.146.641a2.198 2.198 0 0 0 .287 4.201 2.2 2.2 0 0 0 2.089-3.656M429.087 102.057l.147-.641c.114-.503-.325-1.031-.981-1.182-.657-.15-1.282.135-1.396.637l-.146.64a2.2 2.2 0 1 0 2.924 2.548 2.2 2.2 0 0 0-.548-2.002M436.979 104.208l.147-.64c.114-.502-.324-1.032-.98-1.182-.657-.151-1.283.136-1.397.638l-.146.639a2.2 2.2 0 0 0-1.366 1.565 2.2 2.2 0 1 0 3.742-1.02M444.898 106.409l.146-.641c.115-.503-.324-1.031-.98-1.183-.657-.149-1.282.136-1.397.638l-.146.64a2.2 2.2 0 1 0 2.924 2.547 2.19 2.19 0 0 0-.547-2.001M452.79 108.56l.146-.64c.115-.502-.323-1.032-.979-1.182-.657-.151-1.283.134-1.398.638l-.146.639a2.2 2.2 0 1 0 2.924 2.548 2.2 2.2 0 0 0-.547-2.003M460.896 111.053l.147-.641c.115-.503-.324-1.03-.98-1.182-.657-.15-1.282.135-1.397.637l-.146.64a2.201 2.201 0 0 0 .289 4.202 2.197 2.197 0 0 0 2.087-3.656M468.788 113.206l.147-.641c.115-.502-.323-1.032-.979-1.182-.657-.15-1.283.135-1.398.638l-.146.639a2.198 2.198 0 0 0 .289 4.201 2.197 2.197 0 0 0 2.087-3.655M486.238 114.744l-.032-.658c-.022-.514-.586-.907-1.26-.874-.672.033-1.2.475-1.175.989l.032.654a2.19 2.19 0 0 0-.894 1.876 2.196 2.196 0 0 0 2.3 2.094 2.2 2.2 0 0 0 2.094-2.302 2.19 2.19 0 0 0-1.065-1.779M494.062 114.75l-.029-.654c-.024-.518-.589-.905-1.262-.876-.676.03-1.202.474-1.178.988l.032.658a2.2 2.2 0 1 0 2.437-.116M501.927 114.803l-.031-.655c-.022-.515-.588-.905-1.262-.874-.674.03-1.198.475-1.176.988l.033.656a2.2 2.2 0 0 0-.896 1.873 2.203 2.203 0 0 0 2.301 2.097 2.202 2.202 0 0 0 1.031-4.085M509.623 114.891l-.031-.656c-.024-.514-.591-.904-1.262-.874-.673.031-1.199.475-1.175.989l.031.655a2.2 2.2 0 0 0-.896 1.874 2.203 2.203 0 0 0 4.398-.207 2.2 2.2 0 0 0-1.065-1.781M517.802 114.844l-.03-.655c-.024-.515-.589-.908-1.26-.875-.675.029-1.201.474-1.176.988l.029.654a2.2 2.2 0 0 0-.895 1.875 2.2 2.2 0 1 0 3.332-1.987M526.021 114.835l-.029-.657c-.026-.515-.591-.904-1.262-.875-.676.032-1.199.473-1.177.989l.032.655a2.2 2.2 0 0 0-.895 1.875 2.2 2.2 0 1 0 3.331-1.987M534.202 114.786l-.031-.656c-.023-.513-.589-.907-1.262-.875-.672.031-1.198.474-1.175.99l.032.656a2.2 2.2 0 0 0-.897 1.872 2.205 2.205 0 0 0 2.303 2.095 2.194 2.194 0 0 0 2.094-2.3 2.19 2.19 0 0 0-1.064-1.782M542.681 115.008l-.03-.656c-.024-.515-.59-.904-1.263-.874-.674.03-1.198.475-1.175.988l.031.656a2.2 2.2 0 1 0 3.501 1.667 2.2 2.2 0 0 0-1.064-1.781M550.86 114.96l-.03-.656c-.024-.514-.59-.906-1.263-.873-.673.029-1.198.473-1.175.987l.031.655a2.2 2.2 0 0 0-.896 1.874 2.201 2.201 0 0 0 4.396-.204 2.19 2.19 0 0 0-1.063-1.783M588.037 112.804l-.19-.63c-.15-.493-.795-.733-1.439-.539-.644.197-1.044.756-.896 1.249l.192.627a2.2 2.2 0 0 0-.407 2.036 2.202 2.202 0 1 0 4.211-1.281 2.19 2.19 0 0 0-1.471-1.462M595.954 110.746l-.192-.628c-.148-.493-.794-.735-1.435-.538-.646.194-1.048.754-.897 1.247l.191.627a2.2 2.2 0 0 0-.408 2.037 2.203 2.203 0 0 0 4.213-1.281 2.2 2.2 0 0 0-1.472-1.464M603.919 108.714l-.19-.631c-.151-.492-.795-.73-1.438-.536-.646.197-1.046.756-.897 1.249l.194.626a2.201 2.201 0 0 0 2.338 3.502 2.2 2.2 0 0 0-.007-4.21M611.837 106.657l-.19-.629c-.15-.491-.796-.735-1.439-.537-.645.195-1.047.753-.896 1.248l.193.627a2.2 2.2 0 0 0-.408 2.036 2.203 2.203 0 0 0 2.747 1.465 2.197 2.197 0 0 0 1.462-2.745 2.19 2.19 0 0 0-1.469-1.465M620.108 104.786l-.189-.627c-.15-.493-.795-.733-1.44-.538-.646.196-1.045.755-.894 1.246l.189.631a2.202 2.202 0 0 0 2.34 3.501 2.2 2.2 0 0 0-.006-4.213M628.025 102.729l-.191-.628c-.148-.493-.793-.733-1.437-.537-.646.194-1.047.754-.896 1.247l.19.628a2.2 2.2 0 1 0 3.804.757 2.2 2.2 0 0 0-1.47-1.467M636.495 100.511l-.192-.63c-.149-.491-.795-.733-1.438-.537-.645.197-1.047.756-.896 1.25l.191.625a2.2 2.2 0 0 0-.404 2.039 2.198 2.198 0 1 0 4.208-1.282 2.2 2.2 0 0 0-1.469-1.465" /><path fill="#1d1d1b" d="m657.003 99.602.052-.656c.042-.513-.469-.975-1.14-1.026-.672-.053-1.25.319-1.291.833l-.052.653a2.19 2.19 0 0 0-1.123 1.748 2.194 2.194 0 0 0 2.018 2.366 2.195 2.195 0 0 0 2.367-2.017 2.19 2.19 0 0 0-.831-1.901M664.763 100.596l.053-.652c.042-.515-.47-.974-1.141-1.03-.674-.052-1.253.322-1.293.835l-.051.654a2.19 2.19 0 0 0-1.123 1.745 2.199 2.199 0 1 0 4.385.351 2.2 2.2 0 0 0-.83-1.903M672.557 101.645l.055-.653c.041-.513-.47-.973-1.144-1.027-.672-.055-1.248.318-1.289.832l-.053.655a2.2 2.2 0 0 0-1.125 1.744 2.204 2.204 0 0 0 2.02 2.371 2.2 2.2 0 0 0 1.536-3.922M680.18 102.706l.053-.655c.042-.514-.47-.973-1.141-1.027-.672-.054-1.249.32-1.291.833l-.051.654a2.2 2.2 0 0 0-1.124 1.746 2.202 2.202 0 0 0 4.387.35 2.2 2.2 0 0 0-.833-1.901M688.3 103.692l.053-.654c.042-.513-.47-.976-1.139-1.027-.673-.055-1.25.318-1.292.833l-.052.653a2.2 2.2 0 0 0-1.126 1.745 2.206 2.206 0 0 0 2.021 2.37 2.2 2.2 0 0 0 1.535-3.92M696.456 104.721l.053-.655c.041-.514-.472-.972-1.142-1.027-.672-.053-1.25.319-1.291.834l-.051.654a2.2 2.2 0 0 0-1.125 1.745 2.201 2.201 0 1 0 4.386.349 2.19 2.19 0 0 0-.83-1.9M704.576 105.708l.053-.654c.041-.513-.47-.975-1.143-1.026-.67-.056-1.248.317-1.29.831l-.051.655a2.196 2.196 0 0 0 .894 4.114 2.197 2.197 0 0 0 2.367-2.019 2.19 2.19 0 0 0-.83-1.901" /><g fill="#1c1c1c"><path d="m722.025 107.9.053-.654c.041-.513-.47-.975-1.143-1.026-.671-.055-1.249.319-1.289.833l-.052.652a2.198 2.198 0 0 0 .893 4.115 2.197 2.197 0 0 0 2.368-2.017 2.2 2.2 0 0 0-.83-1.903M729.783 109.166l.05-.656c.043-.513-.469-.974-1.139-1.026-.673-.054-1.251.319-1.292.834l-.051.651a2.2 2.2 0 0 0-1.123 1.749 2.194 2.194 0 0 0 2.016 2.367 2.196 2.196 0 0 0 2.368-2.018 2.19 2.19 0 0 0-.829-1.901M737.542 110.16l.053-.652c.041-.515-.47-.974-1.14-1.028-.675-.055-1.253.32-1.294.833l-.051.654a2.199 2.199 0 1 0 3.262 2.096 2.2 2.2 0 0 0-.83-1.903M745.336 111.208l.054-.653c.041-.512-.47-.974-1.143-1.028-.672-.054-1.249.319-1.29.834l-.051.654a2.2 2.2 0 0 0-1.125 1.744 2.201 2.201 0 1 0 4.387.352 2.2 2.2 0 0 0-.832-1.903M752.959 112.27l.053-.655c.041-.515-.471-.974-1.141-1.028-.672-.054-1.249.32-1.291.834l-.051.653a2.2 2.2 0 0 0-1.125 1.746 2.201 2.201 0 0 0 4.388.35 2.19 2.19 0 0 0-.833-1.9M761.08 113.254l.051-.653c.043-.514-.469-.976-1.138-1.027-.673-.054-1.251.319-1.292.833l-.052.652a2.2 2.2 0 0 0-1.126 1.747c-.095 1.211.809 2.271 2.02 2.369s2.272-.806 2.368-2.018a2.2 2.2 0 0 0-.831-1.903M769.235 114.285l.053-.655c.04-.513-.472-.972-1.142-1.027-.673-.052-1.25.32-1.291.833l-.051.655a2.199 2.199 0 0 0 .894 4.113 2.199 2.199 0 0 0 1.537-3.919M577.118 113.123l-101.923-.456.003-.008-82.988-23.257-.269.963 82.829 23.212v.089l102.408.457h.063l66.808-16.873-.244-.969z" /><path d="M776.627 113.129 648.405 96.288a.502.502 0 0 0-.131.993l128.222 16.842a.5.5 0 0 0 .131-.994M390.46 90.756l-82.988-23.252.27-.963 82.987 23.253zM241.401 113.208 156.652 98.68l-.169.987 84.807 14.538.143.204 64.572-45.447-.575-.818z" /><path d="m323.341 73.092.146-.641c.115-.502-.324-1.031-.98-1.182s-1.282.135-1.397.637l-.146.641a2.2 2.2 0 1 0 2.377.545M330.875 75.201l.147-.639c.115-.503-.325-1.031-.981-1.183-.657-.151-1.283.136-1.398.638l-.145.64a2.19 2.19 0 0 0-1.366 1.564 2.2 2.2 0 1 0 3.743-1.02M338.435 77.369l.147-.641c.115-.503-.324-1.031-.981-1.183-.657-.15-1.282.136-1.397.638l-.146.64a2.2 2.2 0 0 0-1.366 1.564 2.202 2.202 0 0 0 4.29.984 2.19 2.19 0 0 0-.547-2.002M345.825 79.52l.147-.64c.115-.503-.324-1.031-.98-1.183-.657-.15-1.282.135-1.397.637l-.146.641a2.2 2.2 0 1 0 2.924 2.547 2.2 2.2 0 0 0-.548-2.002M353.716 81.672l.147-.64c.115-.502-.323-1.032-.979-1.182-.657-.151-1.283.135-1.398.637l-.146.64a2.2 2.2 0 0 0-1.366 1.565 2.2 2.2 0 1 0 3.742-1.02M361.636 83.872l.147-.64c.115-.503-.325-1.031-.981-1.183-.657-.15-1.282.135-1.397.637l-.146.641a2.2 2.2 0 1 0 2.377.545M369.527 86.024l.147-.641c.115-.502-.324-1.031-.98-1.181-.657-.151-1.283.134-1.398.637l-.146.639a2.201 2.201 0 1 0 2.377.546M377.635 88.516l.147-.64c.115-.503-.324-1.031-.98-1.183-.657-.149-1.282.136-1.397.638l-.146.64a2.2 2.2 0 1 0 2.376.545M385.526 90.668l.147-.64c.115-.502-.324-1.032-.979-1.182-.657-.151-1.283.134-1.398.637l-.146.64a2.2 2.2 0 0 0-1.366 1.565 2.2 2.2 0 1 0 3.742-1.02M315.771 71.029l.147-.641c.115-.502-.324-1.031-.98-1.182-.657-.15-1.282.135-1.397.637l-.146.641a2.2 2.2 0 1 0 2.376.545M246.678 111.759l-.402-.52c-.316-.407-1.003-.404-1.535.008-.533.412-.709 1.077-.395 1.483l.402.521a2.199 2.199 0 1 0 3.824-.645 2.19 2.19 0 0 0-1.894-.847M253.087 107.273l-.4-.519c-.316-.408-1.003-.402-1.537.009s-.71 1.076-.395 1.483l.402.519a2.2 2.2 0 0 0 .343 2.049 2.203 2.203 0 0 0 3.087.396 2.201 2.201 0 0 0-1.5-3.937M259.56 102.804l-.402-.521c-.315-.408-1.002-.403-1.536.008s-.709 1.078-.394 1.485l.401.519a2.2 2.2 0 0 0 .343 2.049 2.2 2.2 0 0 0 3.087.395 2.203 2.203 0 0 0 .395-3.088 2.19 2.19 0 0 0-1.894-.847M265.911 98.458l-.401-.521c-.316-.408-1.003-.402-1.537.008-.533.413-.709 1.077-.394 1.484l.402.519a2.2 2.2 0 1 0 1.93-1.49M272.581 93.723l-.401-.521c-.316-.407-1.003-.404-1.535.008-.534.412-.709 1.078-.394 1.485l.401.518a2.2 2.2 0 0 0 .343 2.05 2.203 2.203 0 0 0 3.087.393 2.198 2.198 0 0 0-1.501-3.933M279.306 88.997l-.401-.521c-.316-.408-1.003-.403-1.536.008-.533.414-.71 1.076-.394 1.484l.401.518a2.2 2.2 0 1 0 1.93-1.489M285.976 84.261l-.401-.521c-.316-.407-1.003-.405-1.535.008-.534.411-.71 1.078-.395 1.486l.402.518a2.2 2.2 0 0 0 .343 2.05 2.202 2.202 0 0 0 3.482-2.693 2.19 2.19 0 0 0-1.896-.848M293.046 79.575l-.402-.519c-.315-.408-1.002-.403-1.536.008-.533.413-.709 1.076-.394 1.483l.402.52a2.202 2.202 0 0 0 3.43 2.444 2.202 2.202 0 0 0-1.5-3.936M299.715 74.841l-.401-.521c-.315-.406-1.003-.404-1.535.01-.534.411-.71 1.077-.394 1.483l.401.521a2.199 2.199 0 0 0 3.43 2.442 2.2 2.2 0 0 0-1.501-3.935" /></g><path fill="#1d1d1b" d="m171.202 103.142.08-.651c.062-.512-.428-.993-1.096-1.074-.669-.083-1.262.266-1.325.775l-.08.653a2.2 2.2 0 1 0 2.421.297M178.912 104.467l.081-.65c.063-.513-.429-.993-1.097-1.075-.669-.084-1.263.265-1.325.776l-.079.652a2.19 2.19 0 0 0-1.198 1.695 2.201 2.201 0 1 0 4.367.537 2.2 2.2 0 0 0-.749-1.935M186.655 105.847l.08-.651c.062-.512-.427-.993-1.097-1.075-.668-.084-1.261.265-1.323.775l-.08.651a2.2 2.2 0 0 0-1.198 1.697 2.203 2.203 0 0 0 1.915 2.454 2.199 2.199 0 0 0 1.703-3.851M194.227 107.23l.081-.652c.062-.512-.429-.991-1.097-1.075-.669-.083-1.262.266-1.325.778l-.08.65a2.199 2.199 0 1 0 3.17 2.234 2.2 2.2 0 0 0-.749-1.935M202.297 108.56l.081-.652c.062-.512-.428-.992-1.096-1.073-.669-.085-1.263.267-1.326.775l-.08.652a2.198 2.198 0 0 0 .718 4.148 2.197 2.197 0 0 0 1.703-3.85M210.4 109.935l.081-.652c.062-.512-.429-.991-1.097-1.074s-1.262.266-1.324.777l-.08.651a2.201 2.201 0 0 0 .718 4.149 2.198 2.198 0 0 0 1.702-3.851M218.473 111.266l.08-.652c.062-.511-.429-.993-1.096-1.073-.669-.084-1.263.265-1.325.776l-.08.651a2.2 2.2 0 0 0-1.198 1.695 2.2 2.2 0 1 0 3.619-1.397M226.792 112.914l.081-.652c.062-.511-.429-.992-1.097-1.074-.67-.082-1.262.267-1.325.777l-.08.65a2.2 2.2 0 1 0 2.421.299M234.863 114.246l.081-.653c.062-.511-.428-.993-1.096-1.074-.67-.083-1.263.265-1.325.777l-.081.65a2.202 2.202 0 1 0 3.171 2.236 2.2 2.2 0 0 0-.75-1.936M163.105 101.792l.081-.652c.062-.512-.428-.992-1.096-1.074-.67-.082-1.263.266-1.325.777l-.081.651a2.198 2.198 0 0 0 .718 4.149 2.2 2.2 0 0 0 1.703-3.851" /><path fill="#1c1c1c" d="m559.319 114.958-.031-.656c-.024-.514-.59-.907-1.262-.875-.673.031-1.198.474-1.176.989l.032.656a2.2 2.2 0 0 0-.896 1.873 2.205 2.205 0 0 0 2.303 2.095 2.196 2.196 0 0 0 2.094-2.301 2.19 2.19 0 0 0-1.064-1.781M567.798 115.181l-.03-.656c-.024-.516-.59-.904-1.264-.874-.673.03-1.197.475-1.174.987l.031.656a2.2 2.2 0 0 0-.895 1.874 2.2 2.2 0 0 0 2.302 2.095 2.199 2.199 0 0 0 1.03-4.082M826.551 93.872h3v64.382h-3z" /><path fill="#ffd203" d="m4.708 93.908 11.139 5.57-11.141 5.57z" /><path fill="#1c1c1c" d="M3.606 93.872h3v64.382h-3zM398.259 93.363l.147-.641c.115-.502-.324-1.031-.98-1.182-.657-.149-1.282.136-1.397.638l-.146.64a2.2 2.2 0 1 0 2.376.545M111.128 152.743l-.271 1.975-14.503-10.148-.001.003c-7.492-6.065-17.613-15.898-29.641-31.603v.04l-.012-.04c-11.997 15.665-22.096 25.483-29.583 31.555l-.003-.019-14.356 10.129-.271-1.977-2.45.34.65 5.265 2.496-.01-.054-.922c6.765-4.697 13.478-9.332 14.294-9.896l1.502 10.817h16.264c8.171-5.854 11.421-23.034 11.507-23.501.886 4.071 4.418 18.432 11.495 23.501h16.264s.979-6.796 1.533-10.794c.449.304 7.514 5.104 14.5 9.955l-.11.83 2.495.009.706-5.173z" /><path fill="#ffd203" d="M65.877 90.022c-22.156 0-40.534 16.157-44.005 37.331q.063-.006.13-.007h26.826c5.312-5.415 11.308-12.234 17.872-20.805l.012.039v-.039c6.564 8.57 12.56 15.39 17.871 20.805h25.298c-3.475-21.17-21.851-37.324-44.004-37.324M110.413 130.808H88.078a142 142 0 0 0 5.033 4.61h17.304a46 46 0 0 0-.002-4.61M102.038 143.571h6.776c.396-1.503.719-3.034.958-4.593H95.98zM107.144 148.705l.111.014q.291-.735.508-1.512l-2.29-.015zM21.504 130.808h23.534a146 146 0 0 1-5.303 4.61H21.501a44 44 0 0 1-.061-2.282q.001-1.17.064-2.328M31.346 143.496l-8.158.075a43 43 0 0 1-1.009-4.593h14.532zM24.949 148.705l-.117.014q-.308-.735-.535-1.512l2.412-.015z" /></symbol><symbol viewBox="0 0 563 560.89" id="facebook"><path fill="currentColor" d="M281.586 4.073C129.666 4.073 6.51 127.229 6.51 279.148c0 151.921 123.156 275.076 275.076 275.076 151.918 0 275.073-123.155 275.073-275.076 0-151.919-123.155-275.075-275.073-275.075m85.726 159.048c-19.571 0-56.836-5.456-58.365 23.199-.126 2.337.077 34.814.041 34.814h56.772l-11.168 58.944h-44.984l.621 191.725h-71.044V280.389h-41.571v-59.565h41.571c0-9.924.044-19.848.001-29.771-.064-15.262-1.271-31.226 4.672-45.645 6.631-16.086 18.407-29.479 34.548-36.19 8.289-3.448 19.648-4.096 28.524-4.939 9.377-.891 60.382-.138 60.382-.138z" /></symbol><symbol viewBox="0 0 563 560.89" id="instagram"><g fill="currentColor"><path d="M425.329 189.612c-9.068-33.116-39.145-57.136-73.416-58.191-23.627-.727-47.294-.14-70.943-.14v-.186c-21.962 0-43.923.076-65.886-.031-12.285-.06-24.187 1.941-35.173 7.382-31.076 15.392-47.216 40.604-47.462 75.326-.312 43.662-.147 87.327.005 130.989.021 6.329.399 12.822 1.827 18.955 8.927 38.302 40.552 63.521 79.991 63.705 44.182.208 88.366.017 132.55.07 12.021.016 23.652-2.07 34.394-7.374 31.118-15.363 47.208-40.611 47.459-75.324.317-43.661.239-87.327-.07-130.989-.058-8.084-1.142-16.4-3.276-24.192M281.471 378.5c-54.277-.077-98.297-44.153-98.174-98.3.123-54.193 44.25-98.244 98.354-98.183 54.173.062 98.251 44.241 98.129 98.358-.125 54.349-44.058 98.201-98.309 98.125m98.59-177.86c-10.527-.079-19.009-8.708-18.909-19.244.098-10.554 8.712-19.016 19.245-18.907a19.046 19.046 0 0 1 18.907 19.239c-.08 10.53-8.689 18.991-19.243 18.912" /><path d="M281.535 209.321c-38.946-.012-70.587 31.487-70.934 70.617-.344 39.014 31.467 71.118 70.618 71.27 39.313.152 71.062-31.281 71.268-70.562.205-39.381-31.557-71.313-70.952-71.325" /><path d="M280.52 4.201C128.6 4.201 5.444 127.356 5.444 279.275c0 151.921 123.156 275.076 275.076 275.076 151.917 0 275.074-123.155 275.074-275.076 0-151.919-123.156-275.074-275.074-275.074m175.126 275.175c0 24.95.847 49.937-.225 74.841-1.208 28.095-13.251 51.8-33.737 71.067-21.494 20.214-47.218 29.556-76.587 29.507-43.02-.071-86.039-.114-129.059.016-26.321.08-50.061-7.44-70.469-24.095-23.788-19.411-37.487-44.577-39.903-75.315-.935-11.893-.551-23.897-.571-35.85-.061-34.832.092-69.665-.06-104.496-.113-26.164 7.229-49.812 23.684-70.22 19.471-24.148 44.795-38.033 75.828-40.441 12.539-.973 25.194-.553 37.799-.575 34.182-.062 68.365.081 102.545-.055 26.017-.104 49.564 7.173 69.891 23.504 24.409 19.611 38.976 45.107 40.573 76.494 1.282 25.145.259 50.407.259 75.616q.017.002.032.002" /></g></symbol><symbol viewBox="0 0 24 24" id="spinner"><style>@keyframes spinner_qtyZ{0%{r:0}25%{r:3px;cx:4px}50%{r:3px;cx:12px}75%{r:3px;cx:20px}to{r:0;cx:20px}}#spinner .spinner_nOfF{animation:spinner_qtyZ 2s cubic-bezier(.36,.6,.31,1) infinite;fill:currentColor}</style><circle cx="4" cy="12" r="3" class="spinner_nOfF" /><circle cx="4" cy="12" r="3" class="spinner_nOfF" style="animation-delay:-.5s" /><circle cx="4" cy="12" r="3" class="spinner_nOfF" style="animation-delay:-1s" /><circle cx="4" cy="12" r="3" class="spinner_nOfF" style="animation-delay:-1.5s" /></symbol><symbol viewBox="0 0 188 187.39" id="telephone"><path fill="currentColor" d="M137.671 183.844a52 52 0 0 1-3.277-.105q-.462.005-.921.005c-12.335 0-23.91-2.694-35.384-8.234-36.972-17.85-64.929-45.59-83.091-82.449C5.969 74.737 3.551 57.58 7.607 40.61c3.108-13.014 11.109-24.088 23.778-32.92 4.22-2.943 8.728-4.436 13.396-4.436 6.223 0 12.345 2.706 17.703 7.824 7.708 7.356 14.62 14.281 21.129 21.168 6.249 6.608 9.279 13.381 9.005 20.129-.264 6.511-3.569 12.664-9.826 18.292-5.24 4.714-5.296 6.581-.375 12.48 9.195 11.023 18.269 19.748 27.742 26.673 1.911 1.399 2.899 1.609 3.32 1.609.75 0 1.948-.747 3.372-2.099 6.503-6.183 13.688-11.906 22.142-11.906 8.778 0 16.232 6.301 22.98 13.11 1.899 1.917 3.889 3.853 5.813 5.725 3.849 3.742 7.828 7.613 11.532 11.756 9.091 10.168 9.229 23.564.349 34.126-12.11 14.401-26.241 21.703-41.996 21.703m-2.933-12.726.261.019c13.128.907 24.564-4.69 35.014-17.115 4.814-5.728 4.779-12.143-.099-17.6-3.41-3.813-7.06-7.362-10.924-11.121-1.964-1.911-3.998-3.888-5.978-5.887-6.425-6.483-10.749-9.375-14.019-9.375-3.167 0-7.316 2.601-13.452 8.434-3.944 3.749-7.89 5.57-12.062 5.57-3.531 0-7.053-1.322-10.77-4.042-10.312-7.539-20.119-16.952-29.98-28.775-5.825-6.983-11.995-17.686 1.626-29.941 3.634-3.268 5.537-6.438 5.658-9.422.13-3.222-1.743-6.907-5.568-10.952-6.361-6.729-13.124-13.503-20.674-20.71-2.069-1.976-5.309-4.332-8.991-4.332-2.038 0-4.118.73-6.181 2.168-10.197 7.109-16.321 15.451-18.723 25.504-3.344 13.993-1.238 28.365 6.438 43.943 16.888 34.272 42.882 60.067 77.259 76.664 9.726 4.696 19.506 6.979 29.899 6.979q.5.001 1.005-.007z" /></symbol></defs></svg>