<?xml version="1.0" encoding="UTF-8"?>
<svg xmlns="http://www.w3.org/2000/svg" height="173.452" viewBox="0 0 221.938 173.452" width="221.938">
  <path clip-rule="evenodd" d="m101.701.04c2.146.105 4.144.432 6.478 1.151 3.794 1.169 7.594 2.379 11.18 4.102 5.627 2.702 10.871 6.335 15.926 10.044 8.726 6.402 18.357 9.275 29.097 8.701.606-.033 1.216-.013 1.824-.011 26.595.109 39.227 22.299 25.417 45.285-4.143 6.897-9.543 13.106-14.774 19.282-9.23 10.886-13.971 23.128-12.798 37.517.316 3.836.393 7.707.343 11.559-.328 24.221-21.217 40.57-44.716 34.507-6.523-1.687-12.579-5.216-18.811-7.995-2.212-.993-4.351-2.189-6.445-3.421-14.36-8.405-29.308-14.007-46.423-14.553-16.961-.539-28.121-11.255-31.946-27.558-4.139-17.648 3.765-35.289 19.86-43.673 7.002-3.652 14.417-6.528 21.379-10.249 14.168-7.573 18.26-16.086 15.94-31.974-.979-6.705.074-13.754 3.777-19.467 3.521-5.433 8.626-10.646 15.024-12.408 1.992-.549 4.055-.774 6.116-.843 1.269-.045 2.431-.051 3.552.004z" fill="#ff8671" fill-rule="evenodd"></path>
  <path d="m36.229 99.564c-2.526 0-4.514-.269-5.964-.807-1.451-.538-2.479-1.374-3.087-2.509-.608-1.134-.912-2.602-.912-4.402 0-.725.058-1.707.175-2.947.187-2.245.316-5.824.386-10.735-.047-.678-.433-1.193-1.158-1.543-.726-.351-1.544-.526-2.456-.526s-1.736.175-2.473.526-1.129.865-1.175 1.543c.07 4.912.198 8.49.386 10.735.117 1.24.175 2.258.175 3.053 0 1.777-.304 3.227-.912 4.35s-1.631 1.947-3.069 2.474c-1.438.526-3.421.789-5.947.789-2.666 0-4.736-.28-6.209-.842-1.474-.562-2.503-1.374-3.087-2.438-.585-1.064-.877-2.333-.877-3.807 0-1.005.093-2.099.281-3.279.187-1.182.421-2.439.702-3.772l.877-4.42c.584-3.04 1.222-6.075 1.912-9.104.689-3.029 1.526-5.899 2.508-8.613.982-2.713 2.181-5.122 3.596-7.227s3.146-3.765 5.192-4.981 4.496-1.825 7.35-1.825h1.544c2.853 0 5.297.614 7.332 1.842s3.766 2.895 5.192 5 2.631 4.514 3.613 7.227 1.818 5.584 2.509 8.613c.689 3.029 1.327 6.075 1.912 9.139.281 1.473.567 2.9.86 4.28.292 1.38.532 2.661.719 3.842s.28 2.274.28 3.279c0 1.474-.292 2.742-.877 3.807-.585 1.064-1.614 1.877-3.087 2.438-1.474.56-3.544.84-6.211.84zm-12.945-28.873c.771 0 1.485-.181 2.14-.543.654-.363.982-.918.982-1.667 0-2.222-.17-4.07-.508-5.543-.339-1.474-.754-2.573-1.246-3.298-.491-.725-.971-1.088-1.438-1.088-.444 0-.918.375-1.421 1.123s-.924 1.859-1.263 3.333-.509 3.31-.509 5.508c0 .702.345 1.24 1.035 1.614s1.433.561 2.228.561z"></path>
  <path d="m79.1 99.564c-2.035 0-3.941-.685-5.718-2.052-1.778-1.369-3.31-3.234-4.596-5.596-.141-.188-.293-.281-.456-.281-.141 0-.263.047-.369.141-.105.094-.158.223-.158.386 0 .094.023.198.07.315.514 1.17.771 2.211.771 3.123 0 2.525-1.848 3.847-5.543 3.964h-6.806c-1.941 0-3.327-.556-4.157-1.666s-1.315-2.777-1.456-4.999c-.468-6.315-.702-12.209-.702-17.682 0-7.368.374-13.706 1.123-19.015.351-2.338 1.082-4.081 2.192-5.227 1.111-1.146 2.509-1.719 4.192-1.719h6.456c1.075 0 1.888.263 2.438.79.549.526.917 1.21 1.105 2.052.187.842.281 1.743.281 2.702-.047 2.409-.14 4.444-.281 6.104-.07 1.146-.128 2.339-.175 3.579 0 .398.082.608.246.631.164 0 .421-.175.772-.526 2.035-2.011 4.11-3.484 6.227-4.42 2.116-.935 4.18-1.403 6.192-1.403 2.947.07 5.415 1.053 7.402 2.947s3.485 4.362 4.491 7.402c1.005 3.041 1.509 6.233 1.509 9.578 0 2.596-.304 5.134-.912 7.613-.609 2.479-1.539 4.713-2.789 6.701-1.251 1.988-2.819 3.579-4.701 4.771-1.882 1.191-4.099 1.787-6.648 1.787zm-5.437-16.628c1.075 0 1.97-.356 2.684-1.07.713-.713 1.251-1.625 1.614-2.736.362-1.111.544-2.274.544-3.491 0-1.193-.175-2.338-.526-3.438-.351-1.099-.889-1.994-1.614-2.684-.725-.689-1.626-1.035-2.701-1.035-1.497 0-2.749.357-3.754 1.07-1.006.714-1.766 1.631-2.28 2.754-.515 1.123-.772 2.304-.772 3.543 0 1.17.251 2.298.754 3.385.502 1.088 1.257 1.977 2.263 2.667 1.004.689 2.267 1.035 3.788 1.035z"></path>
  <path d="m119.13 99.529h-1.825c-3.508 0-6.531-.556-9.068-1.666-2.538-1.11-4.625-2.649-6.262-4.614-1.637-1.964-2.848-4.238-3.631-6.823s-1.175-5.35-1.175-8.297c0-7.04 1.508-12.618 4.525-16.734 3.368-4.654 8.561-6.981 15.577-6.981h1.999c7.04 0 12.244 2.328 15.612 6.981 2.993 4.117 4.49 9.695 4.49 16.734 0 6.385-1.579 11.46-4.736 15.226-3.462 4.117-8.63 6.174-15.506 6.174zm-.842-14.138c.772 0 1.538-.368 2.298-1.105s1.397-1.83 1.912-3.28.772-3.274.772-5.473v-1.649c0-2.268-.24-4.151-.72-5.648-.479-1.497-1.104-2.625-1.877-3.386-.771-.76-1.567-1.14-2.386-1.14-.842 0-1.643.375-2.402 1.123-.761.749-1.381 1.883-1.859 3.403-.48 1.521-.72 3.415-.72 5.683v1.649c0 2.175.257 3.988.771 5.438s1.152 2.543 1.912 3.28 1.527 1.105 2.299 1.105z"></path>
  <path d="m171.858 99.635c-1.075 0-1.889-.216-2.438-.649-.55-.433-.919-1.022-1.105-1.771-.188-.748-.28-1.59-.28-2.525v-.808c0-.397-.094-.597-.281-.597-.28 0-.55.188-.807.562-.936 1.684-1.9 2.941-2.895 3.771-.994.831-2.064 1.374-3.21 1.632-1.146.257-2.421.386-3.824.386-2.854-.07-5.216-1.093-7.086-3.069-1.872-1.977-3.339-4.537-4.403-7.684-1.064-3.146-1.812-6.531-2.245-10.156-.434-3.625-.649-7.063-.649-10.314 0-7.157.62-11.378 1.859-12.665.538-.538 1.216-.895 2.035-1.07.818-.175 1.719-.263 2.701-.263.584 0 1.204.012 1.859.035.654.023 2.047.035 4.175.035.982 0 1.93.082 2.842.246 2.035.375 3.099 1.731 3.192 4.069 0 3.462-.059 6.701-.175 9.718-.118 3.228-.176 6.327-.176 9.297 0 3.953.198 6.97.597 9.051.163.959.449 1.708.859 2.246.409.537 1.011.807 1.807.807 1.029 0 1.83-.497 2.403-1.491.572-.994.976-2.31 1.21-3.947.233-1.637.351-3.426.351-5.368 0-3.485-.223-6.934-.666-10.35-.444-3.414-.807-5.776-1.088-7.086-.141-.702-.21-1.38-.21-2.035 0-.959.175-1.83.525-2.614.352-.783.924-1.403 1.72-1.859.795-.456 1.859-.684 3.192-.684l6.911-.035c1.871 0 3.315.819 4.333 2.456 1.018 1.638 1.725 4.041 2.122 7.209.397 3.17.597 7.046.597 11.63-.094 7.625-.409 13.227-.947 16.805-.702 4.654-2.795 6.993-6.28 7.017z"></path>
  <path d="m207.539 99.564c-5.567 0-9.566-2.163-11.999-6.49-2.058-3.648-3.087-8.572-3.087-14.77 0-4.092.351-8.15 1.053-12.173h-4.491c-.748 0-1.122-.362-1.122-1.088v-1.228c0-.702.351-1.053 1.052-1.053h6.351c.865 0 1.789-.076 2.771-.228s1.906-.461 2.771-.93c.865-.467 1.59-1.146 2.175-2.035.562-.959.842-1.754.842-2.386 0-.654-.205-1.146-.613-1.473-.41-.328-.859-.491-1.351-.491-.445 0-.854.146-1.229.438s-.561.719-.561 1.28c0 .21.028.433.087.667s.088.456.088.667c0 .982-.509 1.749-1.526 2.298-1.017.55-2.169.824-3.455.824-.982 0-1.936-.175-2.859-.526-.924-.351-1.684-.912-2.28-1.684-.597-.772-.895-1.766-.895-2.982 0-1.614.514-2.982 1.543-4.104s2.351-1.982 3.965-2.579c1.613-.596 3.298-.895 5.052-.895 1.707 0 3.339.304 4.895.912 1.555.608 2.829 1.55 3.823 2.824.994 1.275 1.491 2.918 1.491 4.929 0 1.193-.175 2.573-.526 4.14l-.245 1.333h8.7c.725 0 1.088.328 1.088.982v1.298c0 .726-.328 1.088-.982 1.088h-7.578c-.818 0-1.321.14-1.509.421s-.292.76-.315 1.438c-.351 2.456-.526 4.666-.526 6.63 0 1.451.135 2.754.403 3.912s.72 2.064 1.351 2.719c.632.655 1.509.982 2.632.982 1.146 0 2.561-.386 4.245-1.158.748-.328 1.391-.491 1.93-.491.981 0 1.701.444 2.157 1.333s.748 1.988.877 3.298c.128 1.31.193 2.608.193 3.895-.024 3.672-1.24 6.332-3.649 7.98-2.412 1.652-5.99 2.476-10.737 2.476z"></path>
  <path d="m137.159 159.564h-3.333c-2.946 0-5.484-.526-7.612-1.579-2.129-1.052-3.912-2.496-5.351-4.332s-2.578-3.947-3.42-6.333c-.843-2.386-1.438-4.929-1.79-7.63-.351-2.701-.525-5.421-.525-8.157 0-5.847.607-11.53 1.824-17.05.467-1.895 1.59-3.239 3.367-4.034s3.848-1.193 6.21-1.193h1.333c.959 0 1.889.07 2.789.211.9.14 1.644.479 2.228 1.018.585.538.878 1.403.878 2.596 0 .562-.083 1.205-.246 1.93-.749 3.625-1.321 6.561-1.719 8.806-.538 3.087-.807 6.034-.807 8.841 0 1.591.134 3.029.403 4.315s.73 2.304 1.386 3.052c.654.749 1.555 1.123 2.701 1.123s2.052-.38 2.719-1.141c.667-.76 1.134-1.783 1.403-3.069s.403-2.725.403-4.315c0-2.783-.269-5.73-.807-8.841-.398-2.245-.971-5.169-1.719-8.771-.164-.725-.246-1.368-.246-1.93 0-1.192.292-2.058.877-2.596s1.327-.878 2.228-1.018c.9-.141 1.83-.211 2.789-.211h1.334c2.361 0 4.432.398 6.209 1.193s2.9 2.14 3.368 4.034c1.216 5.543 1.824 11.227 1.824 17.05 0 9.847-1.918 17.214-5.754 22.103-3.062 3.952-7.378 5.928-12.944 5.928z"></path>
  <path d="m177.468 159.705c-3.017 0-5.858-.497-8.524-1.491-2.667-.994-4.824-2.427-6.473-4.298s-2.497-4.116-2.544-6.735c0-1.1.088-2.339.264-3.719.175-1.38.443-2.707.807-3.982.362-1.274.83-2.338 1.403-3.192.572-.854 1.269-1.28 2.087-1.28.468 0 .971.175 1.509.526 5.894 3.719 9.999 5.578 12.314 5.578.888 0 1.333-.258 1.333-.772 0-.467-.24-.965-.72-1.49-.479-.526-1.146-1-1.999-1.421-.854-.421-1.854-.878-3-1.368-1.474-.608-3.029-1.304-4.666-2.088-1.638-.783-3.181-1.701-4.631-2.754-3.345-2.408-5.017-5.228-5.017-8.455 0-2.292.531-4.28 1.596-5.964s2.491-3.075 4.28-4.175 3.812-1.924 6.069-2.474c2.257-.549 4.566-.824 6.929-.824 2.386 0 4.719.275 6.999.824 2.28.55 4.333 1.351 6.157 2.403s3.28 2.362 4.367 3.93c1.088 1.566 1.632 3.38 1.632 5.438 0 1.613-.386 2.953-1.158 4.017-.771 1.064-1.76 1.849-2.964 2.351-1.205.504-2.462.755-3.771.755-1.754 0-3.362-.45-4.824-1.351s-2.333-2.216-2.613-3.947l-.035-.771c0-.655.11-1.17.333-1.544s.468-.689.737-.947c.269-.257.491-.526.666-.807.176-.281.275-.644.299-1.088 0-.818-.193-1.433-.579-1.842s-.872-.614-1.456-.614c-1.45 0-2.561.48-3.333 1.438-.771.96-1.157 2.117-1.157 3.474s.421 2.748 1.263 4.175 2.151 2.644 3.93 3.648l2.736 1.474c2.222 1.1 4.232 2.257 6.034 3.473 1.801 1.217 3.245 2.731 4.332 4.544 1.088 1.812 1.632 4.216 1.632 7.209 0 2.409-.573 4.503-1.719 6.28s-2.685 3.245-4.614 4.402c-1.929 1.158-4.099 2.023-6.508 2.597s-4.876.857-7.403.857z"></path>
</svg>
