<?xml version="1.0" encoding="UTF-8"?>
<svg xmlns="http://www.w3.org/2000/svg" height="168.162" viewBox="0 0 146 168.162" width="146">
  <path d="m42.477 92.295h61.214l30.267 73.783-121.337-.874z" fill="#ffd100"></path>
  <path d="m41.25 50.833c-2.234-1.009-4.485-3.349-7.5-4.243-2.739-.812-4.812-2.254-6.944-4.021-1.353-1.121-4.553-4.762-6.306-4.937-2.983-.298-2.576 5.478-2.5 7.499.295 7.791 9.058 10.024 14.933 13.445 8.485 4.94 19.708 6.062 29.317 7.067 21.113 2.207 41.781-.757 60.188-11.367 4.855-2.799 7.599-9.8 5.751-15.449-1.337-4.088-5.115-.504-7.678 1.188-4.618 3.049-8.929 6.109-13.997 8.311-10.123 4.396-21.837 6.531-32.824 6.507-7.277-.017-14.541.157-21.757-.819-2.615-.354-8.535-.621-9.933-3.181" fill="#ffd100"></path>
  <path d="m136.375 167.205c.048-.062.099-.122.141-.188.044-.066.078-.139.114-.209.037-.073.077-.145.107-.221s.05-.154.072-.233c.021-.076.047-.15.062-.229.018-.096.022-.193.029-.292.004-.056.017-.108.017-.165 0-.011-.003-.021-.003-.03-.001-.098-.017-.195-.029-.294-.01-.068-.013-.14-.027-.206-.015-.067-.041-.134-.062-.2-.029-.095-.055-.189-.095-.277-.004-.01-.005-.021-.01-.03l-33-72.334c-.406-.891-1.295-1.462-2.274-1.462h-1-54.666-1c-.979 0-1.868.571-2.274 1.462l-33 72.334c-.005.01-.006.021-.01.03-.039.088-.065.183-.095.276-.021.067-.047.133-.062.201-.015.067-.018.138-.027.206-.013.099-.028.196-.029.294 0 .01-.003.02-.003.03 0 .057.013.109.017.165.007.099.012.196.029.292.015.079.04.153.062.229.022.078.042.157.072.233s.069.147.107.22c.036.071.07.143.114.21.042.066.093.126.141.188.052.065.101.131.158.191.056.058.119.108.18.16.062.053.119.106.186.153.079.055.164.099.248.145.051.028.096.062.148.087.01.004.02.006.029.01.123.055.254.094.387.128.037.01.072.026.108.034.104.021.213.026.321.034.063.005.127.021.19.021.002 0 .005-.001.007-.001h122.656c.002 0 .005.001.007.001.063 0 .127-.016.19-.021.108-.008.217-.013.321-.034.036-.008.071-.024.108-.033.133-.035.264-.074.387-.129.01-.005.02-.006.029-.01.053-.024.097-.059.147-.086.085-.046.17-.09.249-.146.066-.047.124-.101.186-.153.061-.052.124-.103.18-.16.059-.06.108-.125.16-.191zm-90.017-71.372h53.452l30.719 67.334h-114.889z"></path>
  <circle cx="12" cy="10.333" fill="#ffd100" r="5.5"></circle>
  <path d="m143.5 31.167c1.381 0 2.5-1.119 2.5-2.5v-8.667c0-1.381-1.119-2.5-2.5-2.5h-2.073c1.795-1.86 2.906-4.384 2.906-7.167 0-5.698-4.636-10.333-10.333-10.333s-10.333 4.635-10.333 10.333c0 2.783 1.111 5.307 2.906 7.167h-2.073c-1.381 0-2.5 1.119-2.5 2.5v8.667c0 1.381 1.119 2.5 2.5 2.5h1.241c-.94 1.514-4.256 6.31-11.099 11.063-7.621 5.293-21.3 11.604-43.184 11.604-21.795 0-34.482-6.074-41.287-11.17-7.25-5.429-9.541-10.93-9.594-11.062-.061-.155-.137-.3-.223-.435h1.146c1.381 0 2.5-1.119 2.5-2.5v-8.667c0-1.381-1.119-2.5-2.5-2.5h-2.073c1.795-1.86 2.906-4.384 2.906-7.167 0-5.698-4.636-10.333-10.333-10.333s-10.333 4.635-10.333 10.333c0 2.783 1.111 5.307 2.906 7.167h-2.073c-1.381 0-2.5 1.119-2.5 2.5v8.667c0 1.381 1.119 2.5 2.5 2.5h1.667v74.667h-1.667c-1.381 0-2.5 1.119-2.5 2.5v11.334c0 1.381 1.119 2.5 2.5 2.5h19c1.381 0 2.5-1.119 2.5-2.5v-11.334c0-1.381-1.119-2.5-2.5-2.5h-1.666v-52.302c8.983 6.677 24.445 14.801 50.897 14.801 28.528 0 45.74-8.546 55.436-15.644v53.144h-1.667c-1.381 0-2.5 1.119-2.5 2.5v11.334c0 1.381 1.119 2.5 2.5 2.5h19c1.381 0 2.5-1.119 2.5-2.5v-11.334c0-1.381-1.119-2.5-2.5-2.5h-1.666v-74.666zm-9.5-26.334c3.038 0 5.5 2.463 5.5 5.5s-2.462 5.5-5.5 5.5-5.5-2.463-5.5-5.5 2.462-5.5 5.5-5.5zm-122 0c3.038 0 5.5 2.463 5.5 5.5s-2.462 5.5-5.5 5.5-5.5-2.463-5.5-5.5 2.462-5.5 5.5-5.5zm7 112.334h-14v-6.334h14zm-9.833-11.334v-74.666h5.667v74.667h-5.667zm9.833-79.666h-14v-3.667h14zm107.167 20.194c-1.593 1.559-3.377 3.406-6.47 5.299-8.661 5.301-24.16 11.673-48.966 11.673-28.567 0-43.449-9.587-50.897-16.277v-7.338c6.078 7.538 20.48 19.115 51.625 19.115 31.8 0 47.835-12.373 54.708-20.007zm14.833 70.806h-14v-6.334h14zm-9.833-11.334v-74.666h5.667v74.667h-5.667zm9.833-79.666h-14v-3.667h14z"></path>
  <circle cx="134" cy="10.333" fill="#ffd100" r="5.5"></circle>
</svg>
