<svg xmlns="http://www.w3.org/2000/svg" viewBox="0 0 139.7 165.4"><path d="m28.2 25.3c-7-.2-17 2.3-21.3 8.2-5.5 7.4-4.1 17.1-4.1 25.9 0 12.5.5 24.9.5 37.4 0 5.5-1 10.8-.8 16.2.3 6 1 11.9 1 18 0 6.6-1 16.4 3.4 21.8 3.6 4.5 9.5 8.4 15.3 8.5 3.3 0 6.4.8 9.6 1 6.6.4 13.3-.5 19.9-.5 7.7 0 15.5.3 23.3.3 7.7 0 15 .8 22.7.2 3.6-.3 10.8 1.2 12.6-1.5 1.6-2.3 1.1-7 .5-9.5-1.7-7.2-.4-14.9 7.9-17.3 3.9-1.1 7.5.4 11.3.6 5 .2 6.6-.2 6.9-5.4.6-10.9-1.2-21.9-.3-32.7.5-6-.2-12.1 0-18.1.1-4.3 0-8.6-.5-12.8-1-7.8 1-15.5-.5-23.4-1-5.5-5.6-12.8-11-15.1-4.9-2.2-11.4-1.8-16.7-2.1-8.2-.5-16-1.1-24.3-.7-11.1.4-22.2.5-33.3.5-5.5 0-10.9.5-16.4.5-3.4 0-6.3-.3-8.8 2.3" fill="#fff"></path><path clip-rule="evenodd" d="m29.3 23.4v-12.6c0-4.5 3.7-8.2 8.2-8.2 4.5 0 8.2 3.7 8.2 8.2v25.7c0 4.5-3.7 8.2-8.2 8.2-4.5 0-8.2-3.7-8.2-8.2z" fill="#ffd100" fill-rule="evenodd"></path><path clip-rule="evenodd" d="m108.3 36.5c0 4.5-3.7 8.2-8.2 8.2-4.5 0-8.2-3.7-8.2-8.2v-25.7c0-4.5 3.7-8.2 8.2-8.2 4.5 0 8.2 3.7 8.2 8.2z" fill="#ffd100" fill-rule="evenodd"></path><path d="m48.5 105.9h-29.7v-29.7h29.7zm-24.5-5.1h19.4v-19.4h-19.4z"></path><path d="m84.7 105.9h-29.7v-29.7h29.7zm-24.6-5.1h19.4v-19.4h-19.4z"></path><path d="m48.5 147.2h-29.7v-29.7h29.7zm-24.5-5.1h19.4v-19.4h-19.4z"></path><path d="m71.2 115.8 4.4 9.2 10 1.5-7.2 7.1 1.7 10.1-8.9-4.7-8.9 4.7 1.7-10.1-7.2-7.1 10-1.5z" fill="#ffd100"></path><path d="m80.1 145.8c-.3 0-.7-.1-1-.2l-7.9-4.2-7.9 4.2c-.7.4-1.5.3-2.2-.1-.6-.5-1-1.2-.8-2l1.5-9.1-6.4-6.4c-.6-.5-.7-1.4-.5-2.1s.9-1.3 1.6-1.4l8.9-1.3 4-8.2c.3-.7 1.1-1.2 1.8-1.2.8 0 1.5.4 1.8 1.2l4 8.2 8.9 1.3c.8.1 1.4.7 1.7 1.4.2.7 0 1.6-.5 2.1l-6.4 6.4 1.5 9.1c.1.8-.2 1.6-.8 2-.5.2-.9.3-1.3.3zm-18.9-17.9 4.3 4.3c.5.5.7 1.1.6 1.8l-1 6 5.2-2.8c.6-.3 1.3-.3 1.9 0l5.2 2.8-1-6c-.1-.7.1-1.3.6-1.8l4.3-4.3-5.9-.9c-.7-.1-1.3-.5-1.5-1.1l-2.6-5.4-2.6 5.4c-.3.6-.9 1-1.5 1.1z"></path><path d="m134.7 134.8h-14.7s-10.6-.3-10.6 11.6v14.4" fill="#ffd100"></path><path d="m113.1 22.3h-2.2v-11.5c0-5.9-4.8-10.8-10.8-10.8s-10.8 4.8-10.8 10.8v11.5h-41v-11.5c0-6-4.9-10.8-10.8-10.8s-10.8 4.8-10.8 10.8v11.6c-3.8-.2-13.4.1-20 6-4.4 3.8-6.6 9.3-6.7 16.3v98c0 .2 1 22.7 25.2 22.7h85.3l29.2-30.3v-90c0-.3-.3-22.4-26.6-22.8zm-18.6-11.5c0-3.1 2.5-5.6 5.6-5.6s5.6 2.5 5.6 5.6v25.7c0 3.1-2.5 5.6-5.6 5.6s-5.6-2.5-5.6-5.6zm-62.7 0c0-3.1 2.5-5.6 5.6-5.6s5.6 2.5 5.6 5.6v25.7c0 3.1-2.5 5.6-5.6 5.6s-5.6-2.5-5.6-5.6zm-21.7 21.4c5.4-4.8 13.8-4.8 16.6-4.7v8.9c0 5.9 4.8 10.8 10.8 10.8s10.8-4.8 10.8-10.8v-9h41.1v9c0 5.9 4.8 10.8 10.8 10.8s10.8-4.8 10.8-10.8v-9h2.2c21 .3 21.4 16.9 21.4 17.6v12.2h-129.5v-12.5c.1-5.4 1.7-9.6 5-12.5zm-5 110.4v-80.2h129.4v69.8h-14.5c-.2 0-5.5-.1-9.3 3.6-2.6 2.5-3.9 6.1-3.9 10.6v13.9h-81.6c-19.1 0-20-17-20.1-17.7zm125.3-5.3-18.5 19.1v-10.1c0-3 .8-5.4 2.3-6.9 2.3-2.2 5.6-2.2 5.7-2.2z"></path><path d="m120.7 105.9h-29.8v-29.7h29.7zm-24.6-5.1h19.4v-19.4h-19.4z"></path></svg>