<svg xmlns="http://www.w3.org/2000/svg" viewBox="0 0 159.7 164.2"><path d="m133.4 46.3c2.5-1.1 2.5-6.7 1.3-8.8-1.1-2.1-3.6-5-5.7-6.2-4.1-2.4-11.5-1-15.9-1-8.8 0-17.6-.5-26.4-.5-16 0-32 1.1-47.9 1.8-3.2.1-7.4-.5-10.5.4-3.9 1.2-4 5.1-4 8.5 0 5.4.9 10.2.3 15.6-.6 5 .6 9.2 1 14.1 1 10.6-.1 21.3.3 31.9.6 13.9.2 27.9.2 41.8v11.1c0 4.7.1 6.1 5.1 6.2 9.1.1 17.8 0 26.7.5 5.1.3 9.5 1 14.7.3 6.2-.8 12.8-.6 19.1-.9 9.2-.4 18.3.1 27.5-.3 3.6-.2 7.9 1.3 11.4 0 2.4-.9 2.3-3.5 2.4-6.2.2-4.3-.3-8.6-.3-12.9 0-4.8.8-9.4.8-14.1.1-10.9.3-21.7-.5-32.5-.7-9.3-.1-18.6-.5-27.9-.2-4.3-.4-8.5.1-12.8.2-2 2-7.5.7-8.8" fill="#fff"></path><path d="m107.4 27.6c2.6-7.6-8.2-16.7-13.8-19.9-4.5-2.5-9.1-4.3-14.3-4.8-3.4-.3-6.5-.7-9.7.6-1.7.7-6.5 2.3-6.6 4.1-6 .7-6.9 5-9.1 9.4-1.1 2.2-2.5 4.2-2.9 6.6-.3 2.4-.4 4.8 1.6 5.9 2.3 1.3 8 .8 10.6.4.1-2 1.6-7.6 2.7-9.1 1.3-1.6 4.5-3.6 6.3-4.4 4.4-2 11.3-3.7 15.4-.2 3.6 3.1 5 8.3 8.8 11.1 2.1 1.5 11.8 4.6 11.1-.5" fill="#ffd100"></path><path d="m50.5 106-1.4.4c-4.6 2.2-8.6 6.2-8.6 13v32.3l77.8-.2v-32.3s-.2-9.2-11.4-13.6l-10.6-2.2c-.1 0-.1 0-.2 0h-33s-.7 0-1.9.1" fill="#ffd100"></path><path d="m63.1 106h32.8l.3.1c0-.1 0-.3 0-.4 0-.2-.2-1.5 0-.3-.1-.9-.3-1.8-.3-2.7-.1-.7-.1-1.3-.1-2h-32.7c-.1 0-.9 0-2.2.1l.3 5.3c1.2-.1 1.8-.1 1.9-.1z"></path><path d="m27.8 155.1c-13.9 0-25.2-12.1-25.2-27v-8.4c0-14.9 11.3-27 25.2-27" fill="#ffd100"></path><path d="m131.8 155.1c13.9 0 25.2-12.1 25.2-27v-8.4c0-14.9-11.3-27-25.2-27" fill="#ffd100"></path><g fill="#fff"><path d="m50.6 91.8h8.2v33.6h-8.2z"></path><path d="m49.3 128.5h12.8v6.5h-12.8z"></path><path d="m51.7 137.7h7.3v6.5h-7.3z"></path><path d="m97.4 91.8h8.2v33.6h-8.2z"></path><path d="m96.1 128.5h12.8v6.5h-12.8z"></path><path d="m98.5 137.7h7.3v6.5h-7.3z"></path></g><path d="m135.9 90.4v-44.8h-.2c.5-2.3.6-3.9.7-4.3.6-4.5-.2-8-2.3-10.4-2.6-2.9-6.2-3-6.5-2.9h-17.8c-1.5-15.7-14.7-28-30.7-28s-29.1 12.3-30.5 28h-17.9c-.4 0-3.7 0-6.2 2.8-2.2 2.4-2.9 5.9-2.4 10.5 0 .6.3 3.4 1.3 7.4v41.8c-13.2 2.2-23.4 14.5-23.4 29.2v8.4c0 14.8 10.2 27 23.4 29.3v6.8h112.4v-6.7c13.4-2.1 23.8-14.4 23.8-29.3v-8.4c.1-14.9-10.3-27.3-23.7-29.4zm-56.8-85.1c13.1 0 23.9 9.9 25.2 22.6h-5.7c-1.3-9.5-9.5-16.8-19.3-16.8s-17.8 7.4-19.2 16.9h-6.2c1.4-12.8 12.2-22.7 25.2-22.7zm-3.7 22.7h-9.9c1.3-6.5 7-11.4 13.9-11.4s12.6 4.9 13.9 11.4zm-47 6.4c.9-1.1 2.2-1.1 2.3-1.1h49.4 47.5s1.5 0 2.5 1.2c1.1 1.2 1.4 3.3 1 6.2v.2c-.1 1.8-3.4 43.6-53.3 43.9-35.3-.3-45.9-23.8-49-36.3v-1.1h-.3c-.8-3.6-1-6.1-1-6.5v-.2c-.5-3-.1-5.1.9-6.3zm28.5 52.4v38.7h-3.5v-40c1.1.5 2.3.9 3.5 1.3zm-3.7 51.3h4.3v4.1h-4.3zm-3.4-4.2v-4.1h12.4v4.1zm-1.7-8.4h-2.6v12.6h3.5v8.3h12.8v-8.3h4.7v-12.6h-4.2v-37.2c4.4 1 9.3 1.6 14.8 1.7h.3.5.4.3c6.1-.1 11.5-.7 16.3-1.9v37.4h-2.6v12.6h3.5v8.3h12.8v-8.3h4.7v-12.6h-4.3v-15.9c6.2 3.8 6.6 9.3 6.6 9.5v29.6l-72.4.3v-29.6c0-4 1.6-7.1 4.9-9.3 0-.1 0 15.4 0 15.4zm60.9 4.3v4.1h-12.5v-4.1zm-9 8.3h4.3v4.1h-4.3zm3.7-12.6h-3.5v-38.8c1.2-.4 2.4-.8 3.5-1.3zm-98.4 2.6v-8.4c0-11.8 7.8-21.6 18.1-23.9v56.2c-10.3-2.2-18.1-12.1-18.1-23.9zm23.5 30.8v-96.1c3.8 7.3 9.9 14.8 19.3 20.2v20.9l-.1.1c-6.6 3.2-10.1 8.5-10.1 15.4v35l83.1-.2v-35c0-.4-.4-10.3-11.9-15.5v-20.8c11-5.9 17.6-14.5 21.5-22.3v98.3zm125.6-30.8c0 11.9-8 21.9-18.5 23.9v-56.2c10.5 2.1 18.5 12 18.5 23.9z"></path><path d="m77.6 78.8h.2.2c41.8-.1 46.1-30.1 46.4-32.5.5-3-.1-5.5-1.6-7.2-2.2-2.6-5.5-2.6-5.8-2.6h-40.7-35.5c-.4 0-3.5 0-5.6 2.5-1.6 1.8-2.1 4.3-1.7 7.3.3 2.4 4.3 32.4 44.1 32.5zm-38.4-36.4c.5-.6 1.6-.7 1.6-.7h35.6 2.9 37.7s1.2 0 1.8.8c.6.7.5 2 .4 3v.2c-.1 1.1-2.7 27.8-41.3 27.8s0 0 0 0c-36.4 0-38.9-26.6-39-27.8v-.2c-.3-1.4-.2-2.5.3-3.1z"></path></svg>