<svg xmlns="http://www.w3.org/2000/svg" viewBox="0 0 136.8 166.4"><path d="m114.5 50c-2.8 1.4-9.3.7-12.7.9-4.9.3-9.3 1.6-14.1 2.4-3.1.6-9.8.4-12.1 2.7-2 2-.8 7-.7 9.5.3 9.4 2.8 19 4.5 28.3 1.5 8 4.6 16.6 8.8 23.4 2 3.2 5.1 3.5 8.5 4.2s6.8 1.8 10.3 2c4 .2 6.9-1.1 9.8-4 2.8-2.8 6.5-5.2 8.3-8.7 2.4-4.6 1.7-10.1 1.7-15.2 0-5.6-1.2-11.4-2-16.9s-1.6-11.2-3.2-16.5c-.9-3-.6-8.6-2.9-10.9-1.2-1.2-2.6-1-4.2-.7" fill="#fff"></path><path d="m69.5 56.3c-1.5-.1-5-1.5-7.1-2-2.5-.5-5-.8-7.5-1.2-6.5-1-13.1-1.9-19.6-2.8-1.7-.2-7.8-2.9-9.4-2.1-1.3.7-1.4 5-1.6 6.2-.7 3-1.5 6-2.2 9-2.5 11.3-5.9 23-6.4 34.5-.2 3.6-.7 8.2.2 11.6 1.1 4.1 4.1 6.8 7.3 9.3 6.4 5.1 14 5.4 21.6 3.4 3.2-.9 8-3.2 10.1-5.9 2.1-2.8 3.4-8 4.4-11.2.8-2.6.6-5.3 1.2-7.9.4-3.2 1.7-6.2 2.5-9.2 1.5-5.4 2.9-10.8 4.4-16.2.8-3.1 1.8-6.3 2-9.5.1-2-.3-4.1.2-6.1" fill="#fff"></path><g fill="#ffd100"><path d="m108.4 7.1c-1.9-1.5-5-4.2-7.9-4.5-3.2-.4-6.5 1.5-8.4 4-6.8 8.9 7.1 20.1 13.3 24.6.9.6 2.3 2.1 3.4 2 1.1-.2 2.1-1.8 2.9-2.5 1.5-1.3 2.9-2.5 4.3-3.9 3.8-3.9 7.9-7.6 9.1-13.2 1.4-6.2-4.2-10.2-10.1-9.4-2.4.3-4.6 2-6.6 2.9"></path><path d="m68 25.6c-1.3-1-3.4-2.8-5.4-3.1-2.2-.2-4.4 1-5.7 2.7-4.6 6.1 4.8 13.7 9.1 16.8.6.4 1.5 1.4 2.3 1.3.7-.1 1.5-1.3 2-1.7 1-.9 2-1.7 2.9-2.7 2.6-2.7 5.4-5.2 6.2-9 1-4.2-2.8-7-6.9-6.4-1.6.3-3.2 1.5-4.5 2.1"></path><path d="m24.8 85.1 31.3-2.6s-5.5 36.4-21.2 33.8c-0 0-15 1.3-10.1-31.2z"></path></g><path d="m36.5 118.9c-.6 0-1.2 0-1.7-.1-1 0-5.1-.2-8.5-4.2-4.7-5.5-6-15.5-3.9-29.8.2-1.1 1.1-2 2.2-2.1l31.3-2.6c.7-.1 1.5.2 2 .8.5.5.7 1.3.6 2-.1.4-1.4 8.8-4.5 17.4-4.4 12.3-10.3 18.6-17.5 18.6zm-1.6-5h.4c.4.1.8.1 1.2.1 9 0 14.7-18.9 16.7-28.8l-26.2 2.2c-1.9 14.6.5 21.1 3 24 2 2.3 4.3 2.5 4.7 2.5z"></path><path d="m79.4 22.4c-1.9-1.7-4.1-2.5-6.4-2.3-2.2.2-4 1.2-5.3 2.2-1.2-1-3.1-2-5.3-2.2-2.3-.2-4.5.6-6.4 2.3-2.6 2.3-3.2 4.7-3.3 6.4-.1 3.6 2.3 6.1 2.6 6.4l10.6 10.7c.5.5 1.1.7 1.7.7h.1.1c.6 0 1.3-.2 1.7-.7l10.5-10.7c.3-.3 2.7-2.8 2.6-6.4 0-1.6-.6-4-3.2-6.4zm-2.8 9.3-8.9 9.1-8.9-9.1s-1.2-1.3-1.2-2.8c0-.9.6-1.9 1.6-2.8.9-.8 1.8-1.2 2.7-1.1 1.7.1 3.2 1.6 3.7 2.2s1.2.9 1.8.9h.2c.7 0 1.4-.3 1.9-.9 0 0 1.7-2 3.7-2.2.9-.1 1.8.3 2.8 1.1 1 .9 1.6 1.9 1.6 2.8.2 1.5-1 2.8-1 2.8z"></path><path d="m124.9 3.2c-2.7-2.4-5.6-3.5-8.8-3.2-3.5.3-6.4 2.2-8.1 3.7-1.7-1.5-4.6-3.5-8.1-3.7-3.1-.2-6.1.8-8.7 3.2-2.9 2.6-4.4 5.5-4.5 8.7-.2 5 3.4 8.6 3.5 8.7l15.9 16.2c.5.5 1.1.7 1.7.7h.2.2c.6 0 1.3-.2 1.7-.7l15.9-16.2c.1-.1 3.7-3.7 3.5-8.7-0-3.1-1.5-6.1-4.4-8.7zm-2.5 14-14.4 14.6-14.3-14.6s-2.2-2.3-2.1-5.1c.1-1.8 1-3.5 2.9-5.2 1.7-1.5 3.3-2.1 5.1-2 3.5.3 6.4 3.7 6.5 3.7.5.7 1.4 1 2.1.9.7 0 1.4-.3 1.9-.9 0 0 2.9-3.5 6.5-3.7 1.8-.1 3.4.5 5.1 2 1.9 1.6 2.8 3.4 2.9 5.2-0 2.8-2.2 5.1-2.2 5.1z"></path><path d="m136.8 157.7c-.2-1.3-1.4-2.3-2.7-2.2l-19.2 2.2-4.2-31.1c8.8-2.9 16.1-10.5 17.7-18.8.6-3.2.7-7 .1-10.6-5-47.8-7-49.1-8.2-49.8-.8-.5-3.1-2-24.5 2.7-21.5 2.4-23.2 4.5-23.8 5.2-.2.2-.3.4-.5.9-.5-.7-2.1-2.9-23.8-6.4-20.9-5.6-23.2-4.3-24-3.9-1.3.7-2.4 1.4-6.6 25.4-1.9 11.1-3.7 22.4-3.9 23.9-.7 3.6-.8 7.4-.4 10.6 1.2 8.6 7.6 16.2 15.9 19.5l-7.3 29.9-18.5-4.9c-1.3-.3-2.6.4-3 1.7-.3 1.3.4 2.6 1.7 3l42.4 11.3c.2.1.4.1.6.1 1.1 0 2.1-.7 2.4-1.8.3-1.3-.4-2.6-1.7-3l-19-5.1 7.4-30.1c.5 0 1 .1 1.5.1 8.8 0 17.5-4.3 21.8-11.1 1.8-2.8 3.2-6.3 4-9.9.6-2.1 3.6-12.9 6.3-23.7 2.6-10.2 3.9-16.1 4.5-19.7.8 6.2 3 18.3 8.6 42.9v.1c.7 3.6 1.9 7.2 3.5 10 4.3 7.5 13 12.3 21.9 12.3l4.2 30.8-19.4 2.2c-1.3.2-2.3 1.4-2.2 2.7.1 1.2 1.2 2.2 2.4 2.2h.3l43.4-5c1.5-.1 2.5-1.3 2.3-2.6zm-80.5-53.5-.1.3c-.7 3-1.9 6-3.3 8.2-3.9 6.1-12.8 9.8-20.8 8.6-7.3-2.2-13.3-8.9-14.3-16.1-.4-2.7-.3-5.9.3-9v-.2c2.9-19.3 6.8-41 8.4-45.7 3.1.1 12.7 2.2 20.8 4.4v-.1c8 1.3 17.2 3.2 19.9 4.4-.3 4.9-5.6 25.9-10.9 45.2zm31.9 8.5c-1.4-2.4-2.4-5.4-3-8.5 0-.1 0-.1 0-.2-5.1-22.7-8.7-41.1-8.9-45.6 2.9-1 12.7-2.6 21-3.5v-.1c7.9-1.7 17.2-3.3 20.1-3.2 1.5 4.7 4.3 26.6 6.3 46.1v.1c.5 3.1.4 6.3-.1 9-1.4 7.1-8.3 13.8-16.2 15.6-7.6.6-15.6-3.4-19.2-9.7z"></path><path d="m87.4 91.4 28.2-13.9s8.2 35.9-7.4 39.2c0 0-13.5 6.7-20.8-25.3z" fill="#ffd100"></path><path d="m105.2 119.8c-6.3 0-14.9-4.8-20.2-27.8-.3-1.1.3-2.2 1.3-2.7l28.2-13.9c.7-.3 1.5-.3 2.1 0 .7.3 1.2.9 1.3 1.7.2 1 5.7 25.4-1.5 36.6-1.9 2.9-4.4 4.7-7.5 5.5-.5.1-1.9.6-3.7.6zm-15-27.1c5 19.9 12.1 22.1 15 22.1 1.2 0 2-.3 2-.3.2-.1.4-.1.5-.2 1.9-.4 3.5-1.5 4.7-3.4 4.4-6.9 2.9-21.8 1.5-29.8z"></path></svg>