<?xml version="1.0" encoding="UTF-8"?>
<svg xmlns="http://www.w3.org/2000/svg" height="160.333" viewBox="0 0 325.333 160.333" width="325.333">
  <g fill="#fff">
    <path d="m226.884 94.708-.396 2.876-21.111-14.771-.001.004c-10.906-8.83-25.638-23.143-43.147-46.001v.058l-.017-.058c-17.464 22.8-32.163 37.095-43.062 45.931l-.004-.028-20.897 14.745-.396-2.876-3.565.494 1.027 7.531 3.633-.014-.16-1.208c9.848-6.837 19.618-13.584 20.807-14.405.808 5.817 2.207 15.698 2.207 15.698h23.674c11.894-8.52 16.604-33.48 16.73-34.161 1.289 5.927 6.46 26.782 16.76 34.161h23.675s1.396-9.843 2.203-15.665c.652.444 10.938 7.432 21.106 14.492l-.16 1.208 3.633.014 1.027-7.531z"></path>
    <path d="m12.531 149.769v-32.842h-8.378v38.399h18l-3.625-5.557z"></path>
    <path d="m23.702 128.098h8.378v27.229h-8.378z"></path>
    <path d="m50.288 149.741c-1.861 0-2.802-.931-2.82-2.792v-13.293h4.189l-.028-5.557h-4.189v-5.585h-8.35v5.585h-4.217v5.557l4.188.056.028 16.03c.019 3.724 1.89 5.585 5.613 5.585h10.575l-3.621-5.585h-1.368z"></path>
    <path d="m75.969 116.927h8.378v38.399h-8.378z"></path>
    <path d="m149.177 130.192-.028-7.68c0-3.724-1.853-5.585-5.558-5.585h-16.784v38.399h16.784c3.705 0 5.558-1.861 5.558-5.585v-8.434c0-3.221-1.63-5.073-4.888-5.558 3.278-.446 4.916-2.299 4.916-5.557zm-8.406 16.756c0 1.862-.932 2.792-2.793 2.792h-2.793v-11.199h2.793c1.861 0 2.793.94 2.793 2.821zm-2.821-13.963h-2.765v-10.473h2.793c1.844 0 2.765.931 2.765 2.792l.028 4.859c0 1.882-.94 2.822-2.821 2.822z"></path>
    <path d="m178.076 116.927h8.378v38.399h-8.378z"></path>
    <path d="m190.023 116.927h8.378v38.399h-8.378z"></path>
    <path d="m229.662 116.927.028 16.03h-5.586v-16.002h-8.378v38.371h8.351l.027-16.756h5.586v16.756h8.406l-.028-38.399z"></path>
    <path d="m257.617 128.098h-11.198c-3.725.037-5.586 1.909-5.586 5.613l.028 16.03c0 3.724 1.861 5.585 5.585 5.585h11.171c3.742 0 5.613-1.853 5.613-5.558l-.028-16.086c0-3.723-1.862-5.584-5.585-5.584zm-5.558 21.643h-.056c-1.843 0-2.765-.931-2.765-2.792l-.028-10.473c0-1.861.931-2.793 2.793-2.793 1.861 0 2.793.932 2.793 2.793l.027 10.473c.001 1.861-.92 2.792-2.764 2.792z"></path>
    <path d="m312.677 116.927h8.378v38.399h-8.378z"></path>
    <path d="m69.288 149.741c-1.861 0-2.802-.931-2.82-2.792v-13.293h4.189l-.028-5.557h-4.189v-5.585h-8.35v5.585h-4.217v5.557l4.188.056.028 16.03c.019 3.724 1.89 5.585 5.613 5.585h10.575l-3.621-5.585h-1.368z"></path>
    <path d="m163.067 149.803c-1.807 0-2.709-.931-2.709-2.792v-2.793l8.183.028c3.854-.019 5.78-1.88 5.78-5.585v-4.887c0-3.724-1.861-5.585-5.585-5.585l-11.171-.028c-3.724 0-5.585 1.862-5.585 5.585v16.058c0 3.724 1.853 5.585 5.558 5.585h18.865l-3.605-5.585h-9.731zm-2.709-13.377c0-1.769.922-2.653 2.765-2.653 1.861 0 2.793.931 2.793 2.792 0 1.694-.932 2.542-2.793 2.542h-2.765z"></path>
    <path d="m281.413 149.803c-1.861 0-2.802-.931-2.82-2.792v-13.293h4.189l-.028-5.557h-4.189v-5.585h-8.35v5.585h-4.217v5.557l4.188.056.028 16.03c.019 3.724 1.89 5.585 5.613 5.585h10.575l-3.621-5.585h-1.368z"></path>
    <path d="m97.984 149.72c-1.807 0-2.709-.931-2.709-2.792v-2.793l8.183.028c3.854-.019 5.78-1.88 5.78-5.585v-4.887c0-3.724-1.861-5.585-5.585-5.585l-11.171-.028c-3.724 0-5.585 1.862-5.585 5.585v16.058c0 3.724 1.853 5.585 5.558 5.585h18.865l-3.605-5.585h-9.731zm-2.709-13.377c0-1.769.922-2.653 2.765-2.653 1.861 0 2.793.931 2.793 2.792 0 1.694-.932 2.542-2.793 2.542h-2.765z"></path>
    <path d="m297.483 149.72c-1.807 0-2.709-.931-2.709-2.792v-2.793l8.184.028c3.854-.019 5.779-1.88 5.779-5.585v-4.887c0-3.724-1.861-5.585-5.584-5.585l-11.172-.028c-3.723 0-5.584 1.862-5.584 5.585v16.058c0 3.724 1.852 5.585 5.557 5.585h18.865l-3.605-5.585h-9.731zm-2.709-13.377c0-1.769.922-2.653 2.766-2.653 1.861 0 2.793.931 2.793 2.792 0 1.694-.932 2.542-2.793 2.542h-2.766z"></path>
    <circle cx="27.715" cy="120.839" r="4.083"></circle>
  </g>
  <path d="m161.014 3.411c-32.251 0-59.003 23.519-64.055 54.34.063-.003.123-.009.188-.009h39.05c7.732-7.882 16.459-17.808 26.015-30.284l.017.057v-.057c9.556 12.476 18.283 22.401 26.014 30.284h36.824c-5.056-30.816-31.807-54.331-64.053-54.331z" fill="#ffd203"></path>
  <path d="m225.843 62.781h-32.512c2.575 2.472 5.019 4.702 7.326 6.71h25.188c.055-1.1.084-2.208.084-3.323.001-1.136-.028-2.265-.086-3.387z" fill="#ffd203"></path>
  <path d="m213.653 81.358h9.863c.576-2.187 1.047-4.416 1.395-6.684h-20.076z" fill="#ffd203"></path>
  <path d="m221.084 88.833.161.02c.282-.715.53-1.449.739-2.201l-3.332-.021z" fill="#ffd203"></path>
  <path d="m96.423 62.781h34.257c-2.713 2.472-5.288 4.702-7.719 6.71h-26.541c-.058-1.1-.088-2.208-.088-3.323-0-1.136.03-2.265.091-3.387z" fill="#ffd203"></path>
  <path d="m110.75 81.25-11.875.108c-.607-2.187-1.103-4.416-1.469-6.684h21.154z" fill="#ffd203"></path>
  <path d="m101.438 88.833-.17.02c-.297-.715-.559-1.449-.779-2.201l3.511-.022z" fill="#ffd203"></path>
</svg>
