<svg xmlns="http://www.w3.org/2000/svg" viewBox="0 0 168 166.6"><circle cx="83.9" cy="84.3" fill="#fff" r="55.2"></circle><g clip-rule="evenodd" fill="#ffd100" fill-rule="evenodd"><path d="m72.1 28.8 11.7-26.2 10.7 26"></path><path d="m72.1 137.7 11.7 26.3 10.7-26"></path><path d="m46.8 41.4-2.8-28.6 22.1 17.4"></path><path d="m101.7 137 23.1 17-3.5-27.8"></path><path d="m100.6 29.7 22.9-17.2-3.2 27.9"></path><path d="m47.1 125.5-2.5 28.6 21.9-17.5"></path><path d="m28.8 94.5-26.2-11.7 26-10.7"></path><path d="m139.2 94.7 26.2-11.7-26-10.6"></path><path d="m30.4 66.1-17-23.2 27.9 3.6"></path><path d="m126.1 120.4 28.6 2.9-17.3-22.2"></path><path d="m125.6 46.1 28.6-3.1-17.2 22.3"></path><path d="m30.6 100.9-16.9 23.3 27.9-3.8"></path></g><path d="m83.8 107.9c-8.7 0-11.9-8.6-12.1-9-.5-1.4.2-2.8 1.6-3.3 1.3-.5 2.8.2 3.3 1.6.1.3 2.1 5.6 7.2 5.6 5.2 0 7.4-5.6 7.5-5.6.5-1.3 2-2 3.4-1.5 1.3.5 2 2 1.5 3.4-.2.2-3.7 8.8-12.4 8.8z"></path><path d="m166.4 80.6-25.5-10.5c-.3-1.4-.7-2.8-1.1-4.2l16.5-21.4c.6-.8.7-1.9.2-2.9-.5-.9-1.5-1.4-2.5-1.3l-27.5 2.9c-1.1-1.2-2.2-2.3-3.4-3.3l3.2-27.3c.1-1-.4-2-1.3-2.6-.9-.5-2-.4-2.9.2l-22.5 17c-1-.3-2-.5-3-.7l-10.3-25c-.4-1-1.3-1.6-2.4-1.6-1 0-2 .6-2.4 1.5l-11.5 25.7c-.9.2-1.8.5-2.7.8l-21.7-17.1c-.8-.6-1.9-.7-2.9-.2-.9.5-1.4 1.5-1.3 2.5l2.7 28.5c-.8.8-1.6 1.6-2.4 2.4h-.1l-27.9-3.6c-1-.1-2 .4-2.6 1.3-.5.9-.5 2 .1 2.9l17 23.1s.1.1.1.1c-.2.6-.4 1.3-.5 1.9-.1 0-.2.1-.3.1l-26 10.7c-1 .4-1.6 1.3-1.6 2.4 0 1 .6 2 1.5 2.4l26.2 11.7c.2.8.4 1.7.7 2.5l-16.8 23.3c-.6.8-.7 2-.1 2.9.5.8 1.3 1.3 2.2 1.3h.4l27.8-3.8c.9.9 1.7 1.8 2.6 2.7l-2.4 28c-.1 1 .4 2 1.4 2.5.4.2.8.3 1.2.3.6 0 1.2-.2 1.6-.6l21.4-17.1c.9.3 1.7.5 2.6.7l11.2 25.3c.4.9 1.3 1.5 2.4 1.5 1 0 2-.6 2.4-1.6l10.1-24.7c1.4-.3 2.7-.6 4-1l22.9 16.9c.5.3 1 .5 1.5.5s.9-.1 1.3-.4c.9-.5 1.4-1.5 1.3-2.6l-3.5-27.8c1-.9 1.9-1.9 2.8-2.8l27.8 2.7h.3c.9 0 1.8-.5 2.3-1.3.5-.9.4-2-.2-2.9l-16.8-21.5c.3-1.1.6-2.2.9-3.3l25.6-11.4c.9-.3 1.5-1.3 1.5-2.3s-.6-2-1.6-2.4zm-82.1 55.7c-29.2 0-52.9-23.7-52.9-52.9 0-4.1.5-8.2 1.4-12l7.3 2.9c-.6 3-.9 6-.9 9.2 0 24.9 20.2 45.1 45.1 45.1s45.1-20.2 45.1-45.1c0-3.1-.3-6.1-.9-9.1l7.3-2.9c.9 3.8 1.4 7.8 1.4 11.9-0 29.2-23.7 52.9-52.9 52.9zm0-105.8c23.2 0 43 15.1 50.1 35.9l-7.3 2.9c-5.9-18-22.9-31-42.8-31s-36.8 13-42.8 30.9l-7.3-2.8c7.2-20.9 26.9-35.9 50.1-35.9zm39.9 52.9c0 22-17.9 39.9-39.9 39.9s-39.9-17.9-39.9-39.9c0-2.5.2-4.9.7-7.3l5.1 2h.1c1.2 7.4 7.7 13.1 15.5 13.1 7.3 0 13.5-5 15.2-11.8h8c1.7 6.8 7.9 11.8 15.2 11.8 8 0 14.5-5.9 15.6-13.6l3.7-1.4c.5 2.4.7 4.8.7 7.2zm-4.5-11.2c-1.6-7.1-7.8-12.3-15.3-12.3-8.2 0-15 6.3-15.7 14.4h-7.1c-.7-8.1-7.4-14.4-15.7-14.4-7.7 0-14.1 5.5-15.4 12.8l-4-1.6c5.2-16 20.2-27.6 37.9-27.6s32.8 11.6 38 27.7zm28.7-25.9-10.8 14c-1.9-4.3-4.3-8.4-7.1-12.1zm-28.2-28.1-2.1 18c-3.9-2.8-8.1-5.1-12.7-6.9zm-36.5-9 6.7 16.5c-2-.2-4.1-.3-6.1-.3-2.7 0-5.4.2-8.1.6zm-36.5 9.4 14.4 11.4c-4.5 1.9-8.8 4.4-12.6 7.4zm-28.1 27.7 18.7 2.4c-3 4-5.4 8.4-7.3 13zm-9.9 36.6 17.6-7.2c-.3 2.5-.5 5.1-.5 7.8 0 2.5.2 4.9.5 7.2zm10.2 37.9 11.2-15.4c1.9 4.6 4.4 9 7.3 12.9zm28.3 27.5 1.6-18.5c3.8 2.9 8 5.3 12.5 7.2zm36 9.1-7.3-16.4c2.6.4 5.2.6 7.9.6 2 0 4-.1 6-.3zm37.7-9.1-15.1-11.2c4.6-1.9 8.9-4.3 12.8-7.3zm27.5-28.2-18.2-1.8c2.8-3.8 5.2-7.9 7.1-12.3zm-6.9-29.5c.3-2.4.5-4.8.5-7.2s-.2-4.8-.5-7.2l16.9 6.9z"></path></svg>