<svg xmlns="http://www.w3.org/2000/svg" height="244.23534" viewBox="0 0 190.17094 244.23534" width="190.17094"><path clip-rule="evenodd" d="m190.16891 83.41147c-.613 20.32-10.401 44.992-34.796 65.942-4.822 4.147-9.046 8.684-13.243 13.193-11.609 12.438-14.822 25.78-9.321 40.574 7.376 19.822-4.314 34.681-30.165 39.729-26.119005 5.103-50.459005-4.184-56.674005-22.96-4.555-13.825-13.768-24.977-26.572-35.337-23.5919999-19.101-25.1739999-33.999-7.414-56.562 4.098-5.204 8.265-10.427 13.11-15.254 17.807-17.749 24.165-37.044 17.336-58.852-1.853-5.908-1.326-12.583.165-18.635 6.369-25.8489999 33.279-39.0859999 68.519005-34.27399992 50.807 6.93200002 79.335 34.22599992 79.055 82.43599992z" fill="#3e8ede" fill-rule="evenodd"></path></svg>