<svg xmlns="http://www.w3.org/2000/svg" viewBox="0 0 148.5 165.1"><path d="m95.8 64.1c-6 0-11.8 1.1-17.1 3.2 4.2 1.8 8.2 4.2 11.1 7.6 2-.3 4-.5 6-.5 20.8 0 37.7 16.9 37.7 37.7s-16.9 37.7-37.7 37.7-37.7-16.9-37.7-37.7c0-11.1 4.8-21 12.4-27.9-2.8-2.3-6-3.8-9.5-5.1-8.2 8.6-13.2 20.2-13.2 33 0 26.5 21.5 48 48 48s48-21.5 48-48-21.6-48-48-48z" fill="#fff"></path><path d="m52.9 74.3c-20.9 0-37.9 17-37.9 37.9s17 37.9 37.9 37.9 37.9-17 37.9-37.9-17-37.9-37.9-37.9zm17.2 9.9c-7.8 7.1-12.4 17.3-12.4 28s4.6 20.9 12.4 28c-3.1 1.9-6.4 3.3-10 4.1-8-8.8-12.4-20.2-12.4-32.1s4.4-23.3 12.4-32.1c3.6.8 7 2.2 10 4.1zm-50.1 28c0-18.1 14.8-32.9 32.9-32.9h1.3c-7.4 9.3-11.5 20.9-11.5 32.9s4 23.5 11.5 32.9c-.4 0-.9 0-1.3 0-18.1-0-32.9-14.7-32.9-32.9zm54.3 25c-7.3-6.2-11.5-15.4-11.5-25s4.3-18.8 11.5-25c7.1 6 11.5 15 11.5 25s-4.5 19-11.5 25z"></path><path d="m95.6 59.3c-4.2 0-8.4.5-12.4 1.5l24.9-25.3c.3-.3 6.3-6.4 6-15-.2-5.4-2.8-10.5-7.9-15-4.6-4.1-9.7-6-15-5.6-7.2.6-12.8 5.2-15.5 7.9-2.7-2.6-8.3-7.3-15.5-7.9-5.3-.4-10.4 1.4-15 5.6-5.1 4.5-7.7 9.5-7.9 15-.3 8.5 5.8 14.7 6 15l26 26.4c-5.2-1.7-10.8-2.7-16.5-2.7-29.1.1-52.8 23.9-52.8 53 0 29.2 23.7 52.9 52.9 52.9 7.6 0 14.8-1.6 21.3-4.5 6.8 3 13.9 4.5 21.4 4.5 29.2 0 52.9-23.7 52.9-52.9.1-29.1-23.7-52.9-52.9-52.9zm-53.2-38.6c.1-4 2.2-7.8 6.2-11.3 3.6-3.2 7.4-4.6 11.3-4.3 7.7.6 13.6 7.7 13.7 7.9.6.7 1.4 1 2.2.9.8.1 1.6-.2 2.2-.9-0-.2 6-7.3 13.7-8 3.9-.3 7.7 1.1 11.3 4.3 4 3.5 6.1 7.4 6.2 11.3.2 6.3-4.5 11.3-4.6 11.3l-28.9 29.4-28.8-29.3s-4.8-5-4.5-11.3zm-37.4 91.5c0-26.4 21.5-47.9 47.9-47.9s47.9 21.5 47.9 47.9-21.5 47.9-47.9 47.9-47.9-21.5-47.9-47.9zm89.3-32.8h1.3c18.1 0 32.9 14.8 32.9 32.9s-14.8 32.9-32.9 32.9c-.4 0-.9 0-1.3 0 7.2-9 11.5-20.4 11.5-32.9s-4.3-23.9-11.5-32.9zm1.3 80.7c-5.3 0-10.5-.9-15.5-2.6 3.7-2.2 7-4.8 10.1-7.8 1.8.3 3.6.4 5.4.4 20.9 0 37.9-17 37.9-37.9s-17-37.9-37.9-37.9c-1.8 0-3.6.1-5.5.4-3-3-6.4-5.6-10-7.8 5-1.7 10.2-2.6 15.5-2.6 26.4 0 47.9 21.5 47.9 47.9.1 26.4-21.4 47.9-47.9 47.9z"></path><path d="m42.4 20.7c.1-4 2.2-7.8 6.2-11.3 3.6-3.2 7.4-4.6 11.3-4.3 7.7.6 13.6 7.7 13.7 7.9.6.7 1.4 1 2.2.9.8.1 1.6-.2 2.2-.9-0-.2 6-7.3 13.7-8 3.9-.3 7.7 1.1 11.3 4.3 4 3.5 6.1 7.4 6.2 11.3.2 6.3-4.5 11.3-4.6 11.3l-28.9 29.4-28.8-29.3s-4.8-5-4.5-11.3z" fill="#ffd100"></path><path d="m52.8 160.1c-26.5 0-48-21.5-48-48s21.5-48 48-48 48 21.5 48 48-21.6 48-48 48zm0-85.7c-20.8 0-37.7 16.9-37.7 37.7s16.9 37.7 37.7 37.7 37.7-16.9 37.7-37.7-16.9-37.7-37.7-37.7z" fill="#fff"></path></svg>