<svg xmlns="http://www.w3.org/2000/svg" height="196.359" viewBox="0 0 395.171 196.359" width="395.171"><path clip-rule="evenodd" d="m272.229 187.336c-44.853 20.275-96.699 5.378-123.931-35.607-3.915-5.893-7.915-11.737-11.816-17.642-8.697-13.156-20.763-20.98-37.049-24.15-39.344-7.653-52.919-40.197-31.511-74.434 23.199-37.116 83.908-51.332 115.092-11.734 13.415 17.037 30.588 22.97 52.095 20.786 11.177-1.139 22.334-2.778 33.519-3.604 33.842-2.489 53.971 12.878 59.458 44.998 6.938 40.621-16.808 83.74-55.857 101.387z" fill="#ac6389" fill-rule="evenodd"></path><path d="m30.974 98.582h-6.808c-1.973 0-3.357-.564-4.152-1.693-.797-1.128-1.242-2.821-1.337-5.079-.333-5.441-.499-10.765-.499-15.969 0-6.867.297-13.973.891-21.315.095-1.283.41-2.459.945-3.529.534-1.069 1.283-1.925 2.245-2.566.963-.642 2.133-.962 3.511-.962h15.006c2.875 0 5.441.541 7.699 1.622 2.257 1.082 4.17 2.507 5.739 4.277 1.568 1.771 2.774 3.742 3.618 5.917.843 2.174 1.277 4.39 1.301 6.647 0 2.899-.63 5.299-1.889 7.2-1.26 1.901-2.917 3.321-4.973 4.26s-4.295 1.432-6.719 1.479c-1.378 0-2.555-.13-3.529-.392-.975-.261-1.753-.517-2.334-.767-.583-.249-1.028-.374-1.337-.374-.333 0-.499.285-.499.855 0 1.331.843 6.808 2.531 16.432l.071.677c0 1.046-.47 1.8-1.408 2.264-.939.463-2.133.748-3.583.855-1.448.107-2.945.161-4.49.161zm8.983-27.874c1.212 0 2.246-.855 3.101-2.566s1.283-3.612 1.283-5.703c0-1.497-.273-2.94-.82-4.331-.547-1.39-1.444-2.53-2.691-3.422-1.248-.891-2.929-1.336-5.044-1.336-.143 0-.226.042-.25.125-.024.084-.036.208-.036.375.047 3.279.25 6.785.606 10.515.404 3.874 1.331 5.953 2.78 6.238.381.069.738.105 1.071.105z"></path><path d="m91.392 98.582c-2.281 0-4.016-.208-5.204-.624-1.188-.415-1.996-.938-2.424-1.568-.428-.629-.642-1.277-.642-1.942v-.428c0-.404-.066-.754-.196-1.052-.131-.296-.339-.445-.624-.445s-.63.214-1.034.642c-3.327 3.612-6.772 5.418-10.337 5.418-2.067 0-3.862-.457-5.382-1.372-1.521-.915-2.78-2.145-3.778-3.689s-1.741-3.291-2.228-5.24c-.488-1.948-.731-3.957-.731-6.024 0-2.59.433-4.835 1.301-6.737.867-1.901 2.043-3.469 3.528-4.705 1.485-1.235 3.173-2.15 5.062-2.745 1.89-.594 3.855-.891 5.899-.891l1.854.036c.879 0 1.747-.077 2.602-.231s1.562-.499 2.121-1.034c.558-.534.838-1.372.838-2.513 0-1.307-1.022-1.96-3.065-1.96-1.759 0-3.737.375-5.935 1.123-2.199.749-3.796 1.456-4.794 2.121-.642.428-1.295.642-1.96.642-1.212 0-2.335-.535-3.368-1.604-1.034-1.069-1.551-2.198-1.551-3.386 0-1.069.463-1.948 1.39-2.638 2.02-1.449 4.741-2.649 8.163-3.6 3.422-.95 6.951-1.426 10.586-1.426 4.135 0 7.467.654 9.999 1.96 2.53 1.307 4.461 3.083 5.792 5.329 1.331 2.245 2.239 4.824 2.727 7.734.487 2.912.731 5.995.731 9.25v1.39c0 2.234-.042 4.473-.125 6.719-.084 2.245-.125 4.45-.125 6.612l.036 2.032c0 .951-.463 1.794-1.39 2.531s-2.085 1.307-3.476 1.711c-1.391.402-2.811.604-4.26.604zm-14.829-17.823c1.996 0 4.051-.487 6.167-1.461.665-.356 1.105-.95 1.319-1.782s.321-1.734.321-2.709c0-.784-.024-1.533-.071-2.246-.048-.618-.071-1.158-.071-1.622 0-.463-.012-.784-.036-.962-.024-.179-.095-.268-.214-.268s-.333.095-.642.285c-.998.57-2.067.951-3.208 1.141-.951.167-1.913.297-2.887.392-1.117.071-2.156.214-3.119.428-.962.214-1.741.624-2.334 1.23-.594.605-.891 1.562-.891 2.869 0 1.117.255 2.02.767 2.709.51.689 1.194 1.194 2.049 1.515.854.321 1.805.481 2.85.481z"></path><path d="m127.214 98.582c-3.778 0-7.093-.659-9.945-1.979-2.852-1.318-5.228-3.083-7.129-5.293s-3.333-4.717-4.295-7.521c-.963-2.804-1.444-5.679-1.444-8.626v-1.568c0-3.588.683-6.695 2.049-9.321 1.366-2.625 3.155-4.794 5.365-6.505s4.657-2.982 7.343-3.814c2.685-.832 5.347-1.248 7.984-1.248 2.186 0 4.289.28 6.309.837 2.02.559 3.819 1.391 5.4 2.495 1.58 1.105 2.839 2.472 3.778 4.1.938 1.628 1.408 3.523 1.408 5.685 0 1.568-.297 3.155-.891 4.758-.594 1.604-1.521 2.947-2.78 4.028-1.26 1.082-2.887 1.622-4.883 1.622-1.307 0-2.644-.291-4.01-.874-1.367-.582-2.507-1.354-3.422-2.316-.915-.963-1.372-2.002-1.372-3.119 0-.974.428-1.937 1.283-2.887l.749-.784c.689-.665 1.336-1.384 1.943-2.157.605-.771.909-1.55.909-2.334 0-.38-.102-.79-.303-1.23-.202-.439-.541-.819-1.016-1.141-.476-.32-1.105-.481-1.889-.481-2.472.119-4.349 1.331-5.632 3.636s-1.925 5.014-1.925 8.127c0 1.973.309 3.874.927 5.703.618 1.83 1.55 3.327 2.798 4.491 1.247 1.165 2.833 1.747 4.758 1.747 1.473 0 2.816-.309 4.028-.927s2.305-1.271 3.279-1.96c.689-.451 1.312-.837 1.871-1.159.558-.32 1.075-.481 1.551-.481 1.616 0 3.226.909 4.83 2.727 1.604 1.817 2.406 3.666 2.406 5.542-.071 2.376-1.028 4.479-2.87 6.309s-4.283 3.274-7.325 4.331c-3.041 1.058-6.32 1.587-9.837 1.587z"></path><path d="m186.17 98.617-5.311-.036c-1.474 0-2.869-.219-4.188-.659-1.318-.439-2.085-1.598-2.299-3.476-.071-1.354-.107-3.137-.107-5.347 0-3.873-.083-6.356-.25-7.45-.262-1.449-.684-2.542-1.266-3.279-.583-.736-1.182-1.105-1.8-1.105-.642 0-1.224.41-1.747 1.229-.523.82-.784 2.074-.784 3.761 0 2.495.143 4.955.428 7.378.19 1.877.285 3.422.285 4.634 0 1.378-.577 2.442-1.729 3.19-1.153.749-2.537 1.123-4.152 1.123h-6.309c-1.64 0-3.047-.576-4.224-1.729-1.176-1.152-1.848-2.929-2.014-5.329-.285-6.178-.428-12.345-.428-18.5 0-6.178.143-12.345.428-18.5.166-2.376.838-4.146 2.014-5.311 1.177-1.164 2.584-1.747 4.224-1.747h6.309c1.616 0 3 .369 4.152 1.105 1.152.737 1.729 1.806 1.729 3.208 0 2.828-.149 5.68-.446 8.555s-.445 5.751-.445 8.626c0 .879.202 1.533.606 1.96.404.428.879.642 1.426.642.522 0 1.051-.19 1.586-.57.534-.38.985-.944 1.354-1.693.368-.748.552-1.669.552-2.762 0-1.402-.167-3.303-.499-5.703-.285-1.996-.428-3.434-.428-4.313v-.927c0-1.925 1.877-2.887 5.632-2.887h5.846c1.021 0 1.984.202 2.887.606 2.043.903 3.065 3.564 3.065 7.984 0 6.107-2.852 10.396-8.555 12.868 2.78 1.236 4.978 2.917 6.594 5.043 1.616 2.127 2.762 4.391 3.44 6.791.677 2.4 1.016 4.562 1.016 6.487v2.317c0 1.117-.315 1.942-.944 2.478-.63.534-1.444.891-2.442 1.069-.996.18-2.065.269-3.206.269z"></path><path d="m227.233 98.582c-2.281 0-4.016-.208-5.204-.624-1.188-.415-1.996-.938-2.424-1.568-.428-.629-.642-1.277-.642-1.942v-.428c0-.404-.066-.754-.196-1.052-.131-.296-.339-.445-.624-.445s-.63.214-1.034.642c-3.327 3.612-6.772 5.418-10.337 5.418-2.067 0-3.862-.457-5.382-1.372-1.521-.915-2.78-2.145-3.778-3.689s-1.741-3.291-2.228-5.24c-.488-1.948-.731-3.957-.731-6.024 0-2.59.433-4.835 1.301-6.737.867-1.901 2.043-3.469 3.528-4.705 1.485-1.235 3.173-2.15 5.062-2.745 1.89-.594 3.855-.891 5.899-.891l1.854.036c.879 0 1.747-.077 2.602-.231s1.562-.499 2.121-1.034c.558-.534.838-1.372.838-2.513 0-1.307-1.022-1.96-3.065-1.96-1.759 0-3.737.375-5.935 1.123-2.199.749-3.796 1.456-4.794 2.121-.642.428-1.295.642-1.96.642-1.212 0-2.335-.535-3.368-1.604-1.034-1.069-1.551-2.198-1.551-3.386 0-1.069.463-1.948 1.39-2.638 2.02-1.449 4.741-2.649 8.163-3.6 3.422-.95 6.951-1.426 10.586-1.426 4.135 0 7.467.654 9.999 1.96 2.53 1.307 4.461 3.083 5.792 5.329 1.331 2.245 2.239 4.824 2.727 7.734.487 2.912.731 5.995.731 9.25v1.39c0 2.234-.042 4.473-.125 6.719-.084 2.245-.125 4.45-.125 6.612l.036 2.032c0 .951-.463 1.794-1.39 2.531s-2.085 1.307-3.476 1.711c-1.39.402-2.811.604-4.26.604zm-14.828-17.823c1.996 0 4.051-.487 6.167-1.461.665-.356 1.105-.95 1.319-1.782s.321-1.734.321-2.709c0-.784-.024-1.533-.071-2.246-.048-.618-.071-1.158-.071-1.622 0-.463-.012-.784-.036-.962-.024-.179-.095-.268-.214-.268s-.333.095-.642.285c-.998.57-2.067.951-3.208 1.141-.951.167-1.913.297-2.887.392-1.117.071-2.156.214-3.119.428-.962.214-1.741.624-2.334 1.23-.594.605-.891 1.562-.891 2.869 0 1.117.255 2.02.767 2.709.51.689 1.194 1.194 2.049 1.515.854.321 1.804.481 2.85.481z"></path><path d="m260.917 108.633c-2.852 0-5.626-.434-8.323-1.301-2.698-.868-4.901-2.139-6.612-3.814s-2.602-3.737-2.673-6.184c0-1.354.071-2.703.214-4.045s.469-2.454.98-3.333 1.313-1.319 2.406-1.319c.475 0 1.021.095 1.64.285 2.638.855 4.919 1.283 6.844 1.283 2.21 0 3.98-.416 5.311-1.248s2.293-1.83 2.887-2.994.891-2.246.891-3.244c0-.522.012-1.063.036-1.622.023-.558.036-1.052.036-1.479 0-.927-.107-1.39-.321-1.39-.238 0-.654.523-1.248 1.568-2.923 5.133-6.369 7.699-10.337 7.699-2.02 0-3.826-.528-5.418-1.586-1.592-1.057-2.941-2.459-4.045-4.206-1.105-1.746-1.949-3.707-2.531-5.881-.583-2.175-.873-4.39-.873-6.648 0-2.78.475-5.43 1.426-7.949.95-2.519 2.447-4.556 4.491-6.113 2.043-1.556 4.657-2.358 7.842-2.406 3.303 0 6.345.796 9.125 2.388.522.333.927.499 1.212.499.166 0 .344-.059.535-.178.19-.119.428-.309.713-.57l.356-.321c.689-.594 1.562-1.045 2.62-1.354 1.057-.309 2.085-.463 3.083-.463 2.376 0 4.117.273 5.222.82 1.104.547 1.829 1.165 2.174 1.854.344.689.529 1.295.553 1.818.285 3.018.522 7.248.713 12.689.19 5.442.339 10.622.445 15.541.107 4.919.161 7.806.161 8.662 0 2.281-.547 4.319-1.64 6.113-1.093 1.793-2.566 3.314-4.42 4.562-1.854 1.247-3.945 2.204-6.273 2.869-2.331.665-4.731.998-7.202.998zm-1.283-33.826c.642 0 1.259-.552 1.854-1.658.594-1.104 1.123-2.453 1.586-4.045s.825-3.166 1.087-4.723c.261-1.556.392-2.786.392-3.689v-.143c-1.236-1.141-2.412-1.711-3.529-1.711-1.046 0-1.889.404-2.531 1.212s-1.111 1.835-1.408 3.083c-.298 1.247-.446 2.548-.446 3.903 0 1.973.273 3.76.82 5.365.547 1.603 1.271 2.406 2.175 2.406z"></path><path d="m307.219 98.582c-5.062-.095-9.292-1.253-12.689-3.476-3.398-2.221-5.959-5.115-7.681-8.679-1.724-3.564-2.584-7.307-2.584-11.228 0-2.828.463-5.578 1.39-8.252.927-2.673 2.329-5.079 4.206-7.218s4.235-3.837 7.075-5.097c2.839-1.259 6.161-1.889 9.963-1.889 3.992.071 7.212.862 9.66 2.37 2.447 1.51 4.259 3.559 5.436 6.149 1.176 2.59 1.823 5.525 1.942 8.804l.036 1.925c0 .523-.131.879-.392 1.069-.262.19-.654.285-1.176.285-1.141 0-2.673-.19-4.598-.57-3.185-.57-5.632-.855-7.343-.855l-.82.036c-2.091.143-3.654.766-4.687 1.872-1.034 1.104-1.551 2.323-1.551 3.653 0 1.307.481 2.478 1.443 3.511.963 1.034 2.394 1.586 4.295 1.658 1.544 0 2.923-.303 4.135-.909s2.293-1.242 3.244-1.907c.642-.428 1.229-.796 1.765-1.105.534-.309 1.039-.463 1.515-.463 1.093 0 2.198.445 3.315 1.337 1.117.891 2.043 1.99 2.78 3.297.736 1.307 1.105 2.602 1.105 3.885-.143 2.329-1.147 4.373-3.012 6.131-1.866 1.759-4.29 3.143-7.271 4.153-2.984 1.008-6.15 1.513-9.501 1.513zm-6.701-27.768c.19 0 .463-.154.82-.463 1.021-.903 2.228-1.526 3.618-1.871 1.39-.344 3.035-.517 4.937-.517.57 0 .915-.036 1.034-.107s.178-.25.178-.535l-.036-1.354c0-1.164-.119-2.281-.356-3.351-.238-1.069-.677-1.943-1.319-2.62-.642-.678-1.557-1.028-2.745-1.052-1.474 0-2.691.494-3.654 1.479-.962.986-1.681 2.275-2.156 3.867-.476 1.592-.725 3.339-.749 5.24 0 .857.143 1.284.428 1.284z"></path><path d="m12.867 160.582h-6.808c-1.973 0-3.357-.564-4.152-1.693-.797-1.128-1.242-2.821-1.337-5.079-.333-5.441-.499-10.765-.499-15.969 0-6.867.297-13.973.891-21.315.095-1.283.41-2.459.945-3.529.534-1.069 1.283-1.925 2.245-2.566.963-.642 2.133-.962 3.511-.962h15.006c2.875 0 5.441.541 7.699 1.622 2.257 1.082 4.17 2.507 5.739 4.277 1.568 1.771 2.774 3.742 3.618 5.917.843 2.174 1.277 4.39 1.301 6.647 0 2.899-.63 5.299-1.889 7.2-1.26 1.901-2.917 3.321-4.973 4.26s-4.295 1.432-6.719 1.479c-1.378 0-2.555-.13-3.529-.392-.975-.261-1.753-.517-2.334-.767-.583-.249-1.028-.374-1.337-.374-.333 0-.499.285-.499.855 0 1.331.843 6.808 2.531 16.432l.071.677c0 1.046-.47 1.8-1.408 2.264-.939.463-2.133.748-3.583.855-1.449.107-2.946.161-4.49.161zm8.982-27.874c1.212 0 2.246-.855 3.101-2.566s1.283-3.612 1.283-5.703c0-1.497-.273-2.94-.82-4.331-.547-1.39-1.444-2.53-2.691-3.422-1.248-.891-2.929-1.336-5.044-1.336-.143 0-.226.042-.25.125-.024.084-.036.208-.036.375.047 3.279.25 6.785.606 10.515.404 3.874 1.331 5.953 2.78 6.238.382.069.738.105 1.071.105z"></path><path d="m66.013 160.582c-5.062-.095-9.292-1.253-12.689-3.476-3.398-2.221-5.959-5.115-7.681-8.679-1.724-3.564-2.584-7.307-2.584-11.228 0-2.828.463-5.578 1.39-8.252.927-2.673 2.329-5.079 4.206-7.218s4.235-3.837 7.075-5.097c2.839-1.259 6.161-1.889 9.963-1.889 3.992.071 7.212.862 9.66 2.37 2.447 1.51 4.259 3.559 5.436 6.149 1.176 2.59 1.823 5.525 1.942 8.804l.036 1.925c0 .523-.131.879-.392 1.069-.262.19-.654.285-1.176.285-1.141 0-2.673-.19-4.598-.57-3.185-.57-5.632-.855-7.343-.855l-.82.036c-2.091.143-3.654.766-4.687 1.872-1.034 1.104-1.551 2.323-1.551 3.653 0 1.307.481 2.478 1.443 3.511.963 1.034 2.394 1.586 4.295 1.658 1.544 0 2.923-.303 4.135-.909s2.293-1.242 3.244-1.907c.642-.428 1.229-.796 1.765-1.105.534-.309 1.039-.463 1.515-.463 1.093 0 2.198.445 3.315 1.337 1.117.891 2.043 1.99 2.78 3.297.736 1.307 1.105 2.602 1.105 3.885-.143 2.329-1.147 4.373-3.012 6.131-1.866 1.759-4.29 3.143-7.271 4.153-2.985 1.008-6.151 1.513-9.501 1.513zm-6.701-27.768c.19 0 .463-.154.82-.463 1.021-.903 2.228-1.526 3.618-1.871 1.39-.344 3.035-.517 4.937-.517.57 0 .915-.036 1.034-.107s.178-.25.178-.535l-.036-1.354c0-1.164-.119-2.281-.356-3.351-.238-1.069-.677-1.943-1.319-2.62-.642-.678-1.557-1.028-2.745-1.052-1.474 0-2.691.494-3.654 1.479-.962.986-1.681 2.275-2.156 3.867-.476 1.592-.725 3.339-.749 5.24 0 .857.142 1.284.428 1.284z"></path><path d="m95.312 160.617c-1.973 0-3.381-.558-4.224-1.675-.844-1.117-1.361-2.792-1.551-5.026-.808-8.198-1.212-15.078-1.212-20.638 0-3.968.237-7.758.713-11.371.309-2.376 1.021-4.153 2.139-5.329 1.117-1.177 2.531-1.776 4.242-1.8.855 0 1.502-.005 1.943-.018.439-.011.778-.023 1.016-.035.237-.012 1.473-.018 3.707-.018 1.996 0 3.196.82 3.6 2.459.19.761.285 1.616.285 2.566v.82c0 .404.095.606.285.606.285 0 .558-.19.82-.57 1.164-1.996 2.78-3.493 4.848-4.491s4.194-1.497 6.38-1.497c2.638 0 4.937.689 6.897 2.067 1.961 1.378 3 3.41 3.119 6.095 0 1.973-.583 3.916-1.747 5.828-1.165 1.914-2.566 3.5-4.206 4.759-1.64 1.26-3.172 1.889-4.598 1.889-1.331 0-2.329-.582-2.994-1.747-2.448-4.229-4.468-6.345-6.06-6.345-.951 0-1.664.719-2.139 2.156-.476 1.438-.725 3.393-.749 5.864 0 3.731.998 8.769 2.994 15.113.428 1.354.713 2.371.855 3.047.143.678.214 1.361.214 2.05 0 .975-.178 1.854-.535 2.638-.784 1.711-2.436 2.566-4.955 2.566-4.774.002-7.803.013-9.087.037z"></path><path d="m144.252 160.582c-2.994 0-5.311-.713-6.951-2.139-2.115-1.782-3.172-4.859-3.172-9.232.119-4.349.333-7.854.642-10.515.237-2.043.481-3.719.731-5.026.249-1.307.481-2.875.695-4.705h-5.846c-.76 0-1.141-.344-1.141-1.034v-1.283c0-.736.333-1.105.998-1.105h4.955c.499 0 .749-.095.749-.285 0-.214-.214-.594-.642-1.141-1.283-1.734-1.96-3.659-2.032-5.774 0-2.02.689-3.695 2.067-5.026s3.154-2.322 5.329-2.977c2.174-.653 4.425-.98 6.754-.98 2.305 0 4.503.303 6.594.909s3.796 1.503 5.115 2.691c1.318 1.188 1.978 2.662 1.978 4.42-.048 1.521-.44 2.602-1.176 3.244-.737.642-1.568.962-2.495.962-.975 0-1.877-.279-2.709-.838-.832-.558-1.248-1.253-1.248-2.085.047-.475.119-.909.214-1.301.095-.393.143-.861.143-1.408-.024-.879-.321-1.526-.891-1.942s-1.307-.624-2.21-.624c-1.046 0-1.889.214-2.531.642s-1.1.993-1.373 1.693c-.273.701-.41 1.467-.41 2.299 0 1.141.214 2.293.642 3.458s.986 2.133 1.675 2.905c.689.773 1.414 1.159 2.174 1.159h5.596c.76 0 1.141.345 1.141 1.034v1.283c0 .737-.333 1.105-.998 1.105h-5.917c.333 3.065.855 6.102 1.568 9.107.713 3.007 1.461 5.923 2.246 8.751.76 2.686 1.426 5.228 1.996 7.628.047.214.071.44.071.677 0 .808-.375 1.634-1.123 2.477-.749.844-2.021 1.551-3.814 2.121-1.792.569-4.257.855-7.394.855z"></path><path d="m181.75 160.582c-5.062-.095-9.292-1.253-12.689-3.476-3.398-2.221-5.959-5.115-7.681-8.679-1.724-3.564-2.584-7.307-2.584-11.228 0-2.828.463-5.578 1.39-8.252.927-2.673 2.329-5.079 4.206-7.218s4.235-3.837 7.075-5.097c2.839-1.259 6.161-1.889 9.963-1.889 3.992.071 7.212.862 9.66 2.37 2.447 1.51 4.259 3.559 5.436 6.149 1.176 2.59 1.823 5.525 1.942 8.804l.036 1.925c0 .523-.131.879-.392 1.069-.262.19-.654.285-1.176.285-1.141 0-2.673-.19-4.598-.57-3.185-.57-5.632-.855-7.343-.855l-.82.036c-2.091.143-3.654.766-4.687 1.872-1.034 1.104-1.551 2.323-1.551 3.653 0 1.307.481 2.478 1.443 3.511.963 1.034 2.394 1.586 4.295 1.658 1.544 0 2.923-.303 4.135-.909s2.293-1.242 3.244-1.907c.642-.428 1.229-.796 1.765-1.105.534-.309 1.039-.463 1.515-.463 1.093 0 2.198.445 3.315 1.337 1.117.891 2.043 1.99 2.78 3.297.736 1.307 1.105 2.602 1.105 3.885-.143 2.329-1.147 4.373-3.012 6.131-1.866 1.759-4.29 3.143-7.271 4.153-2.984 1.008-6.15 1.513-9.501 1.513zm-6.701-27.768c.19 0 .463-.154.82-.463 1.021-.903 2.228-1.526 3.618-1.871 1.39-.344 3.035-.517 4.937-.517.57 0 .915-.036 1.034-.107s.178-.25.178-.535l-.036-1.354c0-1.164-.119-2.281-.356-3.351-.238-1.069-.677-1.943-1.319-2.62-.642-.678-1.557-1.028-2.745-1.052-1.474 0-2.691.494-3.654 1.479-.962.986-1.681 2.275-2.156 3.867-.476 1.592-.725 3.339-.749 5.24.001.857.143 1.284.428 1.284z"></path><path d="m225.558 160.582c-3.778 0-7.093-.659-9.945-1.979-2.852-1.318-5.228-3.083-7.129-5.293s-3.333-4.717-4.295-7.521c-.963-2.804-1.444-5.679-1.444-8.626v-1.568c0-3.588.683-6.695 2.049-9.321 1.366-2.625 3.155-4.794 5.365-6.505s4.657-2.982 7.343-3.814c2.685-.832 5.347-1.248 7.984-1.248 2.186 0 4.289.28 6.309.837 2.02.559 3.819 1.391 5.4 2.495 1.58 1.105 2.839 2.472 3.778 4.1.938 1.628 1.408 3.523 1.408 5.685 0 1.568-.297 3.155-.891 4.758-.594 1.604-1.521 2.947-2.78 4.028-1.26 1.082-2.887 1.622-4.883 1.622-1.307 0-2.644-.291-4.01-.874-1.367-.582-2.507-1.354-3.422-2.316-.915-.963-1.372-2.002-1.372-3.119 0-.974.428-1.937 1.283-2.887l.749-.784c.689-.665 1.336-1.384 1.943-2.157.605-.771.909-1.55.909-2.334 0-.38-.102-.79-.303-1.23-.202-.439-.541-.819-1.016-1.141-.476-.32-1.105-.481-1.889-.481-2.472.119-4.349 1.331-5.632 3.636s-1.925 5.014-1.925 8.127c0 1.973.309 3.874.927 5.703.618 1.83 1.55 3.327 2.798 4.491 1.247 1.165 2.833 1.747 4.758 1.747 1.473 0 2.816-.309 4.028-.927s2.305-1.271 3.279-1.96c.689-.451 1.312-.837 1.871-1.159.558-.32 1.075-.481 1.551-.481 1.616 0 3.226.909 4.83 2.727 1.604 1.817 2.406 3.666 2.406 5.542-.071 2.376-1.028 4.479-2.87 6.309s-4.283 3.274-7.325 4.331c-3.041 1.058-6.321 1.587-9.837 1.587z"></path><path d="m265.23 160.582c-5.656 0-9.719-2.198-12.19-6.594-2.091-3.707-3.137-8.709-3.137-15.006 0-4.158.356-8.281 1.069-12.369h-4.562c-.761 0-1.141-.368-1.141-1.105v-1.248c0-.713.356-1.069 1.069-1.069h6.452c.879 0 1.818-.077 2.816-.232.998-.154 1.937-.469 2.816-.944s1.616-1.164 2.21-2.067c.57-.974.855-1.782.855-2.424 0-.665-.208-1.164-.624-1.497-.417-.333-.874-.499-1.373-.499-.452 0-.868.149-1.248.445-.38.298-.57.731-.57 1.301 0 .214.029.44.089.677.059.238.089.463.089.677 0 .998-.517 1.777-1.55 2.334-1.034.559-2.205.838-3.511.838-.998 0-1.967-.178-2.905-.535-.939-.356-1.711-.927-2.317-1.711-.605-.784-.909-1.794-.909-3.03 0-1.64.522-3.03 1.568-4.17 1.045-1.141 2.388-2.014 4.028-2.62s3.351-.909 5.133-.909c1.734 0 3.392.309 4.973.927 1.58.618 2.875 1.575 3.885 2.869 1.01 1.296 1.515 2.965 1.515 5.008 0 1.212-.178 2.614-.535 4.206l-.25 1.354h8.84c.736 0 1.105.333 1.105.998v1.319c0 .737-.333 1.105-.998 1.105h-7.699c-.832 0-1.343.143-1.533.428s-.297.772-.321 1.461c-.356 2.495-.535 4.741-.535 6.737 0 1.474.136 2.798.41 3.974.273 1.177.731 2.098 1.373 2.763.642.666 1.533.998 2.673.998 1.164 0 2.602-.392 4.313-1.176.76-.333 1.414-.499 1.96-.499.998 0 1.729.452 2.192 1.354.463.903.76 2.02.891 3.351.13 1.331.196 2.65.196 3.957-.024 3.731-1.26 6.434-3.707 8.109-2.446 1.676-6.081 2.514-10.905 2.514z"></path><path d="m291.179 123.369c-2.376 0-4.396-.677-6.06-2.032-1.664-1.354-2.495-2.994-2.495-4.919 0-1.901.832-3.534 2.495-4.901 1.663-1.366 3.683-2.05 6.06-2.05 2.353 0 4.36.684 6.024 2.05 1.663 1.367 2.495 3 2.495 4.901 0 1.925-.832 3.564-2.495 4.919-1.663 1.354-3.671 2.032-6.024 2.032zm3.565 37.213h-4.812c-1.664 0-3.119-.564-4.367-1.693-1.247-1.128-1.955-2.857-2.121-5.186-.214-5.513-.321-9.79-.321-12.832 0-3.73.083-6.475.25-8.234l.036-.784c.071-2.21.504-3.861 1.301-4.955.796-1.093 2.168-1.64 4.117-1.64h5.026c1.925 0 3.315.547 4.17 1.64s1.378 2.745 1.568 4.955l.25 2.21c.237 1.688.463 4.028.677 7.022s.344 7.224.392 12.689c0 1.545-.285 2.822-.855 3.832-.57 1.011-1.319 1.759-2.246 2.246-.927.486-1.949.73-3.065.73z"></path><path d="m326.895 160.546h-1.854c-3.564 0-6.636-.564-9.214-1.693-2.579-1.128-4.699-2.691-6.362-4.688-1.664-1.996-2.894-4.307-3.689-6.933-.796-2.625-1.194-5.436-1.194-8.43 0-7.152 1.533-12.82 4.598-17.002 3.422-4.729 8.697-7.093 15.826-7.093h2.032c7.152 0 12.44 2.365 15.862 7.093 3.042 4.183 4.562 9.85 4.562 17.002 0 6.487-1.604 11.644-4.812 15.47-3.517 4.183-8.769 6.274-15.755 6.274zm-.855-14.365c.784 0 1.562-.374 2.334-1.123.772-.748 1.42-1.859 1.943-3.333.522-1.473.784-3.327.784-5.561v-1.675c0-2.305-.244-4.218-.731-5.739s-1.123-2.667-1.907-3.44c-.784-.771-1.592-1.158-2.424-1.158-.855 0-1.67.38-2.442 1.141s-1.402 1.913-1.889 3.458c-.488 1.545-.731 3.47-.731 5.774v1.675c0 2.21.261 4.052.784 5.525.522 1.474 1.17 2.584 1.943 3.333s1.551 1.123 2.336 1.123z"></path><path d="m388.417 160.653h-6.131c-.998 0-1.96-.095-2.887-.285-2.115-.38-3.196-1.77-3.244-4.17 0-4.301.059-7.877.178-10.729.119-2.994.178-5.857.178-8.59 0-4.016-.19-7.093-.57-9.232-.19-.95-.494-1.699-.909-2.246-.417-.546-1.04-.82-1.872-.82-1.022 0-1.824.505-2.406 1.515-.583 1.011-.993 2.347-1.23 4.01-.238 1.664-.356 3.481-.356 5.454 0 3.517.219 7.017.66 10.497.439 3.482.802 5.888 1.087 7.218.143.713.214 1.414.214 2.103 0 1.45-.416 2.668-1.248 3.653-.832.987-2.246 1.503-4.242 1.551l-4.135.036h-3.03c-1.901 0-3.261-.558-4.082-1.675-.819-1.117-1.325-2.792-1.515-5.026-.808-8.198-1.212-15.078-1.212-20.638 0-3.968.237-7.758.713-11.371.713-4.729 2.839-7.105 6.38-7.129l6.737-.071c1.045 0 1.847.22 2.406.66.558.44.932 1.033 1.123 1.782.19.748.285 1.586.285 2.513v.891c0 .404.095.606.285.606.261 0 .522-.19.784-.57.974-1.687 1.972-2.958 2.994-3.814 1.021-.855 2.108-1.414 3.261-1.675 1.152-.261 2.43-.392 3.832-.392 2.329 0 4.331.672 6.006 2.014 1.676 1.343 3.071 3.131 4.188 5.364 1.117 2.234 2.001 4.729 2.655 7.485.653 2.757 1.117 5.596 1.391 8.519.272 2.923.41 5.703.41 8.341 0 4.277-.25 7.723-.749 10.337-.214 1.117-.601 1.955-1.158 2.513-.559.559-1.242.927-2.05 1.104-.804.178-1.719.267-2.741.267z"></path></svg>