<svg xmlns="http://www.w3.org/2000/svg" height="244.35292" viewBox="0 0 232.99475 244.35292" width="232.99475"><path clip-rule="evenodd" d="m20.732753 203.1746c.48-7.373 1.376-16.553 1.605-25.75.28-11.024-3.292-20.395-11.606-28.337-15.6499999-14.951-14.0279999-36.068 3.849-48.802 8.112-5.777005 17.342-9.994005 26.114-14.841005 11.815-6.527 19.314-15.421 17.869-29.98-3.097-31.242 25.1-52.7899995 47.636997-55.17099951 27.17-2.87499999 56.457 15.64799951 60.318 43.13299951 2.816 20.026 13.606 28.946 29.96 35.93 20.202 8.622 32.455 24.340005 35.795 46.009005 5.118 33.222-17.482 58.929-52.844 60.889-7.3.403-14.664.007-21.934.685-17.058 1.59-31.66 8.837-44.307 20.263-8.846 7.994-17.570997 16.146-26.770997 23.719-8.915 7.341-19.027 12.419-30.873 13.313-19.498 1.464-33.63-10.773-34.79-30.299-.172-2.975-.022-5.963-.022-10.761z" fill="#ffd100" fill-rule="evenodd"></path></svg>