<svg xmlns="http://www.w3.org/2000/svg" height="244.51424" viewBox="0 0 200.71162 244.51424" width="200.71162"><path clip-rule="evenodd" d="m190.339 160.68251c-9.085 10.158-11.097 23.599-9.62 38.043.646 6.315 1.053 12.771.542 19.109-.893 11.022-4.85 20.803-16.237 24.847-11.345 4.035-21.682 1.222-30.276-6.616-8.316-7.588-12.883-17.578-14.045-28.82-1.253-12.084-1.956-24.275-2.167-36.447-.47-27.51-13.951-44.974-39.069005-53.514-14.305-4.861-29.028-8.58-43.133-13.899-19.173-7.230998-33.5099999-19.410998-36.01099985-41.772998-2.80000005-24.996 12.84699985-43.53 37.51699985-42.654 15.555.555 29.559-2.903 43.098-10.4989995 15.788-8.84900004 32.079005-11.628 48.836005-4.109 20.601 9.2409995 31.122 32.3169995 25.468 55.6149995-6.778 27.958-5.638 30.73 18.271 45.613998 5.316 3.308 10.838 6.429 15.634 10.408 13.52 11.215 15.005 22.97 5.401 38.147-1.097 1.74-2.219 3.457-4.209 6.548z" fill="#f19f53" fill-rule="evenodd"></path></svg>