<svg xmlns="http://www.w3.org/2000/svg" height="245.21086" viewBox="0 0 256.51233 245.21086" width="256.51233"><path clip-rule="evenodd" d="m122.10447 0c8.297 2.803 16.949 4.86 24.779 8.623 7.916 3.802 15.295 8.914 22.406 14.132 12.278 9.009 25.829 13.05 40.939 12.242.853-.045 1.71-.018 2.567-.015 37.419.153 55.19 31.375 35.76 63.715-5.829 9.705-13.426 18.44-20.787 27.129-12.985 15.316-19.656 32.542-18.005 52.787.444 5.396.551 10.844.481 16.262-.46 34.078-29.852 57.083-62.915 48.55-9.179-2.372-17.698-7.337-26.465-11.248-3.114-1.396-6.123-3.082-9.071-4.813-20.203004-11.826-41.235004-19.708-65.315004-20.476-23.864-.758-39.5650005-15.834-44.9490005-38.771-5.823-24.834 5.299-49.654 27.9450005-61.453 9.853-5.139 20.285-9.184 30.081-14.42 19.937-10.655 25.692-22.633 22.428-44.988-3.691-25.334 14.224-46.047 40.121004-47.256z" fill="#ff8671" fill-rule="evenodd"></path></svg>