<svg xmlns="http://www.w3.org/2000/svg" viewBox="0 0 192.4 165.9"><path d="m55.3 26.7 36.2-19.7v36z" fill="#fff"></path><path d="m80.9 51.1v77.8l-78.3-35.1z" fill="#ffd100"></path><path d="m106.1 3.1v83.3l83.7-37.7z" fill="#ffd100"></path><path d="m82.2 48.9c-.8-.5-1.8-.5-2.6 0l-78.2 42.6c-.9.4-1.4 1.4-1.4 2.4s.6 1.9 1.5 2.3l76.6 34.4v32.5c0 1.4 1.2 2.6 2.6 2.6s2.6-1.2 2.6-2.6v-33.5c.1-.2.1-.4.1-.7v-77.8c.1-.9-.4-1.7-1.2-2.2zm-73.7 44.6 69.7-38v69.3z"></path><path d="m95.5.4c-.8-.5-1.8-.5-2.6 0l-44.7 24.3c-.9.5-1.4 1.4-1.4 2.4s.6 1.9 1.5 2.3l43.1 19.4v114.4c0 1.4 1.2 2.6 2.6 2.6s2.6-1.2 2.6-2.6v-115.5c.1-.2.1-.4.1-.7v-44.4c.1-.9-.4-1.8-1.2-2.2zm-40.2 26.3 36.2-19.7v36z"></path><path d="m191.1 46.5-83.8-45.7c-.8-.4-1.8-.4-2.6 0-.8.5-1.3 1.3-1.3 2.2v83.2c0 .3.1.5.1.8v76.1c0 1.4 1.2 2.6 2.6 2.6s2.6-1.2 2.6-2.6v-75.1l82.1-36.9c.9-.4 1.5-1.3 1.5-2.3s-.4-1.9-1.2-2.3zm-82.3 35.8v-74.7l75.2 40.9z"></path><path d="m132.7 29.8 4.5 9.3 10.1 1.5-7.3 7.3 1.7 10.3-9-4.9-9.1 4.9 1.8-10.3-7.3-7.3 10.1-1.5z" fill="#fff"></path><path d="m141.7 60.3c-.3 0-.7-.1-1-.2l-8-4.3-8.1 4.3c-.7.4-1.6.3-2.2-.1-.6-.5-1-1.3-.8-2l1.5-9.2-6.5-6.5c-.6-.6-.8-1.4-.5-2.1.2-.8.9-1.3 1.7-1.4l9-1.3 4-8.3c.3-.7 1.1-1.2 1.9-1.2s1.5.5 1.9 1.2l4 8.3 9 1.3c.8.1 1.4.7 1.7 1.4.2.8 0 1.6-.5 2.1l-6.5 6.5 1.5 9.2c.1.8-.2 1.6-.8 2-.4.1-.9.3-1.3.3zm-19.2-18.2 4.4 4.3c.5.5.7 1.2.6 1.8l-1 6.1 5.3-2.8c.6-.3 1.4-.3 2 0l5.3 2.8-1-6.1c-.1-.7.1-1.3.6-1.8l4.4-4.3-6-.9c-.7-.1-1.3-.5-1.6-1.2l-2.6-5.5-2.9 5.5c-.3.6-.9 1.1-1.6 1.2z"></path><path d="m81.2 32.6c-3.7 0-6.7-3-6.7-6.7s3-6.7 6.7-6.7 6.7 3 6.7 6.7-3 6.7-6.7 6.7zm0-10.1c-1.9 0-3.5 1.6-3.5 3.5s1.6 3.5 3.5 3.5 3.5-1.6 3.5-3.5-1.5-3.5-3.5-3.5z"></path><path d="m56.7 76.7 4.6 9.3 10.1 1.5-7.3 7.3 1.7 10.2-9.1-4.8-9 4.8 1.7-10.2-7.3-7.3 10.1-1.5z" fill="#fff"></path><path d="m65.8 107.1c-.3 0-.7-.1-1-.2l-8-4.3-8 4.3c-.7.4-1.6.3-2.2-.1s-1-1.3-.8-2l1.5-9.2-6.7-6.6c-.6-.6-.8-1.4-.5-2.1.2-.8.9-1.3 1.7-1.4l9-1.3 4-8.3c.3-.7 1.1-1.2 1.9-1.2s1.5.5 1.9 1.2l4 8.3 9 1.3c.8.1 1.4.7 1.7 1.4.2.8.1 1.6-.5 2.1l-6.5 6.5 1.5 9.2c.1.8-.2 1.6-.8 2-.4.3-.8.4-1.2.4zm-19.3-18.1 4.4 4.3c.5.5.7 1.2.6 1.8l-1 6.1 5.3-2.8c.6-.3 1.4-.3 2 0l5.3 2.8-1-6.1c-.1-.7.1-1.3.6-1.8l4.4-4.3-6-.9c-.7-.1-1.3-.5-1.6-1.2l-2.6-5.5-2.6 5.5c-.3.6-.9 1.1-1.6 1.2z"></path></svg>