<?xml version="1.0" encoding="UTF-8"?>
<svg xmlns="http://www.w3.org/2000/svg" xmlns:xlink="http://www.w3.org/1999/xlink" version="1.1" id="Layer_1" x="0px" y="0px" width="139.3px" height="103.099px" viewBox="0 0 139.3 103.099" xml:space="preserve">
<path fill="#1D1D1B" d="M133.62,92.635l-0.396,2.876L112.113,80.74l-0.001,0.004c-10.906-8.83-25.638-23.143-43.147-46.001v0.058  l-0.017-0.058c-17.464,22.8-32.163,37.095-43.062,45.931l-0.004-0.028L4.984,95.391l-0.396-2.876l-3.565,0.494l1.027,7.531  l3.633-0.014l-0.16-1.208c9.848-6.837,19.618-13.584,20.807-14.405c0.808,5.817,2.207,15.698,2.207,15.698h23.674  c11.894-8.52,16.604-33.48,16.73-34.161c1.289,5.927,6.46,26.782,16.76,34.161h23.675c0,0,1.396-9.843,2.203-15.665  c0.652,0.444,10.938,7.432,21.106,14.492l-0.16,1.208l3.633,0.014l1.027-7.531L133.62,92.635z"></path>
<g>
	<g>
		<path fill="#FFD203" d="M67.75,1.338c-32.251,0-59.003,23.519-64.055,54.34c0.063-0.003,0.123-0.009,0.188-0.009h39.05    c7.732-7.882,16.459-17.808,26.015-30.284l0.017,0.057v-0.057c9.556,12.476,18.283,22.401,26.014,30.284h36.824    C126.747,24.853,99.996,1.338,67.75,1.338z"></path>
		<path fill="#FFD203" d="M132.579,60.708h-32.512c2.575,2.472,5.019,4.702,7.326,6.71h25.188c0.055-1.1,0.084-2.208,0.084-3.323    C132.666,62.959,132.637,61.83,132.579,60.708z"></path>
		<path fill="#FFD203" d="M120.389,79.285h9.863c0.576-2.187,1.047-4.416,1.395-6.684H111.57L120.389,79.285z"></path>
		<path fill="#FFD203" d="M127.82,86.76l0.161,0.02c0.282-0.715,0.53-1.449,0.739-2.201l-3.332-0.021L127.82,86.76z"></path>
	</g>
	<g>
		<path fill="#FFD203" d="M3.159,60.708h34.257c-2.713,2.472-5.288,4.702-7.719,6.71H3.156c-0.058-1.1-0.088-2.208-0.088-3.323    C3.067,62.959,3.098,61.83,3.159,60.708z"></path>
		<path fill="#FFD203" d="M17.486,79.177L5.611,79.285c-0.607-2.187-1.103-4.416-1.469-6.684h21.154L17.486,79.177z"></path>
		<path fill="#FFD203" d="M8.173,86.76l-0.17,0.02c-0.297-0.715-0.559-1.449-0.779-2.201l3.511-0.021L8.173,86.76z"></path>
	</g>
</g>
</svg>
