<svg xmlns="http://www.w3.org/2000/svg" viewBox="0 0 182.8 162.7"><path d="m32.5 3.3c5.6.9 12.3-1.3 18.1-1.3 5 0 10-.3 15-.1 13.4.8 27.2 1.5 40.6.4 11.8-1 23.7.5 35.4 1.5 5.7.5 11.6.6 17.1.3 2.2-.1 10.2-1.4 10.9.2-.1 0-.5-.1-.6-.1-.9 4.6-1.7 9.3-3 13.8-1 3.6-3.2 7-3.8 10.5-.6 3.8 1.4 8.6 2.1 12.3.6 3.2.6 5.4.3 8.6-.8 8.5 3 17.2 3.1 25.7.1 12.7-1.4 25.2-1.4 37.8 0 6.1 0 12.5.5 18.5.3 3.4 1.2 6.6-2.8 7.3-3.2.5-6.7-.4-9.8-.5-4.3-.2-8.8-.2-13.1-.2-6.1 0-12.1.7-18.1.8-.4 4.3 1.2 8.5 1.3 12.7 0 1.1-.4 7.3-1.2 8-1.2 1.2-4.3.1-5.7-.1-2.7-.4-5.4-.6-8.1-.6-7.3 0-14.5 1.2-21.8 1.5-6.7.3-13.3 1.9-20.1 1.3-6.6-.6-13.3-.4-19.9-.8-7.7-.4-15.1-1.3-22.9-.6-3.4.3-6.6-.7-9.8-.5-1.8-9.4-.8-20.1-.5-29.7.1-4.8 1.1-9.3.7-14.1-.4-4.3-1.2-8.7.5-12.5 1.3-3 .4-4.5.8-7.7.5-3.4-.1-7.2.7-10.7.8-3.7 1.8-4.3.2-8-1.8-4.1-3.2-8.5-2.6-13.1.5-4.1 3.1-4.2 6.7-4.2 3.2 0 6.7-.9 9.8-.5 1.6.2 3.1 1.6 4.7 1.5.2-2.1-1.3-4-1.4-6.2-.1-2.7.4-5.6.7-8.3.6-6.4 4.8-11.8 2.9-18.3-1.5-5-3.2-9.2-3.9-14.4-.7-2.4-1-4.5-1.1-6.7-.1-1.4.4-3.1-.5-4.3" fill="#fff"></path><path d="m180.4 100.8h-11.1c0-.2 0-.4 0-.6v-.1c.1-2.1 1.8-50.2-4.9-71.7 7-11.6 6.6-25.2 6.6-25.9 0-1.3-1.1-2.4-2.4-2.4h-136.5c-1.3 0-2.3 1.1-2.4 2.4-.4 13.6 2.9 22.6 6.4 28.3-3 8.2-4 17.4-4.8 25.4h-17.4c-1.3 0-2.3 1.1-2.4 2.4-.4 10.8 2.6 17.7 5.7 21.9v.1c-2.2 5.2-3.5 12.6-4.2 20.3h-10.6c-1.3 0-2.4 1.1-2.4 2.5s1.1 2.5 2.4 2.5h10.1c-.8 13.1-.3 25.4-.2 26.3v.2c1.3 12.1-.2 27.6-.2 27.7-.1.8.2 1.5.7 2.1.4.4 1 .7 1.6.7h.4c11.1-1.8 66.4-.5 67-.5h.1.1c.3 0 30-1.3 41.1.5h.4c.6 0 1.2-.2 1.6-.7.5-.5.8-1.3.7-2.1 0-.1-.9-8.9-.7-18.3 7.6-.4 31.7-1.3 41.6.9.2 0 .3.1.5.1.6 0 1.1-.2 1.6-.6.6-.5.9-1.3.8-2.1 0-.2-1.3-17.9-.5-34.1h11.4c1.3 0 2.4-1.1 2.4-2.5s-1.2-2.7-2.5-2.7zm-98.5 56.3c-2.9-.1-49.1-1.1-64.8.2.4-5.2 1-16.2-.1-25.7-0-1.6-1.3-32.6 3.8-47.3 1.2 1 2.1 1.5 2.2 1.6 1.2.6 2.6.2 3.2-1.1.6-1.2.2-2.7-1-3.4-.4-.2-8.7-5.1-9-20.4h105.9c-.4 4.8-2.3 15.4-11.5 20.8-1.1.7-1.6 2.2-.9 3.4.4.8 1.2 1.3 2.1 1.3.4 0 .8-.1 1.2-.3 1.4-.8 2.7-1.7 3.8-2.7 5.5 14.3 4.1 46.4 4.1 48.2-.2 2.2-.4 4.4-.5 6.6-.1.3-.2.6-.1 1 0 .2 0 .4.1.5-.2 7 .2 13.7.4 17.4-12.8-1.1-37.2-.1-38.9-.1zm82.7-57.3c-1.2 14-.4 30.4 0 37.2-11.5-1.6-31.9-.8-39.3-.4.1-1.5.2-3 .4-4.4 0-.1 0-.1 0-.2.1-1.5 1.7-36.4-4.9-51.6-.1-.2-.3-.5-.4-.7 7.1-9.1 6.7-20.7 6.7-21.3-.1-1.3-1.1-2.4-2.4-2.4h-88.6c.6-6.6 1.5-14 3.5-20.8 2.1 2.2 3.7 3.2 3.9 3.4 1.1.7 2.6.3 3.3-.9s.3-2.7-.9-3.4c-.1-.1-11.4-7-11.4-29.3h131.7c-.1 2.3-.5 6-1.6 10.2-2.3 9-6.7 15.6-13 19.7-1.1.7-1.5 2.3-.8 3.4.5.8 1.2 1.2 2 1.2.4 0 .9-.1 1.3-.4 2.6-1.7 4.8-3.7 6.7-5.8 5.2 21.8 3.8 64.6 3.8 66.5z"></path><path d="m86.1 93.8s19.7 18.5 6.7 34.4c-12.9 15.9-30 9.1-30 9.1.5.2 1.3 1.5 1.7 1.9 1.5 1.4 3 2.8 4.7 4 4.9 3.6 10.9 5.7 17 5 16.7-1.9 29.1-20.8 22.5-37-2.6-6.4-6.9-12-13-15-1.4-.7-2.9-1.2-4.4-1.5-.8-.2-1.6-.3-2.5-.4-.7-.3-2.4-.2-2.7-.5z" fill="#ffd100"></path><path d="m83.8 150.6c-5.4 0-11-1.9-16.1-5.6-1.8-1.3-3.5-2.7-5-4.2-.3-.3-.5-.6-.8-.9-.1-.2-.3-.4-.5-.6-1-.6-1.5-1.9-1-3.1.5-1.3 2-1.9 3.2-1.4 0 0 3.3 1.3 7.9 1.3 5.2 0 12.8-1.7 19.3-9.6 4.7-5.7 5.1-12.5 1.3-20.3-3.1-6.2-7.7-10.6-7.8-10.7-1-.9-1.1-2.5-.1-3.5.8-.8 1.9-1 2.9-.5h.9c.4 0 .8 0 1 .1 1.1.2 1.9.3 2.6.5 1.9.4 3.5 1 5 1.7 6.2 3.1 11.1 8.7 14.2 16.3 3.3 8.1 2.5 17.3-2.2 25.4-4.9 8.4-13.3 14-22.3 15.1-.8-0-1.6-0-2.5-0zm-13-9.5c4.9 3.4 10.1 5 15 4.4 7.5-.9 14.4-5.6 18.5-12.6 3.9-6.7 4.6-14.3 1.9-20.9-1.9-4.5-5.4-10.5-11.8-13.7-.5-.3-1.1-.5-1.7-.7 6.1 8.3 11 21.1 2 32.1-7.7 9.4-16.9 11.4-23.2 11.4-.2 0-.5 0-.7 0z"></path><path d="m51.1 79.6 7 14.4 15.5 2.3-11.2 11.2 2.6 15.8-13.9-7.5-13.9 7.5 2.7-15.8-11.3-11.2 15.6-2.3z" fill="#ffd100"></path><path d="m37.2 125.8c-.5 0-1-.2-1.5-.5-.8-.6-1.2-1.5-1-2.4l2.4-14.5-10.2-10.3c-.7-.7-.9-1.7-.6-2.6s1.1-1.6 2-1.7l14.2-2.1 6.4-13.2c.4-.9 1.3-1.4 2.2-1.4 1 0 1.8.5 2.2 1.4l6.4 13.2 14.3 2.1c.9.1 1.7.8 2 1.7s.1 1.9-.6 2.6l-10.4 10.2 2.4 14.5c.2.9-.2 1.9-1 2.4-.8.6-1.8.6-2.6.2l-12.7-6.8-12.7 6.8c-.4.3-.8.4-1.2.4zm-3.3-27.8 7.7 7.7c.6.6.8 1.4.7 2.2l-1.8 10.8 9.4-5c.7-.4 1.6-.4 2.4 0l9.4 5-1.8-10.8c-.1-.8.1-1.6.7-2.2l7.7-7.7-10.6-1.6c-.8-.1-1.5-.6-1.9-1.4l-4.7-9.7-4.7 9.7c-.4.7-1.1 1.3-1.9 1.4z"></path></svg>