<?xml version="1.0" encoding="UTF-8"?>
<svg xmlns="http://www.w3.org/2000/svg" height="165.188" viewBox="0 0 142.812 165.188" width="142.812">
  <path d="m45.893 107.624-7.24 9.108-18.334 15.298-15.181 7.007-2.452 7.707v12.729l2.919 4.437 15.145-.332 13.115.098 5.956-7.707 4.087-8.057 2.686-8.291 1.868 8.875 6.773 10.509 5.722 5.255 27.248-.856.311-9.03.351-4.944-.117-7.941-1.869-3.27-22.798-12.474-8.614-8.545z" fill="#ffd100"></path>
  <path d="m44.024 45.966-7.24 9.109-18.333 15.298-15.181 7.006-2.453 7.707v12.729l2.92 4.437 14.947 1.752 13.313-1.985 5.955-7.707 4.088-8.058 2.685-8.291 1.869 8.875 6.773 10.51 5.722 5.255 6.773.467 15.297-9.926 5.839-5.372-.117-7.941-1.868-3.269-23.589-11.328-7.824-9.692z" fill="#ffd100"></path>
  <path d="m84.343 71.439.13-.059c.373-.21 8.786-5.083 13.599-20.3 4.406 13.801 11.855 19.117 13.498 20.149.405.344.903.533 1.408.533h27.558c1.26 0 2.284-1.104 2.284-2.463v-24.666c0-1.166-.77-2.181-1.834-2.415-.22-.049-22.219-5.133-40.75-31.833-.108-.156-.234-.292-.37-.414.005-.047.012-.095.012-.143v-8.399c0-.502-.269-.973-.695-1.224-.427-.255-.983-.267-1.417-.029l-8.45 4.603c-.479.263-.764.764-.742 1.31.021.544.343 1.021.841 1.246l6.833 3.071c-18.525 26.677-40.515 31.764-40.737 31.813-1.062.232-1.832 1.247-1.832 2.415v7.558c-2.395-2.71-4.785-5.73-7.121-9.095-.099-.143-.216-.264-.338-.377v-.21c.012-.072.017-.145.017-.216v-8.401c0-.502-.269-.972-.695-1.224-.425-.256-.981-.267-1.416-.029l-8.45 4.603c-.479.262-.764.764-.742 1.309.021.544.343 1.021.841 1.246l6.96 3.128c-.05.058-.108.105-.153.169-18.518 26.683-40.526 31.784-40.749 31.834-1.062.231-1.833 1.247-1.833 2.414v24.666c0 1.357 1.024 2.462 2.284 2.462h27.262c.384 0 .771-.112 1.123-.324l.127-.058c.373-.209 8.784-5.077 13.599-20.299 3.913 12.254 10.22 17.812 12.733 19.627-1.01.32-1.582.452-1.616.459-1.062.231-1.832 1.247-1.832 2.414v4.443c-1.767-2.126-3.525-4.426-5.252-6.915-.154-.222-.347-.396-.554-.546v-7.8c0-.502-.269-.973-.696-1.225-.425-.254-.979-.264-1.414-.027l-8.45 4.603c-.479.262-.763.764-.742 1.309s.344 1.023.841 1.246l6.649 2.989c-18.438 26.196-40.138 31.236-40.359 31.286-1.062.232-1.833 1.248-1.833 2.415v24.666c0 1.357 1.024 2.462 2.283 2.462h27.262c.384 0 .771-.112 1.123-.324l.127-.058c.373-.209 8.784-5.077 13.599-20.299 4.405 13.795 11.856 19.117 13.499 20.149.404.344.902.532 1.408.532h27.557c1.259 0 2.284-1.104 2.284-2.462v-24.666c0-1.165-.77-2.18-1.834-2.416-.072-.016-2.465-.573-6.287-2.232h.334c.384 0 .771-.111 1.121-.323l.13-.06c.373-.209 8.786-5.082 13.599-20.3 4.406 13.8 11.855 19.117 13.498 20.149.405.344.903.533 1.408.533h27.558c1.26 0 2.284-1.104 2.284-2.463v-24.666c0-1.166-.77-2.18-1.834-2.415-.22-.048-22.218-5.132-40.75-31.833-.083-.119-.183-.214-.281-.313v-7.787c0-.503-.269-.974-.696-1.225-.425-.254-.979-.265-1.414-.027l-8.45 4.603c-.479.262-.763.764-.742 1.308.021.546.344 1.023.841 1.246l6.31 2.836c-2.189 3.104-4.422 5.92-6.661 8.454v-3.794c0-1.165-.77-2.18-1.834-2.416-.083-.019-3.331-.772-8.336-3.166h4.252c.379.001.765-.111 1.115-.322zm-18.18 28.108h-6.178c-9.961-6.6-13.029-24.207-13.34-26.141l.002-.043-.021-.072c-.017-.096-.044-.19-.067-.264-.019-.072-.04-.145-.06-.194-.032-.085-.071-.167-.125-.273l-.091-.169c-.048-.072-.099-.142-.167-.229l-.103-.128c-.072-.075-.149-.149-.223-.208l-.092-.08c-.087-.064-.18-.12-.284-.178l-.114-.062c-.093-.042-.189-.077-.266-.099-.056-.021-.113-.039-.162-.052l-.304-.043c-.114-.012-.154-.022-.422.005-.053.002-.105.005-.222.034-.052.011-.104.027-.206.06-.09.03-.177.062-.255.099-.051.024-.1.052-.12.067-.097.052-.189.107-.254.157-.043.03-.084.067-.172.147-.065.058-.127.116-.181.177-.039.043-.074.09-.109.139-.055.071-.107.14-.154.216-.03.049-.058.104-.115.225-.033.064-.064.13-.088.196-.019.051-.036.107-.065.21-.022.081-.044.159-.071.297-2.918 18.297-11.562 25.075-13.19 26.204h-24.376v-20.283c5.899-1.784 23.777-8.755 40.003-30.884 16.226 22.131 34.103 29.1 40.002 30.884v6.677c-6.74 6.599-13.261 10.892-18.41 13.608zm-20.307-26.43-.002.001zm53.515 27.573c-.089-.065-.182-.121-.27-.168l-.124-.067c-.093-.042-.188-.076-.272-.101l-.457-.093c-.061-.005-.122-.011-.184-.011l-.247.018c-.05.002-.102.006-.152.016l-.124.033c-.036.01-.078.023-.136.042-.091.029-.179.062-.26.1-.043.02-.083.043-.146.08-.088.05-.174.101-.248.157l-.169.147c-.056.05-.11.102-.173.171l-.137.178c-.04.053-.079.105-.115.164-.033.053-.062.111-.12.231-.033.065-.065.133-.08.175-.024.058-.044.124-.067.209-.026.089-.049.174-.055.217l-.024.104c-2.918 18.303-11.563 25.076-13.189 26.204h-8.97c-4.674-2.954-10.001-7.051-15.408-12.666v-7.619c5.9-1.784 23.779-8.757 40.003-30.884 16.223 22.125 34.102 29.099 40.002 30.884v20.285h-24.588c-2.074-1.399-10.458-8.083-13.36-26.257-.017-.093-.042-.183-.071-.281-.02-.072-.042-.143-.053-.166-.034-.092-.075-.178-.12-.264-.023-.051-.047-.101-.093-.179-.048-.075-.104-.148-.17-.233l-.101-.127c-.072-.076-.151-.15-.253-.237zm-51.712 31.86-.092-.08c-.086-.064-.18-.12-.284-.178l-.114-.062c-.094-.042-.19-.077-.266-.099-.057-.021-.114-.039-.163-.052l-.304-.042c-.114-.012-.154-.021-.422.005-.053.002-.105.005-.222.034-.052.011-.104.026-.205.059-.09.03-.177.062-.255.1-.051.024-.1.052-.12.066-.097.052-.19.108-.254.157-.043.03-.084.066-.172.147-.065.057-.127.116-.181.177-.038.044-.073.09-.108.14-.056.071-.107.14-.155.216-.03.049-.057.104-.115.225-.033.064-.065.13-.088.196-.02.051-.036.108-.065.211-.023.08-.045.159-.072.297-2.918 18.297-11.562 25.075-13.189 26.203h-24.376v-20.285c5.899-1.783 23.777-8.754 40.003-30.883 16.226 22.131 34.103 29.1 40.001 30.883v20.285h-24.588c-9.961-6.6-13.029-24.206-13.34-26.14l.002-.043-.021-.072c-.017-.096-.044-.189-.067-.264-.019-.072-.04-.145-.06-.194-.032-.085-.071-.167-.125-.273l-.091-.169c-.048-.072-.099-.142-.167-.23l-.102-.127c-.071-.074-.149-.149-.223-.208zm.066 1.29h-.002zm10.521-87.287c5.9-1.785 23.779-8.758 40.003-30.885 16.223 22.126 34.102 29.1 40.002 30.885v20.285h-24.588c-2.074-1.399-10.458-8.083-13.36-26.257-.017-.094-.042-.183-.071-.282-.02-.072-.042-.143-.053-.167-.034-.091-.075-.177-.12-.264-.023-.05-.047-.101-.093-.179-.048-.074-.104-.147-.17-.233l-.101-.127c-.072-.076-.151-.151-.253-.237l-.072-.06c-.089-.064-.182-.121-.27-.168l-.124-.068c-.093-.042-.188-.075-.272-.1l-.172-.051-.284-.042c-.061-.006-.122-.012-.184-.012l-.247.018c-.05.002-.102.006-.214.034-.052.01-.104.026-.197.057-.092.029-.179.062-.261.1-.043.02-.083.042-.146.08-.088.05-.174.101-.248.157l-.169.146c-.056.051-.11.102-.173.171l-.137.178c-.04.053-.079.106-.115.164-.033.053-.062.111-.12.231-.033.066-.065.134-.08.175-.025.059-.044.124-.067.209-.026.089-.049.175-.055.218l-.024.104c-2.917 18.304-11.561 25.076-13.188 26.204h-12.28c-3.759-2.497-7.884-5.721-12.097-9.846z"></path>
</svg>
