<svg xmlns="http://www.w3.org/2000/svg" height="245.516" viewBox="0 0 362.109 245.516" width="362.109"><path clip-rule="evenodd" d="m151.147 245.441c-24.058.039-39.688-2.454-53.818-11.012-31.191-18.899-34.115-66.319-5.342-88.808 7.021-5.487 14.943-9.81 22.039-15.197 15.955-12.101 17.313-24.802 4.709-40.07-18.711-22.671-17.904-48.034 2.819-69.062 15.913-16.142 35.229-24.745 58.047-19.894 24.464 5.199 30.653 17.5 29.86 34.939-.853 18.52 8.009 30.915 24.816 37.892 9.496 3.942 19.317 7.156 28.612 11.498 17.655 8.242 31.585 20.106 34.833 40.72 2.045 12.927-2.151 24.657-8.373 35.664-10.757 18.998-26.254 33.655-43.974 45.965-30.722 21.332-63.828 36.432-94.228 37.365z" fill="#6ecb98" fill-rule="evenodd"></path><path d="m117.84 123.675h-8.305c-1.402 0-2.555-.041-3.458-.125-.903-.083-1.575-.303-2.014-.659-.44-.356-.66-.95-.66-1.782 0-.974.558-3.944 1.675-8.911.546-2.424 1.034-4.788 1.461-7.093.475-2.59.736-5.204.784-7.842 0-3.089-.38-4.634-1.141-4.634-.808 0-1.842 2.02-3.101 6.06l-2.745 9.41c-.143.476-.428.832-.855 1.069-.428.238-.891.356-1.39.356-.476 0-.927-.119-1.354-.356-.428-.237-.725-.594-.891-1.069l-2.745-9.41c-1.26-4.04-2.293-6.06-3.101-6.06-.737 0-1.105 1.592-1.105 4.776.047 2.353.268 4.669.659 6.951.393 2.281.867 4.669 1.426 7.165.558 2.495 1.111 5.24 1.658 8.234.095.523.143.986.143 1.39 0 .832-.214 1.42-.642 1.764-.428.345-1.093.559-1.996.642-.903.084-2.067.125-3.493.125h-8.305c-1.973 0-3.381-.564-4.224-1.693-.844-1.128-1.325-2.821-1.444-5.079-.285-4.253-.428-8.329-.428-12.226 0-8.626.594-16.979 1.782-25.058.38-2.376 1.134-4.146 2.263-5.311 1.128-1.164 2.549-1.747 4.26-1.747h6.559c1.212 0 2.246.285 3.101.855 1.497.998 2.709 2.733 3.636 5.204.404 1.069.76 2.115 1.069 3.137.736 2.329 1.438 4.147 2.103 5.454.38.713.736 1.069 1.069 1.069s.689-.356 1.069-1.069c.665-1.283 1.354-3.089 2.067-5.418.333-1.021.701-2.067 1.105-3.137.404-1.069.903-2.067 1.497-2.994 1.307-2.067 3.053-3.101 5.24-3.101h6.594c1.687 0 3.101.583 4.242 1.747 1.141 1.165 1.889 2.935 2.246 5.311 1.188 8.08 1.782 16.432 1.782 25.058 0 3.897-.143 7.973-.428 12.226-.119 2.258-.601 3.951-1.444 5.079-.841 1.128-2.249 1.692-4.221 1.692z"></path><path d="m160.007 123.675c-2.281 0-4.016-.208-5.204-.624-1.188-.415-1.996-.938-2.424-1.568-.428-.629-.642-1.277-.642-1.942v-.428c0-.404-.066-.754-.196-1.052-.131-.296-.339-.445-.624-.445s-.63.214-1.034.642c-3.327 3.612-6.772 5.418-10.337 5.418-2.067 0-3.862-.457-5.382-1.372-1.521-.915-2.78-2.145-3.778-3.689s-1.741-3.291-2.228-5.24c-.488-1.948-.731-3.957-.731-6.024 0-2.59.433-4.835 1.301-6.737.867-1.901 2.043-3.469 3.528-4.705 1.485-1.235 3.173-2.15 5.062-2.745 1.89-.594 3.855-.891 5.899-.891l1.854.036c.879 0 1.747-.077 2.602-.231s1.562-.499 2.121-1.034c.558-.534.838-1.372.838-2.513 0-1.307-1.022-1.96-3.065-1.96-1.759 0-3.737.375-5.935 1.123-2.199.749-3.796 1.456-4.794 2.121-.642.428-1.295.642-1.96.642-1.212 0-2.335-.535-3.368-1.604-1.034-1.069-1.551-2.198-1.551-3.386 0-1.069.463-1.948 1.39-2.638 2.02-1.449 4.741-2.649 8.163-3.6 3.422-.95 6.951-1.426 10.586-1.426 4.135 0 7.467.654 9.999 1.96 2.53 1.307 4.461 3.083 5.792 5.329 1.331 2.245 2.239 4.824 2.727 7.734.487 2.912.731 5.995.731 9.25v1.39c0 2.234-.042 4.473-.125 6.719-.084 2.245-.125 4.45-.125 6.612l.036 2.032c0 .951-.463 1.794-1.39 2.531s-2.085 1.307-3.476 1.711c-1.39.403-2.81.604-4.26.604zm-14.828-17.822c1.996 0 4.051-.487 6.167-1.461.665-.356 1.105-.95 1.319-1.782s.321-1.734.321-2.709c0-.784-.024-1.533-.071-2.246-.048-.618-.071-1.158-.071-1.622 0-.463-.012-.784-.036-.962-.024-.179-.095-.268-.214-.268s-.333.095-.642.285c-.998.57-2.067.951-3.208 1.141-.951.167-1.913.297-2.887.392-1.117.071-2.156.214-3.119.428-.962.214-1.741.624-2.334 1.23-.594.605-.891 1.562-.891 2.869 0 1.117.255 2.02.767 2.709.51.689 1.194 1.194 2.049 1.515.854.321 1.804.481 2.85.481z"></path><path d="m210.587 123.711-5.311-.036c-1.474 0-2.869-.219-4.188-.659-1.318-.439-2.085-1.598-2.299-3.476-.071-1.354-.107-3.137-.107-5.347 0-3.873-.083-6.356-.25-7.45-.262-1.449-.684-2.542-1.266-3.279-.583-.736-1.182-1.105-1.8-1.105-.642 0-1.224.41-1.747 1.229-.523.82-.784 2.074-.784 3.761 0 2.495.143 4.955.428 7.378.19 1.877.285 3.422.285 4.634 0 1.378-.577 2.442-1.729 3.19-1.153.749-2.537 1.123-4.152 1.123h-6.309c-1.64 0-3.047-.576-4.224-1.729-1.176-1.152-1.848-2.929-2.014-5.329-.285-6.178-.428-12.345-.428-18.5 0-6.178.143-12.345.428-18.5.166-2.376.838-4.146 2.014-5.311 1.177-1.164 2.584-1.747 4.224-1.747h6.309c1.616 0 3 .369 4.152 1.105 1.152.737 1.729 1.806 1.729 3.208 0 2.828-.149 5.68-.446 8.555s-.445 5.751-.445 8.626c0 .879.202 1.533.606 1.96.404.428.879.642 1.426.642.522 0 1.051-.19 1.586-.57.534-.38.985-.944 1.354-1.693.368-.748.552-1.669.552-2.762 0-1.402-.167-3.303-.499-5.703-.285-1.996-.428-3.434-.428-4.313v-.927c0-1.925 1.877-2.887 5.632-2.887h5.846c1.021 0 1.984.202 2.887.606 2.043.903 3.065 3.564 3.065 7.984 0 6.107-2.852 10.396-8.555 12.868 2.78 1.236 4.978 2.917 6.594 5.043 1.616 2.127 2.762 4.391 3.44 6.791.677 2.4 1.016 4.562 1.016 6.487v2.317c0 1.117-.315 1.942-.944 2.478-.63.534-1.444.891-2.442 1.069-.996.18-2.065.269-3.206.269z"></path><path d="m228.445 86.462c-2.376 0-4.396-.677-6.06-2.032-1.664-1.354-2.495-2.994-2.495-4.919 0-1.901.832-3.534 2.495-4.901 1.663-1.366 3.683-2.05 6.06-2.05 2.353 0 4.36.684 6.024 2.05 1.663 1.367 2.495 3 2.495 4.901 0 1.925-.832 3.564-2.495 4.919-1.664 1.355-3.672 2.032-6.024 2.032zm3.564 37.213h-4.812c-1.664 0-3.119-.564-4.367-1.693-1.247-1.128-1.955-2.857-2.121-5.186-.214-5.513-.321-9.79-.321-12.832 0-3.73.083-6.475.25-8.234l.036-.784c.071-2.21.504-3.861 1.301-4.955.796-1.093 2.168-1.64 4.117-1.64h5.026c1.925 0 3.315.547 4.17 1.64s1.378 2.745 1.568 4.955l.25 2.21c.237 1.688.463 4.028.677 7.022s.344 7.224.392 12.689c0 1.545-.285 2.822-.855 3.832-.57 1.011-1.319 1.759-2.246 2.246-.926.487-1.948.73-3.065.73z"></path><path d="m279.702 123.747h-6.131c-.998 0-1.96-.095-2.887-.285-2.115-.38-3.196-1.77-3.244-4.17 0-4.301.059-7.877.178-10.729.119-2.994.178-5.857.178-8.59 0-4.016-.19-7.093-.57-9.232-.19-.95-.494-1.699-.909-2.246-.417-.546-1.04-.82-1.872-.82-1.022 0-1.824.505-2.406 1.515-.583 1.011-.993 2.347-1.23 4.01-.238 1.664-.356 3.481-.356 5.454 0 3.517.219 7.017.66 10.497.439 3.482.802 5.888 1.087 7.218.143.713.214 1.414.214 2.103 0 1.45-.416 2.668-1.248 3.653-.832.987-2.246 1.503-4.242 1.551l-4.135.036h-3.03c-1.901 0-3.261-.558-4.082-1.675-.819-1.117-1.325-2.792-1.515-5.026-.808-8.198-1.212-15.078-1.212-20.638 0-3.968.237-7.758.713-11.371.713-4.729 2.839-7.105 6.38-7.129l6.737-.071c1.045 0 1.847.22 2.406.66.558.44.932 1.033 1.123 1.782.19.748.285 1.586.285 2.513v.891c0 .404.095.606.285.606.261 0 .522-.19.784-.57.974-1.687 1.972-2.958 2.994-3.814 1.021-.855 2.108-1.414 3.261-1.675 1.152-.261 2.43-.392 3.832-.392 2.329 0 4.331.672 6.006 2.014 1.676 1.343 3.071 3.131 4.188 5.364 1.117 2.234 2.001 4.729 2.655 7.485.653 2.757 1.117 5.596 1.391 8.519.272 2.923.41 5.703.41 8.341 0 4.277-.25 7.723-.749 10.337-.214 1.117-.601 1.955-1.158 2.513-.559.559-1.242.927-2.05 1.104-.805.178-1.72.267-2.741.267z"></path><path d="m310.356 133.727c-2.852 0-5.626-.434-8.323-1.301-2.698-.868-4.901-2.139-6.612-3.814s-2.602-3.737-2.673-6.184c0-1.354.071-2.703.214-4.045s.469-2.454.98-3.333 1.313-1.319 2.406-1.319c.475 0 1.021.095 1.64.285 2.638.855 4.919 1.283 6.844 1.283 2.21 0 3.98-.416 5.311-1.248s2.293-1.83 2.887-2.994.891-2.246.891-3.244c0-.522.012-1.063.036-1.622.023-.558.036-1.052.036-1.479 0-.927-.107-1.39-.321-1.39-.238 0-.654.523-1.248 1.568-2.923 5.133-6.369 7.699-10.337 7.699-2.02 0-3.826-.528-5.418-1.586-1.592-1.057-2.941-2.459-4.045-4.206-1.105-1.746-1.949-3.707-2.531-5.881-.583-2.175-.873-4.39-.873-6.648 0-2.78.475-5.43 1.426-7.949.95-2.519 2.447-4.556 4.491-6.113 2.043-1.556 4.657-2.358 7.842-2.406 3.303 0 6.345.796 9.125 2.388.522.333.927.499 1.212.499.166 0 .344-.059.535-.178.19-.119.428-.309.713-.57l.356-.321c.689-.594 1.562-1.045 2.62-1.354 1.057-.309 2.085-.463 3.083-.463 2.376 0 4.117.273 5.222.82 1.104.547 1.829 1.165 2.174 1.854.344.689.529 1.295.553 1.818.285 3.018.522 7.248.713 12.689.19 5.442.339 10.622.445 15.541.107 4.919.161 7.806.161 8.662 0 2.281-.547 4.319-1.64 6.113-1.093 1.793-2.566 3.314-4.42 4.562-1.854 1.247-3.945 2.204-6.273 2.869-2.331.665-4.731.998-7.202.998zm-1.283-33.827c.642 0 1.259-.552 1.854-1.658.594-1.104 1.123-2.453 1.586-4.045s.825-3.166 1.087-4.723c.261-1.556.392-2.786.392-3.689v-.143c-1.236-1.141-2.412-1.711-3.529-1.711-1.046 0-1.889.404-2.531 1.212s-1.111 1.835-1.408 3.083c-.298 1.247-.446 2.548-.446 3.903 0 1.973.273 3.76.82 5.365.547 1.604 1.271 2.406 2.175 2.406z"></path><path d="m45.41 185.675h-8.305c-1.402 0-2.555-.041-3.458-.125-.903-.083-1.575-.303-2.014-.659-.44-.356-.66-.95-.66-1.782 0-.974.558-3.944 1.675-8.911.546-2.424 1.034-4.788 1.461-7.093.475-2.59.736-5.204.784-7.842 0-3.089-.38-4.634-1.141-4.634-.808 0-1.842 2.02-3.101 6.06l-2.745 9.41c-.143.476-.428.832-.855 1.069-.428.238-.891.356-1.39.356-.476 0-.927-.119-1.354-.356-.428-.237-.725-.594-.891-1.069l-2.745-9.41c-1.26-4.04-2.293-6.06-3.101-6.06-.737 0-1.105 1.592-1.105 4.776.047 2.353.268 4.669.659 6.951.393 2.281.867 4.669 1.426 7.165.558 2.495 1.111 5.24 1.658 8.234.095.523.143.986.143 1.39 0 .832-.214 1.42-.642 1.764-.428.345-1.093.559-1.996.642-.903.084-2.067.125-3.493.125h-8.304c-1.973 0-3.381-.564-4.224-1.693-.844-1.128-1.325-2.821-1.444-5.079-.285-4.253-.428-8.329-.428-12.226 0-8.626.594-16.979 1.782-25.058.38-2.376 1.134-4.146 2.263-5.311 1.128-1.164 2.549-1.747 4.26-1.747h6.559c1.212 0 2.246.285 3.101.855 1.497.998 2.709 2.733 3.636 5.204.404 1.069.76 2.115 1.069 3.137.736 2.329 1.438 4.147 2.103 5.454.38.713.736 1.069 1.069 1.069s.689-.356 1.069-1.069c.665-1.283 1.354-3.089 2.067-5.418.333-1.021.701-2.067 1.105-3.137.404-1.069.903-2.067 1.497-2.994 1.307-2.067 3.053-3.101 5.24-3.101h6.594c1.687 0 3.101.583 4.242 1.747 1.141 1.165 1.889 2.935 2.246 5.311 1.188 8.08 1.782 16.432 1.782 25.058 0 3.897-.143 7.973-.428 12.226-.119 2.258-.601 3.951-1.444 5.079-.842 1.128-2.25 1.692-4.222 1.692z"></path><path d="m78.595 185.675c-5.062-.095-9.292-1.253-12.689-3.476-3.398-2.221-5.959-5.115-7.681-8.679-1.724-3.564-2.584-7.307-2.584-11.228 0-2.828.463-5.578 1.39-8.252.927-2.673 2.329-5.079 4.206-7.218s4.235-3.837 7.075-5.097c2.839-1.259 6.161-1.889 9.963-1.889 3.992.071 7.212.862 9.66 2.37 2.447 1.51 4.259 3.559 5.436 6.149 1.176 2.59 1.823 5.525 1.942 8.804l.036 1.925c0 .523-.131.879-.392 1.069-.262.19-.654.285-1.176.285-1.141 0-2.673-.19-4.598-.57-3.185-.57-5.632-.855-7.343-.855l-.82.036c-2.091.143-3.654.766-4.687 1.872-1.034 1.104-1.551 2.323-1.551 3.653 0 1.307.481 2.478 1.443 3.511.963 1.034 2.394 1.586 4.295 1.658 1.544 0 2.923-.303 4.135-.909s2.293-1.242 3.244-1.907c.642-.428 1.229-.796 1.765-1.105.534-.309 1.039-.463 1.515-.463 1.093 0 2.198.445 3.315 1.337 1.117.891 2.043 1.99 2.78 3.297.736 1.307 1.105 2.602 1.105 3.885-.143 2.329-1.147 4.373-3.012 6.131-1.866 1.759-4.29 3.143-7.271 4.153-2.984 1.009-6.15 1.513-9.501 1.513zm-6.701-27.767c.19 0 .463-.154.82-.463 1.021-.903 2.228-1.526 3.618-1.871 1.39-.344 3.035-.517 4.937-.517.57 0 .915-.036 1.034-.107s.178-.25.178-.535l-.036-1.354c0-1.164-.119-2.281-.356-3.351-.238-1.069-.677-1.943-1.319-2.62-.642-.678-1.557-1.028-2.745-1.052-1.474 0-2.691.494-3.654 1.479-.962.986-1.681 2.275-2.156 3.867-.476 1.592-.725 3.339-.749 5.24 0 .856.143 1.284.428 1.284z"></path><path d="m159.758 185.747h-6.167c-1.069 0-2.127-.089-3.172-.268-1.046-.178-1.913-.588-2.602-1.229-.689-.642-1.058-1.616-1.105-2.923v-.677c0-1.925.214-5.049.642-9.375.214-2.139.41-4.402.588-6.79.178-2.389.267-4.83.267-7.325 0-1.283-.102-2.495-.303-3.636-.202-1.141-.529-2.067-.98-2.78-.452-.713-1.069-1.069-1.854-1.069-.903 0-1.581.873-2.032 2.62-.452 1.746-.749 3.974-.891 6.683s-.214 5.501-.214 8.376l.071 9.268c0 2.353-.083 4.094-.25 5.222-.167 1.129-.463 1.973-.891 2.531-.428.559-.969.927-1.622 1.104-.654.179-1.396.268-2.228.268h-5.489c-1.141 0-2.181-.101-3.119-.303-.939-.202-1.693-.647-2.264-1.337-.57-.689-.868-1.734-.891-3.137 0-.784.023-1.948.071-3.493.095-2.638.143-5.644.143-9.018 0-5.299-.226-9.541-.677-12.725-.57-4.04-1.568-6.06-2.994-6.06-.832 0-1.485.487-1.96 1.461-.476.975-.814 2.276-1.016 3.903-.202 1.628-.303 3.404-.303 5.329 0 3.564.202 7.124.606 10.676.404 3.553.749 5.994 1.034 7.325.143.713.214 1.414.214 2.103 0 .975-.178 1.854-.535 2.638s-.939 1.408-1.747 1.871c-.808.464-1.889.695-3.244.695l-7.058.036c-1.925 0-3.31-.558-4.153-1.675-.844-1.117-1.349-2.792-1.515-5.026-.808-8.127-1.212-14.971-1.212-20.531 0-4.016.237-7.842.713-11.478.713-4.729 2.839-7.105 6.38-7.129l6.63-.071c2.495 0 3.79 1.64 3.885 4.919.023.808.107 1.212.25 1.212s.356-.285.642-.855l.178-.285c.808-1.331 1.675-2.364 2.602-3.101.927-.736 1.907-1.235 2.941-1.497 1.033-.261 2.132-.392 3.297-.392 2.329 0 4.218.814 5.667 2.442s2.4 3.784 2.852 6.469c.333 1.735.736 2.602 1.212 2.602.618 0 1.342-1.105 2.174-3.315.879-2.21 1.948-3.909 3.208-5.097 1.259-1.188 2.631-2.001 4.117-2.441 1.484-.439 2.964-.66 4.438-.66 2.804.071 5.121 1.111 6.951 3.119 1.83 2.009 3.273 4.611 4.331 7.807 1.057 3.196 1.794 6.636 2.21 10.319.416 3.684.624 7.177.624 10.479 0 4.277-.238 7.723-.713 10.337-.214 1.117-.583 1.955-1.105 2.513-.523.559-1.183.927-1.978 1.104-.795.178-1.68.267-2.654.267z"></path><path d="m192.052 185.64h-1.854c-3.564 0-6.636-.564-9.214-1.693-2.579-1.128-4.699-2.691-6.362-4.688-1.664-1.996-2.894-4.307-3.689-6.933-.796-2.625-1.194-5.436-1.194-8.43 0-7.152 1.533-12.82 4.598-17.002 3.422-4.729 8.697-7.093 15.826-7.093h2.032c7.152 0 12.44 2.365 15.862 7.093 3.042 4.183 4.562 9.85 4.562 17.002 0 6.487-1.604 11.644-4.812 15.47-3.517 4.183-8.769 6.274-15.755 6.274zm-.856-14.365c.784 0 1.562-.374 2.334-1.123.772-.748 1.42-1.859 1.943-3.333.522-1.473.784-3.327.784-5.561v-1.675c0-2.305-.244-4.218-.731-5.739s-1.123-2.667-1.907-3.44c-.784-.771-1.592-1.158-2.424-1.158-.855 0-1.67.38-2.442 1.141s-1.402 1.913-1.889 3.458c-.488 1.545-.731 3.47-.731 5.774v1.675c0 2.21.261 4.052.784 5.525.522 1.474 1.17 2.584 1.943 3.333s1.552 1.123 2.336 1.123z"></path><path d="m223.811 185.711c-1.973 0-3.381-.558-4.224-1.675-.844-1.117-1.361-2.792-1.551-5.026-.808-8.198-1.212-15.078-1.212-20.638 0-3.968.237-7.758.713-11.371.309-2.376 1.021-4.153 2.139-5.329 1.117-1.177 2.531-1.776 4.242-1.8.855 0 1.502-.005 1.943-.018.439-.011.778-.023 1.016-.035.237-.012 1.473-.018 3.707-.018 1.996 0 3.196.82 3.6 2.459.19.761.285 1.616.285 2.566v.82c0 .404.095.606.285.606.285 0 .558-.19.82-.57 1.164-1.996 2.78-3.493 4.848-4.491s4.194-1.497 6.38-1.497c2.638 0 4.937.689 6.897 2.067 1.961 1.378 3 3.41 3.119 6.095 0 1.973-.583 3.916-1.747 5.828-1.165 1.914-2.566 3.5-4.206 4.759-1.64 1.26-3.172 1.889-4.598 1.889-1.331 0-2.329-.582-2.994-1.747-2.448-4.229-4.468-6.345-6.06-6.345-.951 0-1.664.719-2.139 2.156-.476 1.438-.725 3.393-.749 5.864 0 3.731.998 8.769 2.994 15.113.428 1.354.713 2.371.855 3.047.143.678.214 1.361.214 2.05 0 .975-.178 1.854-.535 2.638-.784 1.711-2.436 2.566-4.955 2.566-4.774.001-7.804.013-9.087.037z"></path><path d="m266.834 148.462c-2.376 0-4.396-.677-6.06-2.032-1.664-1.354-2.495-2.994-2.495-4.919 0-1.901.832-3.534 2.495-4.901 1.663-1.366 3.683-2.05 6.06-2.05 2.353 0 4.36.684 6.024 2.05 1.663 1.367 2.495 3 2.495 4.901 0 1.925-.832 3.564-2.495 4.919-1.664 1.355-3.671 2.032-6.024 2.032zm3.564 37.213h-4.812c-1.664 0-3.119-.564-4.367-1.693-1.247-1.128-1.955-2.857-2.121-5.186-.214-5.513-.321-9.79-.321-12.832 0-3.73.083-6.475.25-8.234l.036-.784c.071-2.21.504-3.861 1.301-4.955.796-1.093 2.168-1.64 4.117-1.64h5.026c1.925 0 3.315.547 4.17 1.64s1.378 2.745 1.568 4.955l.25 2.21c.237 1.688.463 4.028.677 7.022s.344 7.224.392 12.689c0 1.545-.285 2.822-.855 3.832-.57 1.011-1.319 1.759-2.246 2.246-.926.487-1.948.73-3.065.73z"></path><path d="m302.835 185.675c-5.062-.095-9.292-1.253-12.689-3.476-3.398-2.221-5.959-5.115-7.681-8.679-1.724-3.564-2.584-7.307-2.584-11.228 0-2.828.463-5.578 1.39-8.252.927-2.673 2.329-5.079 4.206-7.218s4.235-3.837 7.075-5.097c2.839-1.259 6.161-1.889 9.963-1.889 3.992.071 7.212.862 9.66 2.37 2.447 1.51 4.259 3.559 5.436 6.149 1.176 2.59 1.823 5.525 1.942 8.804l.036 1.925c0 .523-.131.879-.392 1.069-.262.19-.654.285-1.176.285-1.141 0-2.673-.19-4.598-.57-3.185-.57-5.632-.855-7.343-.855l-.82.036c-2.091.143-3.654.766-4.687 1.872-1.034 1.104-1.551 2.323-1.551 3.653 0 1.307.481 2.478 1.443 3.511.963 1.034 2.394 1.586 4.295 1.658 1.544 0 2.923-.303 4.135-.909s2.293-1.242 3.244-1.907c.642-.428 1.229-.796 1.765-1.105.534-.309 1.039-.463 1.515-.463 1.093 0 2.198.445 3.315 1.337 1.117.891 2.043 1.99 2.78 3.297.736 1.307 1.105 2.602 1.105 3.885-.143 2.329-1.147 4.373-3.012 6.131-1.866 1.759-4.29 3.143-7.271 4.153-2.984 1.009-6.15 1.513-9.501 1.513zm-6.701-27.767c.19 0 .463-.154.82-.463 1.021-.903 2.228-1.526 3.618-1.871 1.39-.344 3.035-.517 4.937-.517.57 0 .915-.036 1.034-.107s.178-.25.178-.535l-.036-1.354c0-1.164-.119-2.281-.356-3.351-.238-1.069-.677-1.943-1.319-2.62-.642-.678-1.557-1.028-2.745-1.052-1.474 0-2.691.494-3.654 1.479-.962.986-1.681 2.275-2.156 3.867-.476 1.592-.725 3.339-.749 5.24 0 .856.143 1.284.428 1.284z"></path><path d="m342.365 185.747c-3.089 0-5.983-.451-8.679-1.354-2.698-.903-4.866-2.264-6.505-4.081-1.64-1.818-2.483-4.082-2.531-6.791 0-1.378.125-2.857.374-4.438.25-1.58.665-2.928 1.248-4.045.582-1.117 1.372-1.675 2.37-1.675.499 0 1.069.202 1.711.606 5.465 3.446 9.469 5.168 12.012 5.168 1.069 0 1.616-.261 1.64-.784 0-.333-.232-.695-.695-1.087-.464-.393-1.159-.767-2.085-1.123-1.711-.618-3.535-1.337-5.471-2.156-1.938-.82-3.773-1.758-5.507-2.816-1.735-1.057-3.155-2.269-4.259-3.636-1.105-1.366-1.658-2.917-1.658-4.651 0-2.233.522-4.176 1.568-5.828 1.045-1.651 2.447-3.017 4.206-4.099 1.758-1.081 3.736-1.89 5.935-2.424 2.197-.535 4.461-.802 6.79-.802s4.61.267 6.844.802c2.233.534 4.242 1.318 6.024 2.353 1.782 1.033 3.208 2.316 4.277 3.85 1.069 1.532 1.604 3.297 1.604 5.293 0 1.592-.38 2.911-1.141 3.957s-1.729 1.818-2.905 2.317-2.406.749-3.689.749c-1.711 0-3.286-.446-4.723-1.336-1.438-.892-2.287-2.18-2.548-3.868l-.036-.749c0-.642.107-1.146.321-1.515.214-.368.451-.678.713-.927.261-.25.481-.517.66-.802.178-.285.279-.642.303-1.069 0-.784-.19-1.378-.57-1.782s-.855-.606-1.426-.606c-1.426 0-2.519.487-3.279 1.461-.761.975-1.141 2.139-1.141 3.493 0 1.568.433 2.87 1.301 3.903.867 1.034 1.99 1.938 3.369 2.709 1.378.773 2.863 1.503 4.456 2.192 1.331.57 2.638 1.188 3.921 1.854s2.441 1.426 3.476 2.281c1.033.855 1.865 1.877 2.495 3.065.629 1.188.944 2.602.944 4.242 0 2.376-.565 4.45-1.693 6.22-1.129 1.771-2.638 3.243-4.526 4.42-1.89 1.176-4.005 2.056-6.345 2.638-2.345.58-4.726.871-7.15.871z"></path></svg>