<?xml version="1.0" encoding="UTF-8"?>
<svg xmlns="http://www.w3.org/2000/svg" xmlns:xlink="http://www.w3.org/1999/xlink" version="1.1" id="Layer_1" x="0px" y="0px" width="325.333px" height="160.333px" viewBox="0 0 325.333 160.333" xml:space="preserve">
<path fill="#1D1D1B" d="M226.884,94.708l-0.396,2.876l-21.111-14.771l-0.001,0.004c-10.906-8.83-25.638-23.143-43.147-46.001v0.058  l-0.017-0.058c-17.464,22.8-32.163,37.095-43.062,45.931l-0.004-0.028L98.249,97.464l-0.396-2.876l-3.565,0.494l1.027,7.531  l3.633-0.014l-0.16-1.208c9.848-6.837,19.618-13.584,20.807-14.405c0.808,5.817,2.207,15.698,2.207,15.698h23.674  c11.894-8.52,16.604-33.48,16.73-34.161c1.289,5.927,6.46,26.782,16.76,34.161h23.675c0,0,1.396-9.843,2.203-15.665  c0.652,0.444,10.938,7.432,21.106,14.492l-0.16,1.208l3.633,0.014l1.027-7.531L226.884,94.708z"></path>
<g>
	<polygon fill="#1D1D1B" points="12.531,149.769 12.531,116.927 4.153,116.927 4.153,155.326 22.153,155.326 18.528,149.769  "></polygon>
	<rect x="23.702" y="128.098" fill="#1D1D1B" width="8.378" height="27.229"></rect>
	<path fill="#1D1D1B" d="M50.288,149.741c-1.861,0-2.802-0.931-2.82-2.792v-13.293h4.189l-0.028-5.557h-4.189v-5.585h-8.35v5.585   h-4.217v5.557l4.188,0.056l0.028,16.03c0.019,3.724,1.89,5.585,5.613,5.585h10.575l-3.621-5.585H50.288z"></path>
	<rect x="75.969" y="116.927" fill="#1D1D1B" width="8.378" height="38.399"></rect>
	<path fill="#1D1D1B" d="M149.177,130.192l-0.028-7.68c0-3.724-1.853-5.585-5.558-5.585h-16.784v38.399h16.784   c3.705,0,5.558-1.861,5.558-5.585v-8.434c0-3.221-1.63-5.073-4.888-5.558C147.539,135.303,149.177,133.45,149.177,130.192z    M140.771,146.948c0,1.862-0.932,2.792-2.793,2.792h-2.793v-11.199h2.793c1.861,0,2.793,0.94,2.793,2.821V146.948z M137.95,132.985   h-2.765v-10.473h2.793c1.844,0,2.765,0.931,2.765,2.792l0.028,4.859C140.771,132.045,139.831,132.985,137.95,132.985z"></path>
	<rect x="178.076" y="116.927" fill="#1D1D1B" width="8.378" height="38.399"></rect>
	<rect x="190.023" y="116.927" fill="#1D1D1B" width="8.378" height="38.399"></rect>
	<polygon fill="#1D1D1B" points="229.662,116.927 229.69,132.957 224.104,132.957 224.104,116.955 215.726,116.955 215.726,155.326    224.077,155.326 224.104,138.57 229.69,138.57 229.69,155.326 238.096,155.326 238.068,116.927  "></polygon>
	<path fill="#1D1D1B" d="M257.617,128.098h-11.198c-3.725,0.037-5.586,1.909-5.586,5.613l0.028,16.03   c0,3.724,1.861,5.585,5.585,5.585h11.171c3.742,0,5.613-1.853,5.613-5.558l-0.028-16.086   C263.202,129.959,261.34,128.098,257.617,128.098z M252.059,149.741h-0.056c-1.843,0-2.765-0.931-2.765-2.792l-0.028-10.473   c0-1.861,0.931-2.793,2.793-2.793c1.861,0,2.793,0.932,2.793,2.793l0.027,10.473C254.824,148.81,253.903,149.741,252.059,149.741z"></path>
	<rect x="312.677" y="116.927" fill="#1D1D1B" width="8.378" height="38.399"></rect>
	<path fill="#1D1D1B" d="M69.288,149.741c-1.861,0-2.802-0.931-2.82-2.792v-13.293h4.189l-0.028-5.557h-4.189v-5.585h-8.35v5.585   h-4.217v5.557l4.188,0.056l0.028,16.03c0.019,3.724,1.89,5.585,5.613,5.585h10.575l-3.621-5.585H69.288z"></path>
	<path fill="#1D1D1B" d="M163.067,149.803c-1.807,0-2.709-0.931-2.709-2.792v-2.793l8.183,0.028c3.854-0.019,5.78-1.88,5.78-5.585   v-4.887c0-3.724-1.861-5.585-5.585-5.585l-11.171-0.028c-3.724,0-5.585,1.862-5.585,5.585v16.058c0,3.724,1.853,5.585,5.558,5.585   h18.865l-3.605-5.585H163.067z M160.358,136.426c0-1.769,0.922-2.653,2.765-2.653c1.861,0,2.793,0.931,2.793,2.792   c0,1.694-0.932,2.542-2.793,2.542h-2.765V136.426z"></path>
	<path fill="#1D1D1B" d="M281.413,149.803c-1.861,0-2.802-0.931-2.82-2.792v-13.293h4.189l-0.028-5.557h-4.189v-5.585h-8.35v5.585   h-4.217v5.557l4.188,0.056l0.028,16.03c0.019,3.724,1.89,5.585,5.613,5.585h10.575l-3.621-5.585H281.413z"></path>
	<path fill="#1D1D1B" d="M97.984,149.72c-1.807,0-2.709-0.931-2.709-2.792v-2.793l8.183,0.028c3.854-0.019,5.78-1.88,5.78-5.585   v-4.887c0-3.724-1.861-5.585-5.585-5.585l-11.171-0.028c-3.724,0-5.585,1.862-5.585,5.585v16.058c0,3.724,1.853,5.585,5.558,5.585   h18.865l-3.605-5.585H97.984z M95.275,136.343c0-1.769,0.922-2.653,2.765-2.653c1.861,0,2.793,0.931,2.793,2.792   c0,1.694-0.932,2.542-2.793,2.542h-2.765V136.343z"></path>
	<path fill="#1D1D1B" d="M297.483,149.72c-1.807,0-2.709-0.931-2.709-2.792v-2.793l8.184,0.028c3.854-0.019,5.779-1.88,5.779-5.585   v-4.887c0-3.724-1.861-5.585-5.584-5.585l-11.172-0.028c-3.723,0-5.584,1.862-5.584,5.585v16.058c0,3.724,1.852,5.585,5.557,5.585   h18.865l-3.605-5.585H297.483z M294.774,136.343c0-1.769,0.922-2.653,2.766-2.653c1.861,0,2.793,0.931,2.793,2.792   c0,1.694-0.932,2.542-2.793,2.542h-2.766V136.343z"></path>
	<circle fill="#1D1D1B" cx="27.715" cy="120.839" r="4.083"></circle>
</g>
<g>
	<path fill="#FFD203" d="M161.014,3.411c-32.251,0-59.003,23.519-64.055,54.34c0.063-0.003,0.123-0.009,0.188-0.009h39.05   c7.732-7.882,16.459-17.808,26.015-30.284l0.017,0.057v-0.057c9.556,12.476,18.283,22.401,26.014,30.284h36.824   C220.011,26.926,193.26,3.411,161.014,3.411z"></path>
	<path fill="#FFD203" d="M225.843,62.781h-32.512c2.575,2.472,5.019,4.702,7.326,6.71h25.188c0.055-1.1,0.084-2.208,0.084-3.323   C225.93,65.032,225.901,63.903,225.843,62.781z"></path>
	<path fill="#FFD203" d="M213.653,81.358h9.863c0.576-2.187,1.047-4.416,1.395-6.684h-20.076L213.653,81.358z"></path>
	<path fill="#FFD203" d="M221.084,88.833l0.161,0.02c0.282-0.715,0.53-1.449,0.739-2.201l-3.332-0.021L221.084,88.833z"></path>
</g>
<g>
	<path fill="#FFD203" d="M96.423,62.781h34.257c-2.713,2.472-5.288,4.702-7.719,6.71H96.42c-0.058-1.1-0.088-2.208-0.088-3.323   C96.332,65.032,96.362,63.903,96.423,62.781z"></path>
	<path fill="#FFD203" d="M110.75,81.25l-11.875,0.108c-0.607-2.187-1.103-4.416-1.469-6.684h21.154L110.75,81.25z"></path>
	<path fill="#FFD203" d="M101.438,88.833l-0.17,0.02c-0.297-0.715-0.559-1.449-0.779-2.201L104,86.63L101.438,88.833z"></path>
</g>
</svg>
