<svg xmlns="http://www.w3.org/2000/svg" viewBox="0 0 175.4 164.8"><path d="m22.3 125.4c-6.9-.2-13-7.4-16.2-13.3-3.4-6.3-4.1-16.6-1.6-23.3 3.8-10.4 12.2-15.6 21.6-20.5 10.1-5.3 20.8-7.6 32.2-7.3 4.1.1 8.1.9 11.9 2.6 2.6 1.2 5.9 3.7 8.7 4.2 2.9.5 7.5-3.6 10.6-5.2 5.7-2.9 12-5.5 18.5-6.8 8.6-1.7 17.5-1.2 26 .3 5.3.9 9.3 1.7 14.2 4.1 2.3 1.1 9.2 3.6 9.8 6.2 7.6 2.9 12.1 11.3 13.7 18.9 1.1 5.2 1.5 10.5-.3 15.6-1.8 5.2-5.2 12-9.8 15.3-2.8 2.1-7 2.6-9.6 4.8-.9.8-.7 0-1.2 1.1-.4.8 0 2.7 0 3.6v7.7c0 6.1.2 12.2.3 18.2 0 3.3.9 9.9-2.8 10.6-2.7.5-6-.7-8.6-1-2.3-.3-4.6-.3-6.9-.3-5.2 0-10.4.4-15.6.5-2.8.1-5.5 0-8.3 0-4.3 0-8.6 1.2-12.8.8-5.5-.6-10.7-.8-16.2-.8-15 0-30.1.7-45.1.5-2.5 0-7.2-.1-9.5-1.3-3.4-1.9-2-10.9-1.8-14.5.2-6 2.8-16.3-1.3-21.5" fill="#fff"></path><g clip-rule="evenodd" fill="#ffd100" fill-rule="evenodd"><circle cx="56.2" cy="34.5" r="24.8"></circle><circle cx="115.2" cy="27.4" r="24.8"></circle><circle cx="88.7" cy="91" r="16.9"></circle></g><path d="m175 86.6c-1.5-8.8-8.5-18.3-14.6-23.1-8.2-6.5-20.3-10.7-32.3-11.9 8.6-4.6 14.5-13.7 14.5-24.2 0-15.1-12.3-27.4-27.4-27.4s-27.4 12.3-27.4 27.4c0 12 7.8 22.2 18.5 25.9-8.2 2.1-20.7 6.4-25.6 12-4.3-3-9.9-4.8-13.9-5.7 9.8-4.2 16.7-13.9 16.7-25.2 0-15.1-12.3-27.4-27.4-27.4s-27.3 12.4-27.3 27.5c0 10.7 6.1 20 15.1 24.5-10.9 1.5-21.5 5.6-28.9 11.4-6 4.8-13 14.3-14.5 23.1-1.5 8.4.6 17.6 5.5 24.6 3.9 5.5 9.1 9 15.1 10.2v33.9c0 1.4 1.2 2.6 2.6 2.6h127.9c1.4 0 2.6-1.2 2.6-2.6v-40.8c6.1-1.2 11.5-4.7 15.4-10.3 4.8-6.9 6.9-16.1 5.4-24.5zm-82-59.2c0-12.3 10-22.3 22.3-22.3s22.3 10 22.3 22.3-10 22.3-22.3 22.3-22.3-10-22.3-22.3zm15 99.9v32.1h-37.8v-31.6c0-.8-.3-1.5-.9-2l-13.4-11.1c-1.1-.9-2.3-1.8-3.5-2.7-4.5-3.4-9.2-6.9-9.2-11.8 0-3.4 1.4-4.9 4.6-5.1 4.1-.2 8.3 3.6 12 6.9 1.2 1 2.3 2 3.4 2.9 2.9 2.3 5.7 4.5 8.6 6.8l2.8 2.2c.8.7 2 .7 2.9.2 4.3-2.4 8.7-3.7 13.1-3.7 6.7 0 11.1 3 11.2 3 .9.7 2.2.6 3.1-.1l11.7-9.3c1.1-.9 2.3-2 3.4-3 3.2-3 6.6-6.1 10.4-6.1h.2c1.7 0 3.2.8 4.3 2.1s1.5 2.9 1.2 4.6c-.8 5.1-5.6 8.3-10.3 11.3-1.3.8-2.6 1.7-3.7 2.6-2.8 2.1-5.6 4.2-8.5 6.3l-4.4 3.3c-.8.6-1.2 1.3-1.2 2.2zm-19.3-22.1c-7.9 0-14.3-6.4-14.3-14.3s6.4-14.3 14.3-14.3 14.3 6.5 14.3 14.4-6.4 14.2-14.3 14.2zm-54.8-70.7c0-12.3 10-22.3 22.3-22.3s22.3 10 22.3 22.3-10 22.3-22.3 22.3-22.3-10-22.3-22.3zm-10.3 51.6c-1.4 0-2.6 1.2-2.6 2.6v34.3c-5.3-1.5-8.8-5-10.9-7.9-4.1-5.8-5.9-13.7-4.7-20.7 1.3-7.2 7.4-15.8 12.7-19.9 10.8-8.5 28.8-12.8 43.8-10.5 7.1 1.1 16.2 4.1 19.4 9-7 2.9-12 9.9-12 18 0 7.1 3.8 13.3 9.5 16.7-.8.3-1.6.7-2.4 1.1l-1.5-1.2c-2.9-2.3-5.7-4.5-8.6-6.8-1-.8-2-1.7-3.1-2.7-4.5-4-9.6-8.5-15.7-8.2-5.9.3-9.4 4.1-9.5 10.2-.1 7.5 6.2 12.2 11.3 16 1.2.9 2.3 1.7 3.3 2.5l12.4 10.4v30.7h-38.8v-71c0-1.5-1.2-2.6-2.6-2.6zm141.7 22.1c-2.1 3-5.7 6.6-11.2 8v-34c0-1.4-1.2-2.6-2.6-2.6s-2.6 1.2-2.6 2.6v77.5h-35.8v-31.1l3.4-2.5c2.8-2.1 5.6-4.2 8.4-6.3 1.1-.8 2.3-1.6 3.5-2.4 5.3-3.5 11.3-7.5 12.5-14.8.5-3.1-.3-6.3-2.4-8.7-2-2.4-5-3.9-8.1-3.9h-.3c-5.9 0-10.2 3.9-13.9 7.4-1.1 1-2.1 1.9-3.1 2.7l-10.3 8.2c-.8-.4-1.8-.9-3-1.3 5-3.5 8.3-9.3 8.3-15.9 0-10.7-8.7-19.4-19.4-19.4-.8 0-1.5.1-2.3.1v-.1c-.5-1-1.1-1.9-1.8-2.7 4.3-5.2 21.1-10.6 28.9-11.8 15-2.3 33 2 43.7 10.5 5.2 4.1 11.4 12.7 12.7 19.9 1.2 6.8-.5 14.8-4.6 20.6z"></path></svg>