<svg xmlns="http://www.w3.org/2000/svg" viewBox="0 0 186.4 165.9"><path d="m92.8 43c7-2.6 13.2-3.2 13.2-3.2s-14.1-31.6 16.7-36.8c29.8-5.1 29.8 26.5 29.8 26.5s41.1 9.3 29.2 47.8c-2.8 9.2-8.3 19.1-17.1 23.1-5.3 2.4-12.9 3.8-18.7 2.6-5.1-1.1-9.7-3.8-14.2-6.5-1-.6-8.6-6-9-5.6 0 0-7.8 7-17.4 9.1" fill="#ffd100"></path><path d="m35.1 49.7s-14.1-31.6 16.8-36.8c29.8-5.1 29.8 26.5 29.8 26.5s41.1 9.3 29.2 47.8c-2.8 9.2-8.3 19.1-17.1 23.1-5.3 2.4-12.9 3.8-18.7 2.6-5.1-1.1-9.7-3.8-14.2-6.5-1-.6-8.6-6-9-5.6 0 0-33 25.1-46.5-9.8-14.5-37.5 29.7-41.3 29.7-41.3z" fill="#ffd100"></path><path d="m182 47.2c-7.4-12.8-21.9-18.1-27.1-19.6-.3-4.4-2-15.4-10-22.2-5.7-4.8-13.3-6.4-22.6-4.8s-15.8 5.6-19.3 12.1c-4.8 9-2.2 20-.5 25.2-2.5.4-6.3 1.3-10.3 2.8-3.4-1.7-6.4-2.7-8.2-3.3-.2-2.6-.9-7.6-3.1-12.6-5-11.7-15.4-16.8-29.5-14.4-9.3 1.6-15.8 5.6-19.3 12.1-4.8 9-2.2 20-.5 25.2-6.5 1.1-21 4.8-28 15.9-4.7 7.6-5 17.1-.7 28.2 3.5 9.2 10.8 20.1 25.1 20.1 8.5 0 16.5-3.9 21.1-6.6.2 9.6.1 36.7-7.2 57.3-.3.8-.2 1.6.3 2.2.5.7 1.2 1 2 1h24.8c.7 0 1.4-.3 1.8-.8s.7-1.2.6-1.9l-6.3-51.4c2.9 1.5 5.9 2.8 9.1 3.5 1.6.4 3.4.5 5.3.5 4.9 0 10.5-1.2 15-3.3 5-2.3 8.8-6.1 11.7-10.3 5.6-1.3 10.6-4.1 13.8-6.3.2 9.9 0 36.6-7.2 56.8-.3.8-.2 1.6.3 2.2.5.7 1.2 1 2 1h24.8c.7 0 1.4-.3 1.8-.8s.7-1.2.6-1.9l-6.3-51.4c2.9 1.5 5.9 2.8 9.1 3.5 1.7.4 3.6.6 5.4.6 5.6 0 11.2-1.6 14.9-3.3 10.9-5 16.2-17.6 18.4-24.6 3.9-11.6 3.2-22-1.8-30.7zm-134.1 113.8c6.5-20.8 6.7-45.8 6.4-55.5l1.5.7 4.3 2.8 6.4 52zm44.8-53c-5.3 2.4-12.4 3.4-17.2 2.4-4.7-1-9.2-3.6-13.4-6.2-.2-.1-.8-.5-1.6-1-6.7-4.6-7.6-4.9-8.7-4.9-.5 0-1.1.2-1.6.5-.1.1-11 8.2-22.2 8.2-9.3 0-16.2-5.7-20.5-17-3.6-9.6-3.5-17.6.4-23.8 7.6-12.1 27.2-14 27.4-14 .8-.1 1.5-.5 1.9-1.2s.5-1.5.1-2.2c-.1-.1-6.1-14.1-.8-23.9 2.7-5 8-8.2 15.8-9.5 2-.3 4-.5 5.8-.5 20.9 0 21.2 23.6 21.2 24.6 0 1.2.8 2.1 1.9 2.4.2 0 17.9 4.2 25.7 17.7 4.3 7.5 4.9 16.6 1.7 27-2 6.1-6.7 17.3-15.9 21.4zm26 43.1c6.5-20.8 6.7-45.8 6.4-55.5l1.5.7 4.3 2.8 6.4 52zm60.7-74.5c-1.9 6.3-6.6 17.4-15.8 21.6-5.4 2.5-12.4 3.4-17.2 2.4-4.7-1-9.2-3.6-13.4-6.2-.2-.1-.8-.5-1.6-1-7.2-4.9-8.5-5.8-10.4-4.3-.1.1-4.7 4.2-11 6.8 1.4-2.9 2.4-5.8 3.1-8 3.6-11.8 2.9-22.2-2.1-30.9-3.4-5.8-8.2-10.1-13-13.1 4.6-1.3 8-1.6 8.1-1.6.8-.1 1.5-.5 1.9-1.2s.5-1.5.1-2.2c-.1-.1-6.1-14.1-.8-23.9 2.7-5 8-8.2 15.8-9.5s14.1-.1 18.6 3.7c8.2 6.9 8.4 20.2 8.4 20.3 0 1.2.8 2.1 1.9 2.4.2 0 17.9 4.2 25.7 17.7 4.4 7.5 4.9 16.6 1.7 27z"></path><path d="m88.3 60.7c-1-.9-2.6-.7-3.5.3s-.7 2.6.3 3.5c5.3 4.4 7 10.4 4.6 16-2 4.7-7.3 9-14.5 8.1-1.4-.2-2.6.8-2.7 2.2-.2 1.3.8 2.6 2.2 2.7.8.1 1.5.1 2.3.1 7.6 0 14.4-4.3 17.3-11.2 3.2-7.5 1-15.9-6-21.7z"></path><path d="m161.3 51.4c-1-.9-2.6-.7-3.5.3s-.7 2.6.3 3.5c5.3 4.4 7 10.4 4.6 16-2 4.7-7.3 9-14.5 8.1-1.4-.2-2.6.8-2.7 2.2-.2 1.3.8 2.6 2.2 2.7.8.1 1.5.1 2.3.1 7.6 0 14.4-4.3 17.3-11.2 3.2-7.6.9-15.9-6-21.7z"></path><g fill="#fff"><path d="m47.9 161c6.5-20.8 6.7-45.8 6.4-55.5l1.5.7 4.3 2.8 6.4 52z"></path><path d="m118.7 151.1c6.5-20.8 6.7-45.8 6.4-55.5l1.5.7 4.3 2.8 6.4 52z"></path></g></svg>