<svg xmlns="http://www.w3.org/2000/svg" height="65.917" viewBox="0 0 136.162 65.917" width="136.162"><path d="m132.597 57.892-.396 2.876-21.111-14.771-.001.004c-10.906-8.83-25.638-23.143-43.147-46.001v.058l-.017-.058c-17.464 22.8-32.163 37.095-43.062 45.931l-.004-.028-20.898 14.745-.396-2.876-3.565.494 1.027 7.531 3.633-.014-.16-1.208c9.848-6.837 19.618-13.584 20.807-14.405.808 5.817 2.207 15.698 2.207 15.698h23.674c11.894-8.52 16.604-33.48 16.73-34.161 1.289 5.927 6.46 26.782 16.76 34.161h23.675s1.396-9.843 2.203-15.665c.652.444 10.938 7.432 21.106 14.492l-.16 1.208 3.633.014 1.027-7.531z" fill="#1d1d1b"></path></svg>