<svg xmlns="http://www.w3.org/2000/svg" height="147.219" viewBox="0 0 155 147.219" width="155"><path d="m53 20.729c-8.341 0-16.733.657-25.057 1.008-6.964.293-16.052-.631-21.026 5.308-9.387 11.21.86 30.681 8.824 39.748 4.266 4.856 9.136 9.713 12.518 15.27 3.505 5.759 4.43 13.159 4.74 19.651.363 7.619.998 15.703-.081 23.09-.847 5.803-.455 12.73-.201 18.542 6.914.365 13.586.718 20.666.717 8.575-.001 17.06 1.188 25.552.333 8.381-.844 16.631-.333 25.072-.333 5.653 0 13.412-1.821 18.61.3.324-6.434.719-13.091-.21-19.367-.985-6.652.26-13.167.26-19.859 0-6.292.968-12.186 2.759-18.057 2.513-8.241 9.237-11.089 14.176-17.693 8.695-11.628 14.853-25.12 10.398-39.324-2.175-6.935-10.362-7.163-16.834-8.416-9.773-1.892-19.69-1.065-29.458-.541 1.498 7.035-2.307 13.863-1.326 20.907 4.295.222 7.527.789 11.681 1.8 4.404 1.072 8.729.074 13.219.293 1.354 6.185-10.72 10.268-14.949 12.292-7.087 3.393-14.997 5.987-22.75 7.599-4.699.977-9.828.265-14.596.716-4.001.379-10.009 1.44-13.923-.041-3.79-1.434-8.059-4.533-11.625-6.433-3.711-1.978-7.353-4.081-11.098-5.925-4.248-2.091-6.931-5.268-9.841-8.884 6.478 1.429 17.635 2.778 24.115.574.23-4.35-.902-8.277-.95-12.608-.04-3.856.796-7.376 1.335-10.334" fill="#fff"></path><path d="m30.667 140.729c-.691-16.199 4.358-33.903-.835-49.648-2.796.769-5.191 1.922-6.765 3.647-1.875 2.055-1.885 5.386-2.4 8.002-.711 3.61-.963 7.31-1 11.073-.078 8.013.012 16.133.333 24.167.183 4.566.057 6.681 5.339 6.424 2.263-.11 4.487-.186 6.719-.238-.838-.912-1.336-2.13-1.391-3.427z" fill="#ffd700"></path><path d="m133.667 97.729.333 2.333c-.313-2.438-2.794-5.601-4.685-7.267-1.64-1.444-3.449-1.786-5.407-1.825-.629 16.919 1.259 33.881-.575 50.758-.146 1.338-.625 2.492-1.395 3.36 1.765.049 3.529.06 5.298-.028 6.798-.338 8.761-2.265 8.763-9.091.005-12.183 2.98-26.909-2.332-38.24z" fill="#ffd700"></path><g stroke="#000" stroke-miterlimit="10" stroke-width="5"><ellipse cx="77.504" cy="31.315" fill="#ffd700" rx="26.127" ry="28.752"></ellipse><path d="m83.794 144.729h-51.771c0-17.108 2.034-35.757.175-52.688-.923-8.417-7.111-13.854-12.214-19.448-5.509-6.038-10.616-12.603-13.816-20.481-5.333-13.133-6.034-28.921 10.194-30.037 11.637-.8 24.318-1.391 35.982-.61" fill="none" stroke-linecap="round" stroke-linejoin="round"></path><path d="m53.07 43.828h-26.611s18.708 21.032 51.852 21.032" fill="none" stroke-linecap="round" stroke-linejoin="round"></path><path d="m31.418 90.285s-11.733 2.53-11.733 15.575v38.87h12.338" fill="none" stroke-linecap="round" stroke-linejoin="round"></path><path d="m79.701 144.729h43.546c0-17.108-2.034-35.757-.175-52.688.923-8.417 7.111-13.854 12.214-19.448 5.509-6.039 10.616-12.604 13.815-20.481 5.333-13.133 6.034-28.921-10.194-30.037-11.637-.8-24.318-1.391-35.982-.61" fill="none" stroke-linecap="round" stroke-linejoin="round"></path><path d="m102.199 43.828h26.611s-16.451 21.032-49.594 21.032" fill="none" stroke-linecap="round" stroke-linejoin="round"></path><path d="m123.851 90.285s11.733 2.53 11.733 15.575v38.87h-12.338" fill="none" stroke-linecap="round" stroke-linejoin="round"></path><path d="m64.333 36.062s12.333 25.083 26.333 0z" fill="#fff" stroke-linecap="round" stroke-linejoin="round"></path><path d="m47.167 58.062c18.833 8.667 26.945 21.874 30.342 35.919" fill="none" stroke-linecap="round" stroke-linejoin="round"></path><path d="m108.5 58.729c-18.5 8-26.937 21.207-30.333 35.252" fill="none" stroke-linecap="round" stroke-linejoin="round"></path><circle cx="76.831" cy="108.614" fill="#ffd700" r="5.879" stroke-linecap="round" stroke-linejoin="round"></circle><circle cx="76.831" cy="128.614" fill="#ffd700" r="5.879" stroke-linecap="round" stroke-linejoin="round"></circle></g></svg>