<svg xmlns="http://www.w3.org/2000/svg" height="148.453" viewBox="0 0 141.417 148.453" width="141.417"><g fill="#fff"><path d="m108.876 62.976c-.65 2.02-2.229 3.402-3.637 4.866-1.449 1.506-2.308 3.512-4.163 4.631 2.382-.049 3.343.701 4.664 2.764 1.074 1.678 1.45 3.67 2.768 5.073.992-1.382 1.323-2.84 2.47-4.148.786-.896 4.726-3.666 4.623-4.681-.029-.285-1.404-1.525-1.652-1.873-.641-.9-1.12-1.831-1.631-2.822-.798-1.548-1.39-3.065-2.789-3.974"></path><path d="m83 36.062c-.994 3.087-3.408 5.201-5.56 7.438-2.215 2.303-3.527 5.368-6.364 7.08 3.641-.076 5.11 1.072 7.129 4.225 1.642 2.564 2.217 5.611 4.232 7.755 1.516-2.113 2.021-4.342 3.775-6.341 1.202-1.37 7.225-5.604 7.067-7.156-.044-.436-2.146-2.331-2.525-2.863-.98-1.376-1.712-2.799-2.493-4.313-1.221-2.367-2.125-4.686-4.263-6.074"></path><path d="m116.75 14.312c-.994 3.087-3.408 5.201-5.56 7.438-2.215 2.303-3.527 5.368-6.364 7.08 3.641-.076 5.11 1.072 7.129 4.225 1.642 2.564 2.217 5.611 4.232 7.755 1.516-2.113 2.021-4.342 3.775-6.341 1.202-1.37 7.225-5.604 7.067-7.156-.044-.436-2.146-2.331-2.525-2.863-.98-1.376-1.712-2.799-2.493-4.313-1.221-2.367-2.125-4.686-4.263-6.074"></path></g><path d="m52.346 38.456c0-11.487 2.609-22.363 7.261-32.074-31.172 6.777-54.595 34.569-54.595 67.741 0 38.23 31.103 69.333 69.334 69.333 24.014 0 45.21-12.276 57.657-30.877-1.76.125-3.531.21-5.323.21-41.054.001-74.334-33.28-74.334-74.333z" fill="#ffd700"></path><path d="m135.244 107.242c-2.809.348-5.662.548-8.563.548-38.231 0-69.334-31.103-69.334-69.333 0-11.987 3.06-23.272 8.437-33.119 1-1.832 2.084-3.61 3.24-5.337-2.151.152-4.28.382-6.376.714-35.495 5.612-62.636 36.337-62.636 73.408 0 41.053 33.28 74.333 74.334 74.333 27.272 0 51.1-14.696 64.034-36.591 1.088-1.842 2.109-3.728 3.039-5.668-2.027.441-4.087.786-6.175 1.045zm-60.898 36.215c-38.231 0-69.334-31.103-69.334-69.333 0-33.172 23.423-60.964 54.595-67.741-4.652 9.711-7.261 20.587-7.261 32.074 0 41.053 33.28 74.333 74.334 74.333 1.792 0 3.563-.086 5.323-.21-12.447 18.601-33.643 30.877-57.657 30.877z"></path><path d="m129.082 26.075c-8.117-6.628-10.172-14.803-10.2-14.917-.301-1.273-1.528-2.073-2.799-1.885-1.26-.172-2.465.625-2.767 1.884-.02.082-2.067 8.276-10.2 14.918-.666.544-1.002 1.395-.896 2.248.107.854.648 1.594 1.428 1.958.381.178 9.326 4.456 9.451 13.744.019 1.369 1.134 2.466 2.5 2.466h.034c.16-.002.315-.023.466-.054.151.031.306.052.466.054h.034c1.365 0 2.481-1.097 2.5-2.466.125-9.289 9.07-13.566 9.443-13.741.785-.359 1.329-1.099 1.438-1.955.109-.855-.23-1.707-.898-2.254zm-12.984 9.667c-1.95-3.858-4.944-6.523-7.216-8.128 3.544-3.483 5.807-7.083 7.216-9.921 1.41 2.839 3.672 6.438 7.216 9.921-2.272 1.605-5.266 4.27-7.216 8.128z"></path><path d="m85.826 34.091c-.303-1.279-1.541-2.083-2.819-1.882-1.26-.176-2.474.619-2.779 1.881-.018.073-1.84 7.343-9.06 13.239-.668.546-1.008 1.398-.898 2.254.109.856.653 1.595 1.438 1.955.082.038 8.208 3.857 8.318 12.092.019 1.369 1.134 2.466 2.5 2.466h.034c.16-.002.315-.023.466-.054.151.031.306.051.466.054h.034c1.365 0 2.481-1.097 2.5-2.466.11-8.162 7.991-11.938 8.318-12.092.785-.359 1.329-1.099 1.438-1.955.11-.856-.229-1.708-.898-2.254-7.185-5.869-9.024-13.1-9.058-13.238zm-2.799 21.665c-1.7-3.188-4.164-5.454-6.125-6.879 2.934-2.937 4.871-5.949 6.125-8.399 1.255 2.45 3.191 5.463 6.125 8.399-1.961 1.425-4.425 3.69-6.125 6.879z"></path><path d="m111.369 59.333c-.304-1.278-1.538-2.081-2.819-1.88-1.28-.2-2.521.606-2.821 1.89-.014.06-1.459 6.013-7.516 10.958-.669.546-1.008 1.398-.898 2.254.109.856.653 1.595 1.438 1.955.067.031 6.707 3.152 6.797 9.863.019 1.369 1.134 2.466 2.5 2.466h.034c.16-.002.315-.022.466-.054.151.031.306.052.466.054h.034c1.365 0 2.481-1.097 2.5-2.466.09-6.64 6.534-9.738 6.798-9.863.785-.359 1.329-1.099 1.438-1.955.11-.856-.229-1.708-.898-2.254-5.953-4.861-7.489-10.846-7.519-10.968zm-2.819 17.725c-1.344-2.315-3.138-4.031-4.662-5.191 2.143-2.212 3.633-4.457 4.662-6.368 1.029 1.911 2.519 4.156 4.662 6.368-1.524 1.16-3.318 2.876-4.662 5.191z"></path></svg>