<svg xmlns="http://www.w3.org/2000/svg" height="149.312" viewBox="0 0 131.875 149.312" width="131.875"><path d="m36.411 62.958c-14.746.116-33.518 10.043-32.779 26.842.243 5.519 4.635 12.903 9.139 16.274 5.002 3.744 17.506 3.254 23.093.899-.381 5.204.882 9.042 4.164 13.462 3.073 4.138 7.147 7.465 11.632 9.975 9.578 5.36 21.727 5.443 30.879-.627 5.724-3.796 9.438-6.968 12.353-13.354 1.222-2.675 1.766-5.679 2.979-8.278 1.17-2.507 1.247-1.368 3.86-.354 4.71 1.828 12.06 1.691 16.064-1.622 3.524-2.917 8.027-6.636 9.779-11.02 2.092-5.232 2.097-12.686-1.136-17.438-3.619-5.318-11.226-7.997-16.814-10.543-3.076-1.401-6.301-2.683-9.507-3.767-1.262-.426-4.727-1.579-6.038-1.178-1.988.608-3.441 4.758-4.594 6.614-1.562 2.514-2.907 4.652-4.796 6.933-7.776 9.388-22.091 11.289-32.891 5.655-4.065-2.121-8.317-5.986-10.933-9.739-1.789-2.567-2.316-6.65-4.454-8.734" style="fill-rule:evenodd;clip-rule:evenodd;fill:#fff;stroke:#000;stroke-width:5;stroke-miterlimit:10"></path><path d="m96.401 107.295c-1.591-2.126-5.592-3.885-8.393-3.779-2.166.083-4.757 1.176-6.983 1.454-3.475.435-6.973.299-10.47.298-6.359-.001-13.112.191-19.298-1.441-4.303-1.136-5.12-3.428-9.02-.304-2.325 1.863-6.789 4.464-5.516 7.826 1.185 3.128 5.956 4.236 8.717 5.286 8.097 3.081 15.127 4.072 23.82 3.628 5.589-.285 12.258-1.275 17.353-3.75 2.625-1.276 10.096-4.401 9.5-8.348" fill="#ffd700"></path><ellipse cx="65.682" cy="57.854" rx="28.204" ry="26.965" style="fill-rule:evenodd;clip-rule:evenodd;fill:#ffd700;stroke:#000;stroke-width:5;stroke-miterlimit:10"></ellipse><path d="m29.636 11.829s23.113 3.92 27.516 20.161" style="clip-rule:evenodd;fill:none;stroke:#000;stroke-width:5;stroke-linecap:round;stroke-linejoin:round;stroke-miterlimit:10"></path><path d="m23.857 112.039c-15.974.001-22.692-16.032-22.77-16.225-.058-.143-.104-.291-.139-.441-1.916-8.352-.644-15.507 3.778-21.27 9.795-12.761 31.569-13.689 32.491-13.723 1.593-.068 2.941 1.191 2.999 2.79.058 1.598-1.192 2.941-2.79 2.999-.32.012-20.019.906-28.114 11.473-3.319 4.331-4.227 9.628-2.774 16.189.889 2.009 8.248 17.151 25.398 10.834.114-.042.231-.077.35-.104.517-.125 13.142-3.387 21.978-21.819.691-1.442 2.418-2.05 3.864-1.359 1.441.692 2.05 2.421 1.359 3.864-9.606 20.037-23.745 24.392-25.694 24.907-3.646 1.325-6.952 1.885-9.936 1.885z"></path><path d="m94.714 107.026c-3.116 14.462-14.885 25.251-28.895 25.251-14.414 0-26.459-11.418-29.146-26.508-1.707 1.16-3.46 2.235-5.234 3.297 3.95 16.66 17.867 29.003 34.38 29.003 16.145 0 29.797-11.802 34.09-27.898-2.034-.288-3.81-1.405-5.195-3.145z"></path><path clip-rule="evenodd" d="m65.8 148.708 7.586-14.635-6.053 1.376h-3.577l-5.776-1.896z" fill-rule="evenodd"></path><path d="m95.588 108.803c-.311.057-.619.154-.909.32-35.146 20.006-57.175-.84-58.125-1.768-.037-.036-.08-.061-.118-.095-1.7.569-3.404 1.079-4.764 1.666-.155.902.115 1.861.815 2.553.176.174 12.455 11.971 32.891 11.971 9.191 0 20.035-2.388 32.167-9.293.849-.483 1.355-1.332 1.444-2.236-1.227-.804-2.375-1.864-3.401-3.118z"></path><path d="m89.68 103.472c-1.879-.996-3.638-2.107-5.297-3.361-16.753 6.377-29.78 3.486-37.985-.281-.966 1.726-2.24 3.225-3.813 4.432 5.577 2.743 13.304 5.287 22.794 5.287 7.348 0 15.755-1.534 25.029-5.674-.233-.132-.465-.263-.728-.403z"></path><path d="m102.32 11.829s-23.113 3.92-27.516 20.161" style="clip-rule:evenodd;fill:none;stroke:#000;stroke-width:5;stroke-linecap:round;stroke-linejoin:round;stroke-miterlimit:10"></path><path d="m108.099 112.039c-2.984 0-6.29-.559-9.937-1.886-1.949-.515-16.087-4.87-25.694-24.907-.691-1.442-.083-3.172 1.359-3.864 1.443-.69 3.173-.082 3.864 1.359 8.837 18.432 21.462 21.693 21.996 21.823.107.026.229.062.333.101 17.243 6.351 24.508-8.788 25.397-10.828 1.457-6.569.545-11.873-2.782-16.207-8.153-10.622-27.906-11.454-28.105-11.46-1.598-.058-2.847-1.401-2.79-2.999s1.373-2.859 2.999-2.79c.922.034 22.695.962 32.49 13.723 4.423 5.762 5.694 12.918 3.779 21.27-.035.15-.081.298-.139.441-.078.192-6.798 16.222-22.77 16.224z"></path><g style="fill-rule:evenodd;clip-rule:evenodd;stroke:#000;stroke-width:5;stroke-miterlimit:10;fill:#ffd700;stroke-linecap:round;stroke-linejoin:round"><circle cx="20.525" cy="11.146" r="8.688"></circle><circle cx="113.198" cy="11.146" r="8.688"></circle></g></svg>