<svg xmlns="http://www.w3.org/2000/svg" height="147.375" viewBox="0 0 147.031 147.375" width="147.031"><g clip-rule="evenodd" fill="#ffd700" fill-rule="evenodd"><path d="m53.667 23.218c.615.028 5.356-5.727 6.37-6.704 2.74-2.64 5.33-5.27 8.138-7.833 1.541-1.406 3.255-4.562 5.358-5.087 2.216-.554 4.625 3.105 6.134 4.541 1.304 1.241 2.703 2.346 3.995 3.587.591.567 1.489 1.643 2.331 1.838 1.626.377 4.213-1.478 5.665-2.044 2.323-.906 4.423-2.106 6.7-3.088 1.72-.741 3.661-1.963 4.969-.694 1.519 1.474 2.674 5.234 3.399 7.17 1.207 3.219 2.358 6.25 3.773 9.287-1.648.902-3.824.682-5.632.694-2.819.019-5.639.001-8.458 0-6.733-.001-13.807.316-20.481-.463-5.255-.613-10.616-.354-15.871-.995-1.947-.238-4.512-.688-6.39-.209"></path><path d="m47.833 125.718c2.686 3.16 3.66 7.026 5.833 10.411 2.087 3.25 5.955-1.161 8.8-1.681 1.932 1.85 3.799 4.005 5.536 6.07 1.822 2.166 2.54 3.207 5.16 1.457 3.709-2.477 7.491-5.297 10.821-8.275 1.663-1.487 3.113-3.188 4.737-4.698 1.057-.982 2.501-1.983 3.11-3.295-3.228-1.01-7.947-.293-11.368-.318-4.805-.035-9.582-.703-14.383-.846-5.934-.176-12.083-.022-17.914.842"></path><path d="m126.167 55.552c2.618 1.195 4.778 4.067 7.108 5.821 1.452 1.093 2.91 1.928 4.071 3.359 1.603 1.978 3.024 4.142 4.617 6.153 2.494 3.15.512 4.683-1.847 7.177-.863.912-2.589 2.397-2.46 3.82.118 1.302 1.838 3.149 2.345 4.495.616 1.636.956 3.294 1.453 4.967.308 1.035 1.688 2.891 1.552 3.888-.16 1.174-2.341 2.011-3.217 2.654-1.787 1.312-3.45 2.821-5.323 4-1.667 1.05-7.783 6.141-9.265 4.01-.801-1.152-.352-4.765-.367-6.131-.029-2.678-.121-5.291-.296-7.955-.421-6.395-.294-12.817-.575-19.22-.237-5.419.207-11.339 1.704-16.538"></path><path d="m22.5 44.219c-2.252.164-8.1.828-9.17 3.501-.864 2.158 2.12 6.528 2.791 8.624.487 1.521.873 1.798.061 2.983-.572.835-1.8 1.296-2.552 1.954-1.129.989-2.182 2.165-3.254 3.22-2.037 2.003-5.915 4.831-5.057 8.16.432 1.676 2.077 3.283 3.015 4.716 1.159 1.769 2.099 3.704 3.45 5.336 1.241 1.499 2.798 2.306 4.254 3.535 1.402 1.184 2.467 2.825 3.925 3.936 3.802 2.899 3.189-6.078 3.205-8.031.022-2.748.37-5.45.336-8.213-.04-3.255-.646-6.472-.67-9.726-.032-4.294.019-8.595-.163-12.883-.08-1.895-.49-3.885-.337-5.779"></path></g><path d="m23.26 24.265h100.812v99.708h-100.812z" style="fill:#fff;stroke:#000;stroke-width:5;stroke-linecap:round;stroke-linejoin:round;stroke-miterlimit:10"></path><path d="m33.93 34.566h79.104v71.011h-79.104z" style="fill:none;stroke:#000;stroke-width:5;stroke-linecap:round;stroke-linejoin:round;stroke-miterlimit:10"></path><path d="m6.31 72.703 11.56-11.199c-.688-1.26-1.345-2.561-1.749-3.928-.109-.369-.19-.729-.26-1.087l-14.826 14.363c-.477.461-.75 1.093-.76 1.756-.011.663.243 1.303.704 1.779l21.62 22.318c-.326-2.542-.46-5.114-.496-7.698z"></path><path d="m51.678 24.085c1.792-.185 3.603-.386 5.423-.585l18.025-17.461 16.492 17.024c1.363.057 2.728.101 4.095.104.98.002 1.961-.009 2.942-.025l-21.677-22.378c-.461-.477-1.093-.75-1.756-.76-.669-.015-1.303.243-1.779.704l-24.727 23.954c.96-.266 1.943-.472 2.962-.577z"></path><path d="m89.217 124.248-17.011 16.479-15.174-15.663c-2.131.142-4.26.323-6.377.603l19.699 20.335c.49.506 1.143.761 1.795.761.626 0 1.254-.234 1.739-.705l21.776-21.095c-2.166-.062-4.304-.458-6.447-.715z"></path><path d="m146.353 72.379-21.903-22.609c-.226 2.184-.506 4.369-.634 6.531l17.206 17.762-15.388 14.907c.061 2.411-.076 4.821-.349 7.299l21.012-20.355c.992-.96 1.017-2.543.056-3.535z"></path><path d="m105.458 4.937c-.276-.603-.78-1.071-1.401-1.303-.622-.231-1.309-.206-1.913.069l-16.929 7.743c1.455 1.115 2.851 2.298 4.128 3.61l12.607-5.766 6.221 13.602c1.828-.04 3.656-.059 5.484-.031z"></path><path d="m130.453 59.588-5.764-12.603c-.127 2.01-.373 4.029-.584 6.041 1.871 2.401 4.158 4.427 6.348 6.562z"></path><path d="m146.929 95.612-7.47-16.332c-1.073 1.486-2.226 2.908-3.556 4.189-.006.006-.013.01-.02.016l5.458 11.934-16.885 7.722c-.19 2.042-.378 4.058-.953 5.935l22.191-10.149c.603-.276 1.071-.78 1.303-1.401.232-.623.208-1.311-.068-1.914z"></path><path d="m22.145 76.19c-.072-3.957-.271-7.906-.377-11.857l-6.948-15.192 7.494-3.428c.174-2.019.451-4.018.896-5.908l-12.744 5.829c-1.255.574-1.808 2.058-1.233 3.313l12.918 28.245c-.003-.334-.001-.67-.006-1.002z"></path><path d="m60.083 132.583-5.872 2.686-4.341-9.491c-1.711.254-3.513.58-5.266.509l6.099 13.335c.42.918 1.327 1.46 2.275 1.46.348 0 .701-.073 1.039-.227l10.315-4.718c-1.563-.808-2.957-2.034-4.249-3.554z"></path><path d="m75.492 83.654c-.863 1.647-1.648 3.309-2.583 4.881-.882 1.485-2.104 2.696-3.602 3.59-2.167 1.293-4.492 1.582-6.886.848-3.569-1.094-6.164-3.368-7.683-6.79-1.301-2.931-.857-5.718.878-8.343.339-.513.734-.988 1.163-1.56-.352.004-.644.011-.936.012-4.403.016-7.329-2.171-9.104-6.088-1.066-2.354-1.495-4.873-1.795-7.401-.168-1.414-.212-2.88-.041-4.289.375-3.085 2.423-4.74 5.538-4.718 3.024.021 5.797.977 8.454 2.307 5.185 2.598 9.756 6 13.474 10.491.034.041.076.075.174.171.086-.228.158-.42.234-.612 2.468-6.224 6.206-11.555 11.271-15.934 1.706-1.475 3.614-2.631 5.833-3.198 2.353-.601 4.292.135 5.632 2.161.951 1.436 1.447 3.05 1.774 4.719.486 2.486.916 4.98.725 7.532-.216 2.874-1.157 5.396-3.515 7.226-1.003.779-2.135 1.309-3.344 1.684-.185.057-.368.121-.55.18.829.627 1.677 1.167 2.405 1.839 2.221 2.048 3.094 4.607 2.666 7.595-.434 3.023-1.829 5.545-4.105 7.562-3.022 2.678-6.926 3.035-10.547 1.023-2.037-1.133-3.682-2.716-5.178-4.472-.14-.166-.278-.329-.352-.416z" style="fill-rule:evenodd;clip-rule:evenodd;fill:#ffd700;stroke:#000;stroke-width:5;stroke-linecap:round;stroke-linejoin:round;stroke-miterlimit:10"></path></svg>