<svg xmlns="http://www.w3.org/2000/svg" height="149.08" viewBox="0 0 150.021 149.08" width="150.021"><path d="m138.22 29.211c-8.104.644-14.17 5.883-20.166 10.845-7.033 5.82-13.892 11.854-21.043 17.531l-2.36 1.873c-1.28-.65-2.566-1.224-3.856-1.763 9.082-5.424 15.194-15.323 15.194-26.649 0-12.926-7.944-24.024-19.203-28.689-3.225-1.443-8.185-2.187-8.21-2.129-1.166-.137-2.349-.225-3.549-.229v-.001c-.004 0-.009 0-.013 0s-.009 0-.013 0v.001c-1.2.004-2.383.092-3.549.229-.025-.058-4.985.686-8.21 2.129-11.259 4.665-19.203 15.763-19.203 28.689 0 11.326 6.112 21.225 15.194 26.649-1.29.539-2.576 1.112-3.856 1.763l-2.36-1.873c-7.151-5.677-14.01-11.711-21.043-17.531-5.996-4.962-12.062-10.202-20.166-10.845-11.919-.947-15.549 14.634-7.486 21.909 3.877 3.498 8.182 6.435 12.331 9.587 4.078 3.097 8.187 5.653 12.373 8.609 2.835 2.002 5.728 4.247 7 7.75.865 2.383 1.322 7.2 1.331 9.758.01 2.782-.015 5.563-.058 8.345-.086 5.562-.174 11.123-.164 16.687.019 10.343-.07 20.686-.05 31.028.001.245.041 6.198-.003 6.198h37.918.025 37.918c-.044 0-.004-5.954-.003-6.198.021-10.343-.068-20.685-.05-31.028.01-5.563-.078-11.124-.164-16.687-.043-2.782-.067-5.563-.058-8.345.009-2.559.466-7.375 1.331-9.758 1.272-3.503 4.165-5.748 7-7.75 4.187-2.957 8.295-5.512 12.373-8.609 4.149-3.152 8.454-6.089 12.331-9.587 8.066-7.275 4.436-22.856-7.483-21.909z" fill="#ffd700"></path><path d="m95.16 75.584c-3.138-2.789-6.577-4.056-10.228-3.755-4.083.333-7.423 2.616-9.432 4.375-2.009-1.759-5.347-4.043-9.432-4.375-3.647-.292-7.088.967-10.225 3.755-3.4 3.022-5.184 6.442-5.299 10.163-.184 5.802 3.925 10.006 4.092 10.174l18.608 18.889c.56.568 1.299.854 2.038.854.073 0 .146-.015.217-.021.073.006.146.021.22.021.739 0 1.478-.285 2.038-.854l18.599-18.88c.175-.176 4.282-4.38 4.101-10.182-.114-3.722-1.896-7.142-5.297-10.164z" style="fill:#fff;stroke:#000;stroke-width:5;stroke-linecap:round;stroke-linejoin:round;stroke-miterlimit:10"></path><path d="m139.243 29.169c-.334 0-.677.014-1.025.042-8.104.644-14.17 5.883-20.166 10.845-7.033 5.82-13.892 11.854-21.043 17.531l-2.36 1.873c-1.28-.65-2.566-1.224-3.856-1.763 9.082-5.424 15.194-15.323 15.194-26.649 0-12.926-7.944-24.024-19.203-28.689-3.107-1.391-7.827-2.132-8.188-2.132-.013 0-.021.001-.021.003-1.166-.137-2.348-.225-3.547-.229v-.001c-.005 0-.009 0-.014 0s-.009 0-.014 0v.001c-1.2.004-2.382.092-3.548.229-.001-.002-.009-.003-.021-.003-.361 0-5.081.741-8.188 2.132-11.26 4.665-19.204 15.763-19.204 28.689 0 11.326 6.112 21.225 15.194 26.649-1.29.539-2.576 1.112-3.856 1.763l-2.36-1.873c-7.151-5.677-14.01-11.711-21.043-17.531-5.996-4.962-12.062-10.202-20.166-10.845-.349-.028-.691-.042-1.025-.042-11.098-.001-14.289 14.889-6.461 21.951 3.877 3.498 8.182 6.435 12.331 9.587 4.078 3.097 8.187 5.653 12.373 8.609 2.835 2.002 5.728 4.247 7 7.75.865 2.383 1.322 7.2 1.331 9.758.01 2.782-.015 5.563-.058 8.345-.086 5.562-.174 11.123-.164 16.687.019 10.343-.07 20.686-.05 31.028.001.245.041 6.198-.003 6.198h37.916.027 37.916c-.044 0-.004-5.954-.003-6.198.021-10.343-.068-20.685-.05-31.028.01-5.563-.078-11.124-.164-16.687-.043-2.782-.067-5.563-.058-8.345.009-2.559.466-7.375 1.331-9.758 1.272-3.503 4.165-5.748 7-7.75 4.187-2.957 8.295-5.512 12.373-8.609 4.149-3.152 8.454-6.089 12.331-9.587 7.83-7.062 4.64-21.952-6.458-21.951zm3.111 18.239c-2.634 2.377-5.495 4.488-8.523 6.723-1.165.859-2.33 1.719-3.482 2.595-2.405 1.827-4.817 3.453-7.37 5.175-1.582 1.067-3.217 2.169-4.863 3.332-3.342 2.36-7.056 5.284-8.814 10.127-1.172 3.225-1.622 8.733-1.632 11.448-.009 2.561.01 5.322.059 8.439l.005.33c.082 5.339.168 10.86.158 16.271-.009 5.137.008 10.354.025 15.399.017 5.125.035 10.423.024 15.628l-.001.195c-.002.353-.004.69-.006 1.013h-27.935l-4.973-.017h-.014-.014l-4.973.017h-27.932c-.002-.323-.004-.66-.006-1.013l-.001-.195c-.011-5.205.008-10.504.024-15.628.018-5.045.034-10.262.025-15.399-.01-5.411.076-10.932.158-16.271l.005-.33c.049-3.118.067-5.878.059-8.439-.01-2.715-.46-8.223-1.632-11.448-1.759-4.843-5.473-7.767-8.814-10.127-1.646-1.163-3.281-2.265-4.863-3.332-2.553-1.722-4.965-3.348-7.37-5.175-1.152-.876-2.317-1.736-3.482-2.595-3.028-2.235-5.89-4.346-8.523-6.723-2.807-2.532-3.183-6.7-2.103-9.508.654-1.702 2.09-3.73 5.212-3.73.205 0 .417.009.631.026 6.253.497 11.358 4.728 16.764 9.208l.61.505c2.611 2.162 5.254 4.398 7.809 6.562 4.315 3.654 8.777 7.433 13.313 11.034l2.36 1.873c.902.716 2.002 1.083 3.109 1.083.771 0 1.548-.179 2.264-.542 1.037-.527 2.155-1.037 3.518-1.606 1.742-.728 2.927-2.374 3.062-4.257s-.803-3.682-2.424-4.649c-7.988-4.771-12.758-13.129-12.758-22.356 0-10.565 6.326-20.013 16.117-24.07.043-.018.086-.036.129-.056 1.353-.605 3.298-1.093 4.741-1.394 0 0 2.75-.503 4.5-.611.162-.01.811-.01.973 0 1.75.107 4.5.611 4.5.611 1.443.3 3.389.789 4.741 1.394.043.02.086.038.129.056 9.791 4.057 16.117 13.505 16.117 24.07 0 9.228-4.77 17.585-12.758 22.356-1.621.968-2.559 2.767-2.424 4.649.135 1.883 1.319 3.53 3.062 4.257 1.362.569 2.48 1.079 3.518 1.606.716.364 1.492.542 2.264.542 1.107 0 2.207-.368 3.109-1.083l2.36-1.873c4.536-3.601 8.998-7.379 13.313-11.034 2.555-2.163 5.197-4.4 7.809-6.562l.61-.505c5.405-4.48 10.511-8.711 16.764-9.208.214-.017.426-.026.631-.026 3.122 0 4.558 2.028 5.212 3.73 1.079 2.808.703 6.975-2.103 9.508z"></path></svg>